<svg width="880" height="880" viewBox="0 0 880 880" fill="none" xmlns="http://www.w3.org/2000/svg">
<path d="M243.033 548.219C242.34 547.356 241.654 546.494 240.974 545.625C223.061 524.306 192.115 517.619 166.533 531.2C141.575 544.448 129.737 572.724 136.242 598.961C137.551 603.929 139.409 608.708 141.776 613.222C147.883 624.851 157.34 634.686 169.285 641.234L407.285 771.624C427.666 782.788 452.347 782.788 472.722 771.624L705.225 644.25C545.879 728.155 352.274 684.597 243.033 548.219Z" fill="url(#paint0_linear_1190_3708)"/>
<path d="M744.086 282.276C742.782 276.912 740.831 271.755 738.3 266.913C732.198 255.221 722.71 245.336 710.722 238.762L472.722 108.372C452.341 97.2092 427.659 97.2092 407.284 108.372L174.51 235.898C333.24 152.1 526.07 194.89 635.638 329.99C637.156 332.187 638.799 334.258 640.562 336.198C658.702 356.188 688.722 362.138 713.624 348.853C738.161 335.763 749.967 308.148 744.086 282.276Z" fill="url(#paint1_linear_1190_3708)"/>
<path d="M744.086 282.276C749.967 308.148 738.161 335.769 713.624 348.853C688.723 362.132 658.696 356.188 640.562 336.198C638.806 334.258 637.162 332.187 635.638 329.989C626.263 318.436 616.284 307.556 605.769 297.368C612.128 304.206 618.103 311.504 623.638 319.261C623.638 319.261 623.644 319.273 623.65 319.273C623.82 319.506 623.984 319.745 624.154 319.978C624.217 320.073 624.286 320.161 624.356 320.255L626.402 323.108L585.495 349.307C579.897 352.889 573.607 354.639 567.343 354.684C558.181 354.753 549.077 351.189 542.271 344.421C523.999 326.363 500.954 313.468 475.461 307.222C459.644 303.287 448.462 289.303 449.551 273.285L450.313 261.247L452.548 225.912L455.955 226.182C493.342 228.972 529.974 240.853 561.934 261.051C451.283 182.933 301.91 168.634 174.51 235.891L169.473 238.649L169.284 238.756C147.524 250.688 134 273.493 134 298.262V581.734C134 587.628 134.774 593.414 136.235 598.961C129.731 572.724 141.568 544.448 166.527 531.2C192.115 517.619 223.055 524.312 240.968 545.625C241.673 546.469 242.366 547.331 243.027 548.219C352.267 684.597 545.872 728.155 705.219 644.25L710.608 641.297L710.722 641.234C732.476 629.309 746 606.504 746 581.734V298.262C746 292.81 745.345 287.445 744.086 282.276ZM242.819 536.193L241.749 534.059C235.068 520.578 229.949 506.733 226.335 492.73C226.077 491.729 225.825 490.728 225.586 489.727C223.156 479.709 221.487 469.616 220.549 459.523C220.454 458.516 220.366 457.502 220.291 456.495C219.743 449.449 219.548 442.404 219.711 435.389C219.919 426.178 220.731 417.011 222.129 407.956C222.381 406.313 222.658 404.67 222.948 403.033C223.011 402.68 223.074 402.321 223.143 401.969C223.433 400.388 223.741 398.814 224.069 397.24C224.566 394.848 225.101 392.468 225.68 390.094C226.279 387.638 226.921 385.195 227.601 382.759C227.739 382.268 227.878 381.783 228.016 381.298C228.677 379.012 229.376 376.746 230.113 374.485C230.314 373.856 230.522 373.232 230.736 372.609C233.803 363.486 237.48 354.564 241.761 345.913L243.26 342.928L247.768 345.094L287.031 363.964C301.891 371.029 308.987 387.449 304.485 402.794C297.257 427.091 297.257 452.881 304.485 477.178C308.143 490.041 303.843 503.559 293.611 511.839C293.599 511.852 293.586 511.858 293.573 511.871C293.101 512.255 292.616 512.62 292.119 512.979C292.075 513.01 292.024 513.042 291.98 513.073C291.552 513.382 291.111 513.678 290.664 513.961C290.526 514.049 290.387 514.137 290.243 514.225C289.865 514.465 289.474 514.691 289.084 514.918C288.939 515 288.794 515.088 288.65 515.164C288.121 515.453 287.592 515.737 287.044 516.001L243.272 537.037L242.844 536.187L242.819 536.193ZM431.96 606.693L429.126 651.403L428.956 654.066L427.036 653.921L425.411 653.795C422.333 653.569 419.266 653.279 416.225 652.933C373.354 648.085 334.348 631.601 302.508 607.02C300.499 605.465 298.516 603.885 296.558 602.267C294.726 600.749 292.919 599.207 291.137 597.639C288.996 595.75 286.887 593.817 284.821 591.852C284.041 591.109 283.26 590.354 282.492 589.598C281.403 588.528 280.326 587.445 279.256 586.349C278.588 585.663 277.921 584.977 277.26 584.284C269.912 576.578 263.143 568.367 257.017 559.722L255.487 557.588L254.971 556.87L287.888 535.784L295.871 530.671C295.871 530.671 295.871 530.671 295.878 530.671C296.281 530.413 296.684 530.168 297.093 529.935C297.25 529.84 297.414 529.752 297.571 529.664C297.83 529.519 298.081 529.374 298.346 529.242C298.522 529.148 298.705 529.059 298.881 528.971C299.127 528.845 299.379 528.719 299.624 528.606C299.807 528.518 299.989 528.436 300.166 528.354C300.417 528.241 300.676 528.128 300.927 528.021C301.104 527.945 301.28 527.87 301.463 527.8C301.727 527.693 301.991 527.592 302.262 527.492C302.439 527.429 302.609 527.359 302.785 527.297C303.056 527.202 303.32 527.114 303.591 527.02C303.767 526.963 303.95 526.9 304.126 526.843C304.371 526.768 304.617 526.698 304.856 526.629C316.8 523.21 330.004 526.503 339.089 535.438C357.493 553.628 380.538 566.522 405.899 572.768C419.6 576.206 429.831 587.206 431.651 600.541C431.651 600.554 431.651 600.566 431.651 600.579C431.733 601.19 431.79 601.801 431.84 602.418C431.853 602.581 431.865 602.739 431.871 602.902C431.909 603.532 431.934 604.162 431.934 604.804V606.705L431.96 606.693ZM405.912 307.228C380.55 313.474 357.506 326.369 339.102 344.427C339.026 344.502 338.944 344.578 338.863 344.66C338.611 344.905 338.359 345.151 338.107 345.39C337.969 345.522 337.824 345.648 337.679 345.774C337.471 345.957 337.27 346.146 337.062 346.322C336.911 346.454 336.753 346.58 336.596 346.712C336.388 346.882 336.187 347.052 335.979 347.216C335.821 347.342 335.664 347.462 335.5 347.588C335.286 347.751 335.072 347.909 334.852 348.066C334.694 348.179 334.537 348.293 334.38 348.4C334.14 348.564 333.901 348.727 333.662 348.885C333.523 348.979 333.379 349.074 333.24 349.168C332.931 349.363 332.623 349.552 332.314 349.741C332.233 349.791 332.157 349.842 332.075 349.886C331.679 350.119 331.276 350.345 330.866 350.566C330.784 350.61 330.696 350.654 330.608 350.698C330.287 350.868 329.96 351.032 329.632 351.189C329.506 351.252 329.38 351.309 329.254 351.365C328.965 351.504 328.669 351.636 328.373 351.768C328.241 351.825 328.102 351.882 327.97 351.945C327.674 352.071 327.378 352.19 327.076 352.31C326.944 352.36 326.818 352.411 326.686 352.461C326.364 352.581 326.037 352.7 325.716 352.807C325.609 352.845 325.508 352.883 325.401 352.914C324.998 353.047 324.589 353.179 324.18 353.298C324.154 353.305 324.129 353.317 324.104 353.324C323.26 353.569 322.41 353.783 321.548 353.966C321.548 353.966 321.548 353.966 321.548 353.959C312.997 355.754 303.817 354.337 295.997 349.325L254.958 323.127L257.004 320.274C296.954 263.803 359.949 231.087 425.399 226.201L428.944 225.931L431.941 273.304C432.898 289.322 421.716 303.306 405.899 307.241L405.912 307.228ZM624.343 559.722C588.933 609.885 531.888 645.314 465.443 652.908C462.301 653.267 459.134 653.562 455.948 653.795L454.242 653.928L452.536 654.066L449.539 606.693C449.507 606.189 449.488 605.685 449.482 605.182C449.482 605.119 449.482 605.049 449.482 604.987C449.482 604.558 449.482 604.124 449.495 603.696C449.495 603.696 449.495 603.689 449.495 603.683C449.992 588.944 460.627 576.439 475.574 572.75C500.936 566.504 523.98 553.609 542.252 535.419C553.705 524.148 571.706 521.844 585.476 530.665L626.333 556.832L626.383 556.864L624.337 559.716L624.343 559.722Z" fill="url(#paint2_linear_1190_3708)"/>
<defs>
<linearGradient id="paint0_linear_1190_3708" x1="705.219" y1="652.07" x2="134.472" y2="652.07" gradientUnits="userSpaceOnUse">
<stop stop-color="white" stop-opacity="0"/>
<stop offset="0.5" stop-color="white"/>
</linearGradient>
<linearGradient id="paint1_linear_1190_3708" x1="746.082" y1="395.578" x2="148.425" y2="79.4725" gradientUnits="userSpaceOnUse">
<stop stop-color="white" stop-opacity="0"/>
<stop offset="0.05" stop-color="white" stop-opacity="0.0576"/>
<stop offset="0.1" stop-color="white" stop-opacity="0.2209"/>
<stop offset="0.15" stop-color="white" stop-opacity="0.4356"/>
<stop offset="0.19" stop-color="white" stop-opacity="0.6561"/>
<stop offset="0.23" stop-color="white" stop-opacity="0.8281"/>
<stop offset="0.27" stop-color="white" stop-opacity="0.9604"/>
<stop offset="0.3" stop-color="white"/>
</linearGradient>
<linearGradient id="paint2_linear_1190_3708" x1="141.518" y1="439.979" x2="729.025" y2="439.979" gradientUnits="userSpaceOnUse">
<stop stop-color="white" stop-opacity="0.3"/>
<stop offset="0.02" stop-color="white" stop-opacity="0.1849"/>
<stop offset="0.04" stop-color="white" stop-opacity="0.36"/>
<stop offset="0.07" stop-color="white" stop-opacity="0.5625"/>
<stop offset="0.1" stop-color="white" stop-opacity="0.7396"/>
<stop offset="0.13" stop-color="white" stop-opacity="0.8836"/>
<stop offset="0.15" stop-color="white" stop-opacity="0.9604"/>
<stop offset="0.18" stop-color="white"/>
</linearGradient>
</defs>
</svg>
