<svg width="74" height="12" viewBox="0 0 74 12" fill="none" xmlns="http://www.w3.org/2000/svg">
<path fill-rule="evenodd" clip-rule="evenodd" d="M15.8709 7.0877C15.7685 6.73178 15.7174 6.36602 15.7174 6.00002C15.7174 5.81594 15.7565 5.28002 15.7565 5.28002C15.7565 4.8161 15.3731 4.44002 14.9 4.44002H13.6758V6.00002H13.677C13.6763 6.88802 13.8722 7.7897 14.2885 8.64002L15.4332 8.07986C15.8057 7.89746 15.9841 7.48082 15.8709 7.0877M18.8569 9.88011C18.1256 9.69795 17.4623 9.32259 16.935 8.79147C16.6442 8.49867 16.1865 8.44203 15.8393 8.66763L14.773 9.36027C15.8016 10.8322 17.4859 11.8539 19.4367 12L19.5146 10.7479C19.5396 10.3404 19.2608 9.98067 18.8569 9.88011M15.7565 3V0.84C15.7565 0.37608 15.373 0 14.9 0H13.6758V3.84H14.9C15.373 3.84 15.7565 3.46392 15.7565 3M29.9655 8.79147C29.4414 9.32259 28.7822 9.69795 28.0548 9.88011C27.6536 9.98067 27.3762 10.3404 27.4012 10.7479L27.4784 12C29.4178 11.8539 31.0924 10.8322 32.1146 9.36027L31.0547 8.66763C30.7094 8.44203 30.2546 8.49867 29.9655 8.79147M22.0039 2.64024L23.0648 3.33216C23.4101 3.55752 23.8646 3.5004 24.1535 3.20784C24.6769 2.67768 25.3363 2.30256 26.0649 2.12016C26.4664 2.0196 26.7438 1.65936 26.7182 1.25184L26.6399 0C24.8365 0.13752 23.1018 1.05672 22.0039 2.64024M26.0639 9.88011C25.3363 9.69795 24.6774 9.32259 24.153 8.79147C23.8642 8.49867 23.4091 8.44203 23.0638 8.66763L22.0039 9.36027C23.0264 10.8322 24.7007 11.8539 26.6401 12L26.7172 10.7479C26.7426 10.3404 26.4649 9.98067 26.0639 9.88011M28.0536 2.12016C28.7824 2.30256 29.4416 2.67768 29.965 3.20784C30.2539 3.5004 30.7086 3.55752 31.0539 3.33216L32.1146 2.64024C31.0167 1.05672 29.2822 0.13752 27.4786 0L27.4005 1.25184C27.375 1.65936 27.6524 2.0196 28.0536 2.12016M23.158 7.08766C22.9543 6.37558 22.9543 5.62462 23.1585 4.91134C23.2709 4.51798 23.0935 4.1011 22.7227 3.91894L21.5844 3.35998C20.8035 4.96918 20.7432 6.9103 21.5846 8.63998L22.7227 8.07982C23.0933 7.89742 23.2704 7.48078 23.158 7.08766M32.5341 3.35998L31.3961 3.91894C31.0252 4.1011 30.8478 4.51798 30.9603 4.91134C31.1644 5.62462 31.1644 6.37558 30.9607 7.08766C30.8483 7.48078 31.0255 7.89742 31.3958 8.07982L32.5341 8.63998C33.3753 6.9103 33.3152 4.96918 32.5341 3.35998M1.07721 2.64024L2.13814 3.33216C2.48343 3.55752 2.93798 3.5004 3.22682 3.20784C3.75023 2.67768 4.40966 2.30256 5.1382 2.12016C5.5397 2.0196 5.8171 1.65936 5.79155 1.25184L5.7132 0C3.90985 0.13752 2.17513 1.05672 1.07721 2.64024M5.13723 9.88011C4.40966 9.69795 3.75072 9.32259 3.22633 8.79147C2.9375 8.49867 2.48246 8.44203 2.13717 8.66763L1.07721 9.36027C2.0997 10.8322 3.77408 11.8539 5.71344 12L5.79058 10.7479C5.81589 10.3404 5.53824 9.98067 5.13723 9.88011M7.12696 2.12016C7.85575 2.30256 8.51494 2.67768 9.03835 3.20784C9.32719 3.5004 9.78198 3.55752 10.1273 3.33216L11.188 2.64024C10.09 1.05672 8.35556 0.13752 6.55197 0L6.47386 1.25184C6.44831 1.65936 6.72571 2.0196 7.12696 2.12016M2.23134 7.08766C2.02767 6.37558 2.02767 5.62462 2.23183 4.91134C2.34425 4.51798 2.16686 4.1011 1.79602 3.91894L0.657706 3.35998C-0.123151 4.96918 -0.183497 6.9103 0.657949 8.63998L1.79602 8.07982C2.16662 7.89742 2.34376 7.48078 2.23134 7.08766M10.128 8.66763L11.188 9.36027C10.1657 10.8322 8.49109 11.8539 6.55173 12L6.47459 10.7479C6.44953 10.3404 6.72693 9.98067 7.12818 9.88011C7.85551 9.69795 8.5147 9.32259 9.03884 8.79147C9.32792 8.49867 9.78271 8.44203 10.128 8.66763" fill="#42CDDD"/>
<path fill-rule="evenodd" clip-rule="evenodd" d="M42.7851 2.55576C43.1871 2.3184 43.7702 2.19816 44.5174 2.19816C44.9562 2.19816 45.4608 2.29008 46.0174 2.47128C46.4841 2.62368 46.8666 2.79 47.1625 2.96808L47.3126 3.06936C47.7521 3.36552 48.356 3.2736 48.6792 2.86152L49.4459 1.88376L48.4967 1.25472C48.4935 1.25232 47.5873 0.681595 46.7415 0.429115C46.0497 0.222475 45.3012 0.119995 44.5174 0.119995C43.6448 0.119995 42.8411 0.254635 42.1284 0.519835C41.4091 0.787915 40.8324 1.18224 40.4143 1.69248C39.9924 2.20728 39.7788 2.82071 39.7788 3.51624C39.7788 5.41032 41.1753 6.54719 43.9286 6.89567C44.9773 7.03127 45.7502 7.23336 46.2256 7.49592C46.6799 7.74672 46.9007 8.08128 46.9007 8.51856C46.9007 8.8692 46.6775 9.15911 46.2179 9.40463C45.7412 9.65951 45.163 9.78887 44.4992 9.78887C43.877 9.78887 42.8173 9.67151 41.4733 8.80511C41.4281 8.77559 41.3205 8.69976 41.1911 8.6064C40.7606 8.2968 40.1518 8.37168 39.8162 8.77632L38.9826 9.78144C38.9826 9.78144 40.107 10.5881 40.8088 10.9901C42.6915 12.0689 45.1479 12.0874 46.8342 11.4696C47.5786 11.1967 48.2349 10.7688 48.6833 10.249C49.1371 9.72311 49.3671 9.10344 49.3671 8.40672C49.3671 7.67112 49.198 7.06968 48.8644 6.61944H48.8641C48.5317 6.17088 48.0322 5.8128 47.3795 5.5548C46.7391 5.30184 45.876 5.09232 44.8153 4.932C43.8986 4.78584 43.2205 4.59696 42.799 4.37064C42.4014 4.15728 42.2082 3.85176 42.2082 3.43632C42.2082 3.07296 42.3968 2.78496 42.7851 2.55576V2.55576ZM61.3692 0.360018V1.44002C61.3692 1.97018 61.8051 2.40002 62.3426 2.40002H66.0534V10.5C66.0534 11.1298 66.571 11.64 67.2092 11.64C67.8478 11.64 68.3651 11.1298 68.3651 10.5V2.40002H72.0759C72.6137 2.40002 73.0492 1.97018 73.0492 1.44002V0.360018H61.3692ZM50.9059 0.360018H59.9092V1.44002C59.9092 1.97018 59.4737 2.40002 58.9359 2.40002H52.9742V4.98002H57.9017C58.4731 4.98002 58.9359 5.43674 58.9359 6.00002C58.9359 6.5633 58.4731 7.02002 57.9017 7.02002H52.9742V9.60002H58.9359C59.4737 9.60002 59.9092 10.0299 59.9092 10.56V11.64H50.9059V0.360018Z" fill="#A4A6A8"/>
<path fill-rule="evenodd" clip-rule="evenodd" d="M38.9826 6.96004H35.4543C34.9839 6.96004 34.6026 6.58396 34.6026 6.12004V5.04004H38.1309C38.6015 5.04004 38.9826 5.41612 38.9826 5.88004V6.96004Z" fill="#EBEBED"/>
</svg>
