<svg width="74" height="12" viewBox="0 0 74 12" fill="none" xmlns="http://www.w3.org/2000/svg">
<path fill-rule="evenodd" clip-rule="evenodd" d="M15.9694 7.08772C15.8669 6.7318 15.8158 6.36604 15.8158 6.00004C15.8158 5.81596 15.855 5.28004 15.855 5.28004C15.855 4.81612 15.4715 4.44004 14.9985 4.44004H13.7743V6.00004H13.7755C13.7747 6.88804 13.9706 7.78972 14.387 8.64004L15.5316 8.07988C15.9041 7.89748 16.0825 7.48084 15.9694 7.08772M18.9553 9.88011C18.2241 9.69795 17.5608 9.32259 17.0335 8.79147C16.7427 8.49867 16.285 8.44203 15.9377 8.66763L14.8714 9.36027C15.9 10.8322 17.5844 11.8539 19.5352 12L19.613 10.7479C19.6381 10.3404 19.3592 9.98067 18.9553 9.88011M15.855 3V0.84C15.855 0.37608 15.4715 0 14.9985 0H13.7743V3.84H14.9985C15.4715 3.84 15.855 3.46392 15.855 3M30.0639 8.79147C29.5398 9.32259 28.8806 9.69795 28.1533 9.88011C27.752 9.98067 27.4746 10.3404 27.4997 10.7479L27.5768 12C29.5162 11.8539 31.1908 10.8322 32.2131 9.36027L31.1531 8.66763C30.8078 8.44203 30.353 8.49867 30.0639 8.79147M22.1023 2.64024L23.1633 3.33216C23.5085 3.55752 23.9631 3.5004 24.2519 3.20784C24.7753 2.67768 25.4348 2.30256 26.1633 2.12016C26.5648 2.0196 26.8422 1.65936 26.8167 1.25184L26.7383 0C24.935 0.13752 23.2002 1.05672 22.1023 2.64024M26.1623 9.88011C25.4348 9.69795 24.7758 9.32259 24.2514 8.79147C23.9626 8.49867 23.5076 8.44203 23.1623 8.66763L22.1023 9.36027C23.1248 10.8322 24.7992 11.8539 26.7386 12L26.8157 10.7479C26.841 10.3404 26.5634 9.98067 26.1623 9.88011M28.1521 2.12016C28.8809 2.30256 29.5401 2.67768 30.0635 3.20784C30.3523 3.5004 30.8071 3.55752 31.1524 3.33216L32.2131 2.64024C31.1151 1.05672 29.3807 0.13752 27.5771 0L27.499 1.25184C27.4734 1.65936 27.7508 2.0196 28.1521 2.12016M23.2564 7.08767C23.0528 6.37559 23.0528 5.62463 23.2569 4.91135C23.3694 4.51799 23.192 4.10111 22.8211 3.91895L21.6828 3.35999C20.902 4.96919 20.8416 6.91031 21.6831 8.63999L22.8211 8.07983C23.1917 7.89743 23.3689 7.48079 23.2564 7.08767M32.6326 3.35999L31.4945 3.91895C31.1237 4.10111 30.9463 4.51799 31.0587 4.91135C31.2629 5.62463 31.2629 6.37559 31.0592 7.08767C30.9468 7.48079 31.1239 7.89743 31.4943 8.07983L32.6326 8.63999C33.4738 6.91031 33.4137 4.96919 32.6326 3.35999M1.17566 2.64024L2.23659 3.33216C2.58188 3.55752 3.03643 3.5004 3.32527 3.20784C3.84868 2.67768 4.50811 2.30256 5.23665 2.12016C5.63815 2.0196 5.91555 1.65936 5.89 1.25184L5.81165 0C4.0083 0.13752 2.27358 1.05672 1.17566 2.64024M5.23568 9.88011C4.50811 9.69795 3.84916 9.32259 3.32478 8.79147C3.03594 8.49867 2.58091 8.44203 2.23562 8.66763L1.17566 9.36027C2.19815 10.8322 3.87252 11.8539 5.81189 12L5.88903 10.7479C5.91433 10.3404 5.63669 9.98067 5.23568 9.88011M7.22542 2.12016C7.9542 2.30256 8.61339 2.67768 9.1368 3.20784C9.42564 3.5004 9.88043 3.55752 10.2257 3.33216L11.2864 2.64024C10.1885 1.05672 8.45401 0.13752 6.65042 0L6.57231 1.25184C6.54676 1.65936 6.82416 2.0196 7.22542 2.12016M2.32979 7.08767C2.12612 6.37559 2.12612 5.62463 2.33028 4.91135C2.4427 4.51799 2.26531 4.10111 1.89447 3.91895L0.756156 3.35999C-0.0247009 4.96919 -0.0850476 6.91031 0.756399 8.63999L1.89447 8.07983C2.26507 7.89743 2.44221 7.48079 2.32979 7.08767M10.2264 8.66763L11.2864 9.36027C10.2642 10.8322 8.58955 11.8539 6.65018 12L6.57304 10.7479C6.54798 10.3404 6.82538 9.98067 7.22664 9.88011C7.95396 9.69795 8.61315 9.32259 9.13729 8.79147C9.42637 8.49867 9.88116 8.44203 10.2264 8.66763" fill="black"/>
<path fill-rule="evenodd" clip-rule="evenodd" d="M42.8834 2.55575C43.2856 2.31863 43.8686 2.19816 44.6159 2.19816C45.0547 2.19816 45.5591 2.29008 46.1156 2.47127C46.5823 2.62367 46.9651 2.79 47.2607 2.96808L47.4111 3.06936C47.8503 3.36552 48.4543 3.27359 48.7777 2.86151L49.5444 1.88376L48.5952 1.25472C48.5917 1.25232 47.6856 0.681595 46.84 0.429115C46.1482 0.222715 45.3995 0.119995 44.6159 0.119995C43.7433 0.119995 42.9396 0.254635 42.2269 0.519835C41.5073 0.787915 40.9306 1.18248 40.5128 1.69248C40.0909 2.20727 39.8772 2.82071 39.8772 3.51623C39.8772 5.41031 41.2735 6.54719 44.0268 6.89567C45.0756 7.03151 45.8484 7.23335 46.3241 7.49591C46.7782 7.74671 46.9991 8.08127 46.9991 8.51855C46.9991 8.86919 46.7757 9.15911 46.3161 9.40463C45.8396 9.65951 45.2612 9.78887 44.5974 9.78887C43.9752 9.78887 42.9155 9.67151 41.5718 8.80511C41.5266 8.77583 41.419 8.69975 41.2896 8.60639C40.8588 8.29679 40.25 8.37191 39.9145 8.77631L39.0811 9.78143C39.0811 9.78143 40.2053 10.5881 40.907 10.9901C42.7899 12.0689 45.2464 12.0874 46.9327 11.4696C47.6771 11.1967 48.3331 10.7688 48.7818 10.249C49.2354 9.72311 49.4656 9.10343 49.4656 8.40671C49.4656 7.67111 49.2962 7.06967 48.9626 6.61943V6.61943C48.63 6.17087 48.1304 5.81303 47.478 5.55503C46.8373 5.30183 45.9742 5.09231 44.9135 4.93199C43.9971 4.78583 43.3187 4.59695 42.8973 4.37063C42.4999 4.15727 42.3067 3.85175 42.3067 3.43631C42.3067 3.07295 42.4953 2.78495 42.8834 2.55575V2.55575ZM61.4677 0.36003V1.44003C61.4677 1.97019 61.9035 2.40003 62.4411 2.40003H66.1519V10.5C66.1519 11.1298 66.6695 11.64 67.3077 11.64C67.946 11.64 68.4636 11.1298 68.4636 10.5V2.40003H72.1744C72.7119 2.40003 73.1477 1.97019 73.1477 1.44003V0.36003H61.4677ZM51.0044 0.36003H60.0077V1.44003C60.0077 1.97019 59.5719 2.40003 59.0344 2.40003H53.0727V4.98003H58.0002C58.5716 4.98003 59.0344 5.43675 59.0344 6.00003C59.0344 6.56331 58.5716 7.02003 58.0002 7.02003H53.0727V9.60003H59.0344C59.5719 9.60003 60.0077 10.0299 60.0077 10.56V11.64H51.0044V0.36003Z" fill="black"/>
<path fill-rule="evenodd" clip-rule="evenodd" d="M39.081 6.96004H35.5527C35.0824 6.96004 34.701 6.58396 34.701 6.12004V5.04004H38.2294C38.6997 5.04004 39.081 5.41612 39.081 5.88004V6.96004Z" fill="black"/>
</svg>
