<svg width="73" height="12" viewBox="0 0 73 12" fill="none" xmlns="http://www.w3.org/2000/svg">
<path fill-rule="evenodd" clip-rule="evenodd" d="M15.8217 7.08772C15.7192 6.73156 15.6679 6.3658 15.6681 6.00004C15.6681 5.81596 15.7073 5.28004 15.7073 5.28004C15.7073 4.81612 15.3238 4.44004 14.8505 4.44004H13.6265V6.00004H13.6278C13.627 6.88804 13.8229 7.78948 14.239 8.64004L15.3839 8.07988C15.7564 7.89748 15.9348 7.4806 15.8217 7.08772M18.8076 9.88011C18.0761 9.69795 17.4131 9.32235 16.8855 8.79147C16.595 8.49867 16.1373 8.44203 15.7898 8.66763L14.7235 9.36027C15.7523 10.8319 17.4367 11.8539 19.3875 12L19.4651 10.7477C19.4904 10.3402 19.2113 9.98067 18.8076 9.88011M15.7073 3V0.84C15.7073 0.37608 15.3238 0 14.8505 0H13.6265V3.84H14.8505C15.3238 3.84 15.7073 3.46392 15.7073 3M29.9162 8.79147C29.3919 9.32235 28.7329 9.69795 28.0053 9.88011C27.6043 9.98067 27.3267 10.3402 27.352 10.7477L27.4291 12C29.3685 11.8539 31.0429 10.8319 32.0654 9.36027L31.0054 8.66763C30.6599 8.44203 30.2051 8.49867 29.9162 8.79147M21.9546 2.64024L23.0153 3.33216C23.3606 3.55728 23.8154 3.50016 24.1042 3.2076C24.6276 2.67768 25.2868 2.30256 26.0156 2.12016C26.4169 2.0196 26.6943 1.65936 26.6687 1.2516L26.5906 0C24.787 0.13728 23.0525 1.05672 21.9546 2.64024M26.0144 9.88011C25.2871 9.69795 24.6279 9.32235 24.1037 8.79147C23.8147 8.49867 23.3599 8.44203 23.0146 8.66763L21.9546 9.36027C22.9769 10.8319 24.6512 11.8539 26.5909 12L26.6677 10.7477C26.6931 10.3402 26.4157 9.98067 26.0144 9.88011M28.0044 2.12016C28.7329 2.30256 29.3924 2.67768 29.9158 3.2076C30.2046 3.50016 30.6591 3.55728 31.0044 3.33216L32.0654 2.64024C30.9674 1.05672 29.2327 0.13728 27.4294 0L27.351 1.2516C27.3255 1.65936 27.6029 2.0196 28.0044 2.12016M23.1085 7.08767C22.9048 6.37535 22.9051 5.62463 23.1092 4.91135C23.2216 4.51799 23.0443 4.10111 22.6732 3.91895L21.5351 3.35999C20.7543 4.96919 20.6939 6.91031 21.5354 8.63999L22.6734 8.07983C23.044 7.89743 23.2209 7.48055 23.1085 7.08767M32.4849 3.35999L31.3468 3.91895C30.9757 4.10111 30.7983 4.51799 30.9108 4.91135C31.1149 5.62463 31.1152 6.37535 30.9115 7.08767C30.7991 7.48055 30.976 7.89743 31.3466 8.07983L32.4846 8.63999C33.3261 6.91031 33.2657 4.96919 32.4849 3.35999M1.02795 2.64024L2.08864 3.33216C2.43393 3.55728 2.88872 3.50016 3.17756 3.2076C3.70097 2.67768 4.36016 2.30256 5.0887 2.12016C5.4902 2.0196 5.7676 1.65936 5.74205 1.2516L5.66394 0C3.86035 0.13728 2.12587 1.05672 1.02795 2.64024M5.08773 9.88011C4.3604 9.69795 3.70121 9.32235 3.17707 8.79147C2.88799 8.49867 2.4332 8.44203 2.08791 8.66763L1.02795 9.36027C2.0502 10.8319 3.72482 11.8539 5.66419 12L5.74132 10.7477C5.76639 10.3402 5.48899 9.98067 5.08773 9.88011M6.50272 0L6.42436 1.2516C6.39881 1.65936 6.67621 2.0196 7.07771 2.12016C7.80625 2.30256 8.46569 2.67768 8.9891 3.2076C9.27793 3.50016 9.73248 3.55728 10.0778 3.33216L11.1387 2.64024C10.0408 1.05672 8.3063 0.13728 6.50272 0M2.18184 7.08767C1.97817 6.37535 1.97842 5.62463 2.18257 4.91135C2.29499 4.51799 2.1176 4.10111 1.74676 3.91895L0.608451 3.35999C-0.172406 4.96919 -0.232753 6.91031 0.608694 8.63999L1.74676 8.07983C2.11736 7.89743 2.29426 7.48055 2.18184 7.08767M10.0787 8.66763L11.1387 9.36027C10.1162 10.8319 8.44184 11.8539 6.50247 12L6.42534 10.7477C6.40027 10.3402 6.67767 9.98067 7.07893 9.88011C7.80601 9.69795 8.4652 9.32235 8.98958 8.79147C9.27842 8.49867 9.73345 8.44203 10.0787 8.66763" fill="#42CDDD"/>
<path fill-rule="evenodd" clip-rule="evenodd" d="M42.7356 2.55575C43.1379 2.31863 43.7209 2.19816 44.4682 2.19816C44.9069 2.19816 45.4113 2.29008 45.9678 2.47127C46.4346 2.62367 46.8173 2.79 47.113 2.96808L47.2634 3.06936C47.7026 3.36552 48.3065 3.27359 48.6299 2.86151L49.3967 1.88376L48.4474 1.25472C48.444 1.25232 47.5378 0.681595 46.6923 0.429115C46.0005 0.222715 45.2517 0.119995 44.4682 0.119995C43.5956 0.119995 42.7919 0.254635 42.0791 0.519835C41.3596 0.787915 40.7829 1.18248 40.3651 1.69248C39.9432 2.20727 39.7295 2.82071 39.7295 3.51623C39.7295 5.41031 41.1258 6.54719 43.8791 6.89567C44.9278 7.03151 45.7007 7.23335 46.1764 7.49591C46.6304 7.74671 46.8514 8.08127 46.8514 8.51855C46.8514 8.86919 46.628 9.15911 46.1684 9.40463C45.6919 9.65951 45.1135 9.78887 44.4497 9.78887C43.8275 9.78887 42.7678 9.67151 41.4241 8.80511C41.3788 8.77583 41.2713 8.69975 41.1418 8.60639C40.7111 8.29679 40.1023 8.37191 39.7667 8.77631L38.9333 9.78143C38.9333 9.78143 40.0575 10.5881 40.7593 10.9901C42.6422 12.0689 45.0987 12.0874 46.785 11.4696C47.5293 11.1967 48.1853 10.7688 48.6341 10.249C49.0876 9.72311 49.3178 9.10343 49.3178 8.40671C49.3178 7.67111 49.1485 7.06967 48.8149 6.61943V6.61943C48.4822 6.17087 47.9827 5.81303 47.3303 5.55503C46.6896 5.30183 45.8265 5.09231 44.7658 4.93199C43.8494 4.78583 43.171 4.59695 42.7495 4.37063C42.3522 4.15727 42.1589 3.85175 42.1589 3.43631C42.1589 3.07295 42.3475 2.78495 42.7356 2.55575V2.55575ZM61.32 0.36003V1.44003C61.32 1.97019 61.7558 2.40003 62.2933 2.40003H66.0042V10.5C66.0042 11.1298 66.5217 11.64 67.16 11.64C67.7982 11.64 68.3158 11.1298 68.3158 10.5V2.40003H72.0267C72.5642 2.40003 73 1.97019 73 1.44003V0.36003H61.32ZM50.8566 0.36003H59.86V1.44003C59.86 1.97019 59.4242 2.40003 58.8866 2.40003H52.925V4.98003H57.8525C58.4238 4.98003 58.8866 5.43675 58.8866 6.00003C58.8866 6.56331 58.4238 7.02003 57.8525 7.02003H52.925V9.60003H58.8866C59.4242 9.60003 59.86 10.0299 59.86 10.56V11.64H50.8566V0.36003Z" fill="#69696C"/>
<path fill-rule="evenodd" clip-rule="evenodd" d="M38.9333 6.96004H35.405C34.9346 6.96004 34.5533 6.58396 34.5533 6.12004V5.04004H38.0817C38.552 5.04004 38.9333 5.41612 38.9333 5.88004V6.96004Z" fill="black" fill-opacity="0.3"/>
</svg>
