<svg width="73" height="12" viewBox="0 0 73 12" fill="none" xmlns="http://www.w3.org/2000/svg">
<path fill-rule="evenodd" clip-rule="evenodd" d="M15.8217 7.0877C15.7192 6.73178 15.6681 6.36602 15.6681 6.00002C15.6681 5.81594 15.7073 5.28002 15.7073 5.28002C15.7073 4.8161 15.3238 4.44002 14.8508 4.44002H13.6265V6.00002H13.6278C13.627 6.88802 13.8229 7.7897 14.2393 8.64002L15.3839 8.07986C15.7564 7.89746 15.9348 7.48082 15.8217 7.0877M18.8076 9.88011C18.0764 9.69795 17.4131 9.32259 16.8857 8.79147C16.595 8.49867 16.1373 8.44203 15.79 8.66763L14.7237 9.36027C15.7523 10.8322 17.4367 11.8539 19.3875 12L19.4653 10.7479C19.4904 10.3404 19.2115 9.98067 18.8076 9.88011M15.7073 3V0.84C15.7073 0.37608 15.3238 0 14.8508 0H13.6265V3.84H14.8508C15.3238 3.84 15.7073 3.46392 15.7073 3M29.9162 8.79147C29.3921 9.32259 28.7329 9.69795 28.0056 9.88011C27.6043 9.98067 27.3269 10.3404 27.352 10.7479L27.4291 12C29.3685 11.8539 31.0431 10.8322 32.0654 9.36027L31.0054 8.66763C30.6601 8.44203 30.2053 8.49867 29.9162 8.79147M21.9546 2.64024L23.0156 3.33216C23.3608 3.55752 23.8154 3.5004 24.1042 3.20784C24.6276 2.67768 25.2871 2.30256 26.0156 2.12016C26.4171 2.0196 26.6945 1.65936 26.669 1.25184L26.5906 0C24.7873 0.13752 23.0525 1.05672 21.9546 2.64024M26.0146 9.88011C25.2871 9.69795 24.6281 9.32259 24.1037 8.79147C23.8149 8.49867 23.3599 8.44203 23.0146 8.66763L21.9546 9.36027C22.9771 10.8322 24.6515 11.8539 26.5909 12L26.668 10.7479C26.6933 10.3404 26.4157 9.98067 26.0146 9.88011M28.0044 2.12016C28.7332 2.30256 29.3923 2.67768 29.9158 3.20784C30.2046 3.5004 30.6594 3.55752 31.0047 3.33216L32.0654 2.64024C30.9674 1.05672 29.233 0.13752 27.4294 0L27.3513 1.25184C27.3257 1.65936 27.6031 2.0196 28.0044 2.12016M23.1087 7.08766C22.9051 6.37558 22.9051 5.62462 23.1092 4.91134C23.2217 4.51798 23.0443 4.1011 22.6734 3.91894L21.5351 3.35998C20.7543 4.96918 20.6939 6.9103 21.5354 8.63998L22.6734 8.07982C23.044 7.89742 23.2212 7.48078 23.1087 7.08766M32.4849 3.35998L31.3468 3.91894C30.976 4.1011 30.7986 4.51798 30.911 4.91134C31.1152 5.62462 31.1152 6.37558 30.9115 7.08766C30.7991 7.48078 30.9762 7.89742 31.3466 8.07982L32.4849 8.63998C33.3261 6.9103 33.266 4.96918 32.4849 3.35998M1.02796 2.64024L2.08889 3.33216C2.43418 3.55752 2.88873 3.5004 3.17756 3.20784C3.70097 2.67768 4.36041 2.30256 5.08895 2.12016C5.49045 2.0196 5.76785 1.65936 5.7423 1.25184L5.66394 0C3.8606 0.13752 2.12588 1.05672 1.02796 2.64024M5.08797 9.88011C4.36041 9.69795 3.70146 9.32259 3.17708 8.79147C2.88824 8.49867 2.43321 8.44203 2.08792 8.66763L1.02796 9.36027C2.05044 10.8322 3.72482 11.8539 5.66419 12L5.74132 10.7479C5.76663 10.3404 5.48899 9.98067 5.08797 9.88011M7.07771 2.12016C7.80649 2.30256 8.46568 2.67768 8.98909 3.20784C9.27793 3.5004 9.73272 3.55752 10.078 3.33216L11.1387 2.64024C10.0408 1.05672 8.3063 0.13752 6.50271 0L6.4246 1.25184C6.39905 1.65936 6.67645 2.0196 7.07771 2.12016M2.18209 7.08766C1.97842 6.37558 1.97842 5.62462 2.18257 4.91134C2.29499 4.51798 2.1176 4.1011 1.74676 3.91894L0.608451 3.35998C-0.172406 4.96918 -0.232753 6.9103 0.608694 8.63998L1.74676 8.07982C2.11736 7.89742 2.29451 7.48078 2.18209 7.08766M10.0787 8.66763L11.1387 9.36027C10.1165 10.8322 8.44184 11.8539 6.50247 12L6.42534 10.7479C6.40027 10.3404 6.67767 9.98067 7.07893 9.88011C7.80625 9.69795 8.46544 9.32259 8.98958 8.79147C9.27866 8.49867 9.73345 8.44203 10.0787 8.66763" fill="white"/>
<path fill-rule="evenodd" clip-rule="evenodd" d="M42.7359 2.55576C43.1379 2.3184 43.7209 2.19816 44.4682 2.19816C44.9069 2.19816 45.4116 2.29008 45.9681 2.47128C46.4348 2.62368 46.8174 2.79 47.1133 2.96808L47.2634 3.06936C47.7029 3.36552 48.3068 3.2736 48.63 2.86152L49.3967 1.88376L48.4475 1.25472C48.4443 1.25232 47.5381 0.681595 46.6923 0.429115C46.0005 0.222475 45.252 0.119995 44.4682 0.119995C43.5956 0.119995 42.7919 0.254635 42.0792 0.519835C41.3599 0.787915 40.7832 1.18224 40.3651 1.69248C39.9432 2.20728 39.7295 2.82071 39.7295 3.51624C39.7295 5.41032 41.126 6.54719 43.8793 6.89567C44.9281 7.03127 45.7009 7.23336 46.1764 7.49592C46.6307 7.74672 46.8514 8.08128 46.8514 8.51856C46.8514 8.8692 46.6283 9.15911 46.1686 9.40463C45.6919 9.65951 45.1138 9.78887 44.45 9.78887C43.8278 9.78887 42.768 9.67151 41.4241 8.80511C41.3789 8.77559 41.2713 8.69976 41.1418 8.6064C40.7114 8.2968 40.1026 8.37168 39.767 8.77632L38.9333 9.78144C38.9333 9.78144 40.0578 10.5881 40.7596 10.9901C42.6422 12.0689 45.0987 12.0874 46.785 11.4696C47.5294 11.1967 48.1856 10.7688 48.6341 10.249C49.0879 9.72311 49.3179 9.10344 49.3179 8.40672C49.3179 7.67112 49.1487 7.06968 48.8151 6.61944H48.8149C48.4825 6.17088 47.9829 5.8128 47.3303 5.5548C46.6899 5.30184 45.8267 5.09232 44.7661 4.932C43.8494 4.78584 43.1712 4.59696 42.7498 4.37064C42.3522 4.15728 42.159 3.85176 42.159 3.43632C42.159 3.07296 42.3476 2.78496 42.7359 2.55576V2.55576ZM61.32 0.360018V1.44002C61.32 1.97018 61.7558 2.40002 62.2934 2.40002H66.0042V10.5C66.0042 11.1298 66.5218 11.64 67.16 11.64C67.7985 11.64 68.3159 11.1298 68.3159 10.5V2.40002H72.0267C72.5645 2.40002 73 1.97018 73 1.44002V0.360018H61.32ZM50.8567 0.360018H59.86V1.44002C59.86 1.97018 59.4244 2.40002 58.8867 2.40002H52.925V4.98002H57.8525C58.4239 4.98002 58.8867 5.43674 58.8867 6.00002C58.8867 6.5633 58.4239 7.02002 57.8525 7.02002H52.925V9.60002H58.8867C59.4244 9.60002 59.86 10.0299 59.86 10.56V11.64H50.8567V0.360018Z" fill="#303032"/>
<path fill-rule="evenodd" clip-rule="evenodd" d="M38.9333 6.96004H35.405C34.9346 6.96004 34.5533 6.58396 34.5533 6.12004V5.04004H38.0817C38.5523 5.04004 38.9333 5.41612 38.9333 5.88004V6.96004Z" fill="#4C4256" fill-opacity="0.5"/>
</svg>
