<svg width="74" height="12" viewBox="0 0 74 12" fill="none" xmlns="http://www.w3.org/2000/svg">
<path fill-rule="evenodd" clip-rule="evenodd" d="M15.871 7.08772C15.7685 6.7318 15.7174 6.36604 15.7174 6.00004C15.7174 5.81596 15.7566 5.28004 15.7566 5.28004C15.7566 4.81612 15.3731 4.44004 14.9001 4.44004H13.6759V6.00004H13.6771C13.6763 6.88804 13.8722 7.78972 14.2886 8.64004L15.4332 8.07988C15.8058 7.89748 15.9841 7.48084 15.871 7.08772M18.8569 9.88011C18.1257 9.69795 17.4624 9.32259 16.9351 8.79147C16.6443 8.49867 16.1866 8.44203 15.8393 8.66763L14.773 9.36027C15.8016 10.8322 17.486 11.8539 19.4368 12L19.5146 10.7479C19.5397 10.3404 19.2608 9.98067 18.8569 9.88011M15.7566 3V0.84C15.7566 0.37608 15.3731 0 14.9001 0H13.6759V3.84H14.9001C15.3731 3.84 15.7566 3.46392 15.7566 3M29.9656 8.79147C29.4414 9.32259 28.7822 9.69795 28.0549 9.88011C27.6536 9.98067 27.3762 10.3404 27.4013 10.7479L27.4784 12C29.4178 11.8539 31.0924 10.8322 32.1147 9.36027L31.0547 8.66763C30.7094 8.44203 30.2546 8.49867 29.9656 8.79147M22.0039 2.64024L23.0649 3.33216C23.4102 3.55752 23.8647 3.5004 24.1535 3.20784C24.677 2.67768 25.3364 2.30256 26.0649 2.12016C26.4664 2.0196 26.7438 1.65936 26.7183 1.25184L26.6399 0C24.8366 0.13752 23.1019 1.05672 22.0039 2.64024M26.064 9.88011C25.3364 9.69795 24.6774 9.32259 24.1531 8.79147C23.8642 8.49867 23.4092 8.44203 23.0639 8.66763L22.0039 9.36027C23.0264 10.8322 24.7008 11.8539 26.6402 12L26.7173 10.7479C26.7426 10.3404 26.465 9.98067 26.064 9.88011M28.0537 2.12016C28.7825 2.30256 29.4417 2.67768 29.9651 3.20784C30.2539 3.5004 30.7087 3.55752 31.054 3.33216L32.1147 2.64024C31.0168 1.05672 29.2823 0.13752 27.4787 0L27.4006 1.25184C27.375 1.65936 27.6524 2.0196 28.0537 2.12016M23.1581 7.08767C22.9544 6.37559 22.9544 5.62463 23.1585 4.91135C23.271 4.51799 23.0936 4.10111 22.7227 3.91895L21.5844 3.35999C20.8036 4.96919 20.7432 6.91031 21.5847 8.63999L22.7227 8.07983C23.0933 7.89743 23.2705 7.48079 23.1581 7.08767M32.5342 3.35999L31.3961 3.91895C31.0253 4.10111 30.8479 4.51799 30.9603 4.91135C31.1645 5.62463 31.1645 6.37559 30.9608 7.08767C30.8484 7.48079 31.0255 7.89743 31.3959 8.07983L32.5342 8.63999C33.3754 6.91031 33.3153 4.96919 32.5342 3.35999M1.07727 2.64024L2.1382 3.33216C2.48349 3.55752 2.93804 3.5004 3.22688 3.20784C3.75029 2.67768 4.40972 2.30256 5.13826 2.12016C5.53976 2.0196 5.81716 1.65936 5.79161 1.25184L5.71326 0C3.90991 0.13752 2.17519 1.05672 1.07727 2.64024M5.13729 9.88011C4.40972 9.69795 3.75077 9.32259 3.22639 8.79147C2.93755 8.49867 2.48252 8.44203 2.13723 8.66763L1.07727 9.36027C2.09976 10.8322 3.77413 11.8539 5.7135 12L5.79064 10.7479C5.81595 10.3404 5.5383 9.98067 5.13729 9.88011M7.12703 2.12016C7.85581 2.30256 8.515 2.67768 9.03841 3.20784C9.32725 3.5004 9.78204 3.55752 10.1273 3.33216L11.188 2.64024C10.0901 1.05672 8.35562 0.13752 6.55203 0L6.47392 1.25184C6.44837 1.65936 6.72577 2.0196 7.12703 2.12016M2.2314 7.08767C2.02773 6.37559 2.02773 5.62463 2.23189 4.91135C2.34431 4.51799 2.16692 4.10111 1.79608 3.91895L0.657767 3.35999C-0.12309 4.96919 -0.183436 6.91031 0.65801 8.63999L1.79608 8.07983C2.16668 7.89743 2.34382 7.48079 2.2314 7.08767M10.1281 8.66763L11.188 9.36027C10.1658 10.8322 8.49116 11.8539 6.55179 12L6.47465 10.7479C6.44959 10.3404 6.72699 9.98067 7.12825 9.88011C7.85557 9.69795 8.51476 9.32259 9.0389 8.79147C9.32798 8.49867 9.78277 8.44203 10.1281 8.66763" fill="#A4A6A8"/>
<path fill-rule="evenodd" clip-rule="evenodd" d="M42.785 2.55575C43.1872 2.31863 43.7703 2.19816 44.5175 2.19816C44.9563 2.19816 45.4607 2.29008 46.0172 2.47127C46.4839 2.62367 46.8667 2.79 47.1623 2.96808L47.3127 3.06936C47.7519 3.36552 48.3559 3.27359 48.6793 2.86151L49.446 1.88376L48.4968 1.25472C48.4934 1.25232 47.5872 0.681595 46.7416 0.429115C46.0498 0.222715 45.3011 0.119995 44.5175 0.119995C43.6449 0.119995 42.8412 0.254635 42.1285 0.519835C41.4089 0.787915 40.8322 1.18248 40.4144 1.69248C39.9925 2.20727 39.7789 2.82071 39.7789 3.51623C39.7789 5.41031 41.1751 6.54719 43.9284 6.89567C44.9772 7.03151 45.75 7.23335 46.2257 7.49591C46.6798 7.74671 46.9007 8.08127 46.9007 8.51855C46.9007 8.86919 46.6774 9.15911 46.2177 9.40463C45.7413 9.65951 45.1629 9.78887 44.499 9.78887C43.8768 9.78887 42.8171 9.67151 41.4734 8.80511C41.4282 8.77583 41.3206 8.69975 41.1912 8.60639C40.7605 8.29679 40.1516 8.37191 39.8161 8.77631L38.9827 9.78143C38.9827 9.78143 40.1069 10.5881 40.8086 10.9901C42.6916 12.0689 45.148 12.0874 46.8343 11.4696C47.5787 11.1967 48.2347 10.7688 48.6834 10.249C49.137 9.72311 49.3672 9.10343 49.3672 8.40671C49.3672 7.67111 49.1978 7.06967 48.8642 6.61943V6.61943C48.5316 6.17087 48.032 5.81303 47.3796 5.55503C46.7389 5.30183 45.8758 5.09231 44.8151 4.93199C43.8987 4.78583 43.2203 4.59695 42.7989 4.37063C42.4015 4.15727 42.2083 3.85175 42.2083 3.43631C42.2083 3.07295 42.3969 2.78495 42.785 2.55575V2.55575ZM61.3693 0.36003V1.44003C61.3693 1.97019 61.8051 2.40003 62.3427 2.40003H66.0535V10.5C66.0535 11.1298 66.5711 11.64 67.2093 11.64C67.8476 11.64 68.3652 11.1298 68.3652 10.5V2.40003H72.076C72.6135 2.40003 73.0493 1.97019 73.0493 1.44003V0.36003H61.3693ZM50.906 0.36003H59.9093V1.44003C59.9093 1.97019 59.4735 2.40003 58.936 2.40003H52.9743V4.98003H57.9018C58.4732 4.98003 58.936 5.43675 58.936 6.00003C58.936 6.56331 58.4732 7.02003 57.9018 7.02003H52.9743V9.60003H58.936C59.4735 9.60003 59.9093 10.0299 59.9093 10.56V11.64H50.906V0.36003Z" fill="#A4A6A8"/>
<path fill-rule="evenodd" clip-rule="evenodd" d="M38.9827 6.96004H35.4543C34.984 6.96004 34.6027 6.58396 34.6027 6.12004V5.04004H38.131C38.6014 5.04004 38.9827 5.41612 38.9827 5.88004V6.96004Z" fill="#A4A6A8"/>
</svg>
