<svg width="74" height="12" viewBox="0 0 74 12" fill="none" xmlns="http://www.w3.org/2000/svg">
<path fill-rule="evenodd" clip-rule="evenodd" d="M15.9202 7.08772C15.8177 6.7318 15.7666 6.36604 15.7666 6.00004C15.7666 5.81596 15.8058 5.28004 15.8058 5.28004C15.8058 4.81612 15.4223 4.44004 14.9493 4.44004H13.7251V6.00004H13.7263C13.7255 6.88804 13.9214 7.78972 14.3378 8.64004L15.4824 8.07988C15.855 7.89748 16.0333 7.48084 15.9202 7.08772M18.9061 9.88011C18.1749 9.69795 17.5116 9.32259 16.9843 8.79147C16.6935 8.49867 16.2358 8.44203 15.8885 8.66763L14.8222 9.36027C15.8508 10.8322 17.5352 11.8539 19.486 12L19.5638 10.7479C19.5889 10.3404 19.31 9.98067 18.9061 9.88011M15.8058 3V0.84C15.8058 0.37608 15.4223 0 14.9493 0H13.7251V3.84H14.9493C15.4223 3.84 15.8058 3.46392 15.8058 3M30.0148 8.79147C29.4906 9.32259 28.8314 9.69795 28.1041 9.88011C27.7028 9.98067 27.4254 10.3404 27.4505 10.7479L27.5276 12C29.467 11.8539 31.1416 10.8322 32.1639 9.36027L31.1039 8.66763C30.7586 8.44203 30.3038 8.49867 30.0148 8.79147M22.0531 2.64024L23.1141 3.33216C23.4594 3.55752 23.9139 3.5004 24.2027 3.20784C24.7261 2.67768 25.3856 2.30256 26.1141 2.12016C26.5156 2.0196 26.793 1.65936 26.7675 1.25184L26.6891 0C24.8858 0.13752 23.1511 1.05672 22.0531 2.64024M26.1132 9.88011C25.3856 9.69795 24.7266 9.32259 24.2023 8.79147C23.9134 8.49867 23.4584 8.44203 23.1131 8.66763L22.0531 9.36027C23.0756 10.8322 24.75 11.8539 26.6894 12L26.7665 10.7479C26.7918 10.3404 26.5142 9.98067 26.1132 9.88011M28.1029 2.12016C28.8317 2.30256 29.4909 2.67768 30.0143 3.20784C30.3031 3.5004 30.7579 3.55752 31.1032 3.33216L32.1639 2.64024C31.066 1.05672 29.3315 0.13752 27.5279 0L27.4498 1.25184C27.4242 1.65936 27.7016 2.0196 28.1029 2.12016M23.2073 7.08767C23.0036 6.37559 23.0036 5.62463 23.2077 4.91135C23.3202 4.51799 23.1428 4.10111 22.7719 3.91895L21.6336 3.35999C20.8528 4.96919 20.7924 6.91031 21.6339 8.63999L22.7719 8.07983C23.1425 7.89743 23.3197 7.48079 23.2073 7.08767M32.5834 3.35999L31.4453 3.91895C31.0745 4.10111 30.8971 4.51799 31.0095 4.91135C31.2137 5.62463 31.2137 6.37559 31.01 7.08767C30.8976 7.48079 31.0747 7.89743 31.4451 8.07983L32.5834 8.63999C33.4246 6.91031 33.3645 4.96919 32.5834 3.35999M1.12647 2.64024L2.1874 3.33216C2.53269 3.55752 2.98724 3.5004 3.27607 3.20784C3.79948 2.67768 4.45892 2.30256 5.18746 2.12016C5.58896 2.0196 5.86636 1.65936 5.84081 1.25184L5.76245 0C3.95911 0.13752 2.22439 1.05672 1.12647 2.64024M5.18648 9.88011C4.45892 9.69795 3.79997 9.32259 3.27559 8.79147C2.98675 8.49867 2.53172 8.44203 2.18643 8.66763L1.12647 9.36027C2.14895 10.8322 3.82333 11.8539 5.7627 12L5.83983 10.7479C5.86514 10.3404 5.5875 9.98067 5.18648 9.88011M7.17622 2.12016C7.90501 2.30256 8.5642 2.67768 9.08761 3.20784C9.37644 3.5004 9.83123 3.55752 10.1765 3.33216L11.2372 2.64024C10.1393 1.05672 8.40481 0.13752 6.60122 0L6.52311 1.25184C6.49756 1.65936 6.77496 2.0196 7.17622 2.12016M2.2806 7.08767C2.07693 6.37559 2.07693 5.62463 2.28108 4.91135C2.3935 4.51799 2.21611 4.10111 1.84527 3.91895L0.706961 3.35999C-0.0738952 4.96919 -0.134242 6.91031 0.707205 8.63999L1.84527 8.07983C2.21587 7.89743 2.39302 7.48079 2.2806 7.08767M10.1773 8.66763L11.2372 9.36027C10.215 10.8322 8.54035 11.8539 6.60098 12L6.52385 10.7479C6.49878 10.3404 6.77618 9.98067 7.17744 9.88011C7.90476 9.69795 8.56395 9.32259 9.08809 8.79147C9.37717 8.49867 9.83196 8.44203 10.1773 8.66763" fill="#42CDDD"/>
<path fill-rule="evenodd" clip-rule="evenodd" d="M42.8344 2.55575C43.2364 2.31839 43.8194 2.19816 44.5667 2.19816C45.0055 2.19816 45.5101 2.29008 46.0666 2.47127C46.5333 2.62367 46.9159 2.79 47.2118 2.96808L47.3619 3.06936C47.8014 3.36552 48.4053 3.27359 48.7285 2.86151L49.4952 1.88376L48.546 1.25472C48.5428 1.25232 47.6366 0.681595 46.7908 0.429115C46.099 0.222475 45.3505 0.119995 44.5667 0.119995C43.6941 0.119995 42.8904 0.254635 42.1777 0.519835C41.4584 0.787915 40.8817 1.18224 40.4636 1.69248C40.0417 2.20727 39.828 2.82071 39.828 3.51623C39.828 5.41031 41.2245 6.54719 43.9779 6.89567C45.0266 7.03127 45.7995 7.23335 46.2749 7.49591C46.7292 7.74671 46.9499 8.08127 46.9499 8.51855C46.9499 8.86919 46.7268 9.15911 46.2671 9.40463C45.7905 9.65951 45.2123 9.78887 44.5485 9.78887C43.9263 9.78887 42.8666 9.67151 41.5226 8.80511C41.4774 8.77559 41.3698 8.69975 41.2404 8.60639C40.8099 8.29679 40.2011 8.37167 39.8655 8.77631L39.0319 9.78143C39.0319 9.78143 40.1563 10.5881 40.8581 10.9901C42.7408 12.0689 45.1972 12.0874 46.8835 11.4696C47.6279 11.1967 48.2841 10.7688 48.7326 10.249C49.1864 9.72311 49.4164 9.10343 49.4164 8.40671C49.4164 7.67111 49.2472 7.06967 48.9136 6.61943H48.9134C48.581 6.17087 48.0814 5.81279 47.4288 5.55479C46.7884 5.30183 45.9253 5.09231 44.8646 4.93199C43.9479 4.78583 43.2698 4.59695 42.8483 4.37063C42.4507 4.15727 42.2575 3.85175 42.2575 3.43631C42.2575 3.07295 42.4461 2.78495 42.8344 2.55575V2.55575ZM61.4185 0.36003V1.44003C61.4185 1.97019 61.8543 2.40003 62.3919 2.40003H66.1027V10.5C66.1027 11.1298 66.6203 11.64 67.2585 11.64C67.897 11.64 68.4144 11.1298 68.4144 10.5V2.40003H72.1252C72.663 2.40003 73.0985 1.97019 73.0985 1.44003V0.36003H61.4185ZM50.9552 0.36003H59.9585V1.44003C59.9585 1.97019 59.5229 2.40003 58.9852 2.40003H53.0235V4.98003H57.951C58.5224 4.98003 58.9852 5.43675 58.9852 6.00003C58.9852 6.56331 58.5224 7.02003 57.951 7.02003H53.0235V9.60003H58.9852C59.5229 9.60003 59.9585 10.0299 59.9585 10.56V11.64H50.9552V0.36003Z" fill="white"/>
<path opacity="0.5" fill-rule="evenodd" clip-rule="evenodd" d="M39.0318 6.96004H35.5035C35.0332 6.96004 34.6519 6.58396 34.6519 6.12004V5.04004H38.1802C38.6508 5.04004 39.0318 5.41612 39.0318 5.88004V6.96004Z" fill="white"/>
</svg>
