<svg width="1080" height="1080" viewBox="0 0 1080 1080" fill="none" xmlns="http://www.w3.org/2000/svg">
<path d="M1014.04 265.68C1021.77 280.674 1026 297.523 1026 314.988V765.144C1026 804.486 1004.52 840.703 969.966 859.633L591.966 1066.7C575.783 1075.57 557.891 1080 540 1080V518.469L1014.04 265.68Z" fill="black"/>
<path d="M65.963 265.68C58.2326 280.674 54 297.523 54 314.988V765.144C54 804.486 75.4774 840.703 110.034 859.633L488.034 1066.7C504.217 1075.57 522.109 1080 540 1080V518.469L65.963 265.68Z" fill="black"/>
<path d="M1014.04 265.58L540 518.4L65.9629 265.58C75.6462 246.796 90.8178 230.922 110.034 220.394L488.034 13.2995C504.213 4.43533 522.1 0.0021641 539.987 0H540.013C557.9 0.0021641 575.787 4.43532 591.966 13.2995L969.966 220.394C989.182 230.922 1004.35 246.796 1014.04 265.58Z" fill="black"/>
<path fill-rule="evenodd" clip-rule="evenodd" d="M1015.2 765.105V314.895C1015.2 279.5 995.88 246.906 964.777 229.866L586.777 22.7711C557.643 6.80962 522.357 6.80964 493.223 22.7711L115.223 229.866C84.1202 246.906 64.8 279.5 64.8 314.895V765.105C64.8 800.5 84.1202 833.094 115.223 850.135L493.223 1057.23C522.357 1073.19 557.643 1073.19 586.777 1057.23L964.777 850.134C995.88 833.094 1015.2 800.5 1015.2 765.105ZM110.034 220.394C75.4774 239.327 54 275.548 54 314.895V765.105C54 804.452 75.4774 840.674 110.034 859.606L488.034 1066.7C520.4 1084.43 559.6 1084.43 591.966 1066.7L969.966 859.606C1004.52 840.674 1026 804.452 1026 765.105V314.895C1026 275.548 1004.52 239.327 969.966 220.394L591.966 13.2995C559.6 -4.43317 520.4 -4.43315 488.034 13.2995L110.034 220.394Z" fill="black"/>
<path fill-rule="evenodd" clip-rule="evenodd" d="M597.333 524.865V759.718H597.242C598.385 785.291 587.008 810.691 564.723 826.262C529.776 850.681 481.239 841.678 456.312 806.154L192.453 430.114C167.526 394.59 175.65 345.996 210.597 321.577C245.544 297.158 294.081 306.161 319.008 341.686L469.01 555.462V322.926H469.034C466.957 296.471 478.338 269.845 501.39 253.738C536.337 229.319 584.874 238.322 609.801 273.846L887.547 669.678C912.474 705.202 904.351 753.796 869.404 778.214C834.457 802.633 785.92 793.63 760.993 758.106L597.333 524.865Z" fill="white"/>
</svg>
