<svg width="1080" height="1080" viewBox="0 0 1080 1080" fill="none" xmlns="http://www.w3.org/2000/svg">
<path d="M1014.04 265.68C1021.77 280.674 1026 297.523 1026 314.988V765.144C1026 804.486 1004.52 840.703 969.966 859.633L591.966 1066.7C575.783 1075.57 557.891 1080 540 1080V518.469L1014.04 265.68Z" fill="white"/>
<path d="M65.963 265.68C58.2326 280.674 54 297.523 54 314.988V765.144C54 804.486 75.4774 840.703 110.034 859.633L488.034 1066.7C504.217 1075.57 522.109 1080 540 1080V518.469L65.963 265.68Z" fill="white"/>
<path d="M1014.04 265.58L540 518.4L65.9634 265.58C75.6467 246.796 90.8183 230.922 110.034 220.394L488.034 13.2995C504.214 4.43533 522.1 0.0021641 539.987 0H540.013C557.901 0.0021641 575.787 4.43532 591.966 13.2995L969.966 220.394C989.182 230.922 1004.35 246.796 1014.04 265.58Z" fill="white"/>
<path fill-rule="evenodd" clip-rule="evenodd" d="M1015.2 765.105V314.895C1015.2 279.5 995.88 246.906 964.777 229.866L586.777 22.7711C557.643 6.80962 522.357 6.80964 493.223 22.7711L115.223 229.866C84.1202 246.906 64.8 279.5 64.8 314.895V765.105C64.8 800.5 84.1202 833.094 115.223 850.135L493.223 1057.23C522.357 1073.19 557.643 1073.19 586.777 1057.23L964.777 850.134C995.88 833.094 1015.2 800.5 1015.2 765.105ZM110.034 220.394C75.4774 239.327 54 275.548 54 314.895V765.105C54 804.452 75.4774 840.674 110.034 859.606L488.034 1066.7C520.4 1084.43 559.6 1084.43 591.966 1066.7L969.966 859.606C1004.52 840.674 1026 804.452 1026 765.105V314.895C1026 275.548 1004.52 239.327 969.966 220.394L591.966 13.2995C559.6 -4.43317 520.4 -4.43315 488.034 13.2995L110.034 220.394Z" fill="white"/>
<path d="M737.633 424.644H635.595C618.367 424.644 602.926 418.774 590.769 406.569L488.673 303.814L317.956 475.557L618.137 777.605L737.633 657.414H866.233L663.078 862.053C650.517 874.665 634.039 881 617.503 881C600.967 881 584.489 874.665 571.929 862.053L234.009 522.053C221.852 509.79 215.111 493.574 215.111 476.255C215.111 458.935 221.795 442.662 234.009 430.398L443.041 220.005C455.198 207.742 471.388 201 488.616 201C505.843 201 522.033 207.742 534.19 220.005L664.806 351.414L737.633 424.644Z" fill="url(#paint0_linear_457_1759)"/>
<path d="M737.576 657.355L635.48 657.472C618.31 657.355 602.12 664.097 589.963 676.302L553.722 712.744L618.079 777.489L737.576 657.297V657.355Z" fill="url(#paint1_linear_457_1759)"/>
<path d="M449.609 738.955L316.977 605.512L553.03 368.558L488.616 303.755L234.009 559.946C221.852 572.21 215.111 588.483 215.111 605.803C215.111 623.122 221.795 639.396 234.009 651.659L443.099 861.994C455.256 874.258 471.446 880.999 488.673 880.999C505.9 880.999 522.091 874.258 534.248 861.994L553.088 843.047L449.667 738.955H449.609Z" fill="url(#paint2_linear_457_1759)"/>
<path d="M737.633 424.644L866.175 424.412L663.02 220.005C650.863 207.742 634.673 201 617.446 201C600.218 201 584.028 207.742 571.871 220.005L553.031 238.952L604.482 290.737L737.633 424.644Z" fill="url(#paint3_linear_457_1759)"/>
<defs>
<linearGradient id="paint0_linear_457_1759" x1="337.891" y1="324.156" x2="515.15" y2="499.879" gradientUnits="userSpaceOnUse">
<stop stop-color="#01A6B8"/>
<stop offset="0.408146" stop-color="#067F88"/>
<stop offset="1" stop-color="#01A6B8"/>
</linearGradient>
<linearGradient id="paint1_linear_457_1759" x1="674.659" y1="655.844" x2="587.482" y2="742.266" gradientUnits="userSpaceOnUse">
<stop stop-color="#A1FCFF"/>
<stop offset="1" stop-color="#70E1EA"/>
</linearGradient>
<linearGradient id="paint2_linear_457_1759" x1="641.702" y1="451.146" x2="339.259" y2="750.97" gradientUnits="userSpaceOnUse">
<stop stop-color="#04A8BA"/>
<stop offset="0.82" stop-color="#70E1EA"/>
<stop offset="1" stop-color="#A1FDFF"/>
</linearGradient>
<linearGradient id="paint3_linear_457_1759" x1="740.514" y1="302.361" x2="673.732" y2="362.808" gradientUnits="userSpaceOnUse">
<stop stop-color="#A0FCFF"/>
<stop offset="1" stop-color="#43CAD6"/>
</linearGradient>
</defs>
</svg>
