<svg width="1080" height="1080" viewBox="0 0 1080 1080" fill="none" xmlns="http://www.w3.org/2000/svg">
<path d="M1014.04 265.68C1021.77 280.675 1026 297.524 1026 314.989V765.144C1026 804.486 1004.52 840.703 969.966 859.633L591.966 1066.7C575.783 1075.57 557.891 1080 540 1080V518.469L1014.04 265.68Z" fill="white"/>
<path d="M65.963 265.68C58.2326 280.675 54 297.524 54 314.989V765.144C54 804.486 75.4774 840.703 110.034 859.633L488.034 1066.7C504.217 1075.57 522.109 1080 540 1080V518.469L65.963 265.68Z" fill="white"/>
<path d="M1014.04 265.58L540 518.4L65.9634 265.58C75.6467 246.796 90.8183 230.922 110.034 220.394L488.034 13.2995C504.214 4.43533 522.1 0.0021641 539.987 0H540.013C557.901 0.0021641 575.787 4.43532 591.966 13.2995L969.966 220.394C989.182 230.922 1004.35 246.796 1014.04 265.58Z" fill="white"/>
<path fill-rule="evenodd" clip-rule="evenodd" d="M1015.2 765.105V314.895C1015.2 279.5 995.88 246.906 964.777 229.866L586.777 22.7711C557.643 6.80962 522.357 6.80964 493.223 22.7711L115.223 229.866C84.1202 246.906 64.8 279.5 64.8 314.895V765.105C64.8 800.5 84.1202 833.094 115.223 850.135L493.223 1057.23C522.357 1073.19 557.643 1073.19 586.777 1057.23L964.777 850.134C995.88 833.094 1015.2 800.5 1015.2 765.105ZM110.034 220.394C75.4774 239.327 54 275.548 54 314.895V765.105C54 804.452 75.4774 840.674 110.034 859.606L488.034 1066.7C520.4 1084.43 559.6 1084.43 591.966 1066.7L969.966 859.606C1004.52 840.674 1026 804.452 1026 765.105V314.895C1026 275.548 1004.52 239.327 969.966 220.394L591.966 13.2995C559.6 -4.43317 520.4 -4.43315 488.034 13.2995L110.034 220.394Z" fill="white"/>
<path d="M737.633 423.644H635.595C618.367 423.644 602.926 417.774 590.769 405.569L488.673 302.814L317.956 474.557L618.137 776.605L737.633 656.414H866.233L663.078 861.053C650.517 873.665 634.039 880 617.503 880C600.967 880 584.489 873.665 571.929 861.053L234.009 521.053C221.852 508.79 215.111 492.574 215.111 475.255C215.111 457.935 221.795 441.662 234.009 429.398L443.041 219.005C455.198 206.742 471.388 200 488.616 200C505.843 200 522.033 206.742 534.19 219.005L664.806 350.414L737.633 423.644Z" fill="#505053"/>
<path d="M737.576 656.355L635.48 656.472C618.31 656.355 602.12 663.097 589.963 675.302L553.722 711.744L618.079 776.489L737.576 656.297V656.355Z" fill="#42CDDD"/>
<path d="M449.609 737.955L316.977 604.512L553.03 367.558L488.616 302.755L234.009 558.946C221.852 571.21 215.111 587.483 215.111 604.803C215.111 622.122 221.795 638.396 234.009 650.659L443.099 860.994C455.256 873.258 471.446 879.999 488.673 879.999C505.9 879.999 522.091 873.258 534.248 860.994L553.088 842.047L449.667 737.955H449.609Z" fill="#42CDDD"/>
<path d="M737.633 423.644L866.175 423.412L663.02 219.005C650.863 206.742 634.673 200 617.446 200C600.218 200 584.028 206.742 571.871 219.005L553.031 237.952L604.482 289.737L737.633 423.644Z" fill="#42CDDD"/>
</svg>
