<svg width="880" height="880" viewBox="0 0 880 880" fill="none" xmlns="http://www.w3.org/2000/svg">
<path d="M387.641 348.834L269.229 467.675C265.219 471.696 262.009 476.216 259.569 481.026L284.999 414.275C287.469 412.075 289.899 409.775 292.29 407.375L457.943 241.112L469.933 222.762L427.722 333.543C413.322 332.693 398.632 337.784 387.631 348.824L387.641 348.834ZM476.443 333.983C462.343 319.833 457.973 299.613 463.333 281.693L442.423 336.574C449.433 339.114 456.023 343.194 461.643 348.834C482.083 369.344 482.083 402.604 461.643 423.115L377.131 507.936L351.751 574.557C354.221 569.487 357.541 564.737 361.741 560.527L535.515 386.114L562.375 315.623L550.455 333.973C530.024 354.484 496.884 354.484 476.453 333.973L476.443 333.983Z" fill="white" fill-opacity="0.4"/>
<path d="M231.838 209.862C211.408 230.362 211.408 263.602 231.838 284.103L249.489 301.813L218.298 333.113C200.568 350.914 180.917 351.224 158.217 343.334C108.166 285.593 110.506 197.981 165.257 143.051C222.458 85.6498 315.2 85.6498 372.411 143.051C378.521 149.181 383.972 155.731 388.782 162.591C387.112 163.901 385.492 165.311 383.952 166.861L318.98 232.082C316.59 223.952 312.22 216.292 305.83 209.872C285.4 189.371 252.279 189.371 231.848 209.872L231.838 209.862ZM740.049 514.386C738.649 516.216 737.129 517.986 735.459 519.666L675.008 580.337L690.518 595.897C710.948 616.398 710.948 649.638 690.518 670.138C670.088 690.639 636.967 690.639 616.536 670.138C610.996 664.578 606.976 658.088 604.436 651.168L535.605 720.249C539.905 726.079 544.675 731.669 549.945 736.949C607.146 794.35 699.888 794.35 757.099 736.949C814.301 679.549 814.301 586.477 757.099 529.086C751.709 523.676 745.999 518.776 740.039 514.386H740.049Z" fill="white" fill-opacity="0.7"/>
<path opacity="0.9" d="M557.225 370.834C560.095 363.284 564.515 356.794 569.975 351.574C569.635 351.894 569.285 352.214 568.955 352.554L361.741 560.537C341.31 581.047 341.31 614.308 361.741 634.818C382.181 655.328 415.312 655.328 435.742 634.818L469.753 600.687L557.225 370.844V370.834ZM735.459 445.395C715.018 424.885 681.887 424.885 661.457 445.395L627.896 479.086L540.294 709.269C538.044 715.169 534.854 720.429 530.954 724.949L735.469 519.676C755.899 499.166 755.899 465.905 735.469 445.395H735.459ZM571.675 350.014C571.195 350.434 570.725 350.854 570.265 351.294C570.735 350.854 571.205 350.434 571.675 350.014ZM576.725 346.114C576.965 345.944 577.215 345.784 577.455 345.624C577.205 345.784 576.965 345.954 576.725 346.114ZM574.475 347.724C574.795 347.474 575.125 347.234 575.455 347.004C575.125 347.244 574.805 347.484 574.475 347.724Z" fill="url(#paint0_linear_377_1352)"/>
<path fill-rule="evenodd" clip-rule="evenodd" d="M292.299 407.395C243.308 456.565 177.237 464.275 112.906 438.455C86.0752 427.685 73.0249 397.114 83.7551 370.184C94.4854 343.254 124.946 330.153 151.777 340.924C177.237 351.144 198.908 352.584 218.298 333.123L383.951 166.861C404.382 146.351 437.522 146.351 457.953 166.861C478.383 187.371 478.383 220.622 457.953 241.132L292.299 407.395ZM476.453 333.983C496.884 354.494 530.024 354.494 550.455 333.983C570.895 313.473 570.895 280.213 550.455 259.702C530.024 239.192 496.884 239.192 476.453 259.702C456.013 280.213 456.013 313.473 476.453 333.983ZM461.653 348.834C441.223 328.323 408.082 328.323 387.651 348.834L269.239 467.675C248.799 488.186 248.799 521.446 269.239 541.956C289.669 562.467 322.81 562.467 343.241 541.956L461.653 423.115C482.093 402.604 482.093 369.344 461.653 348.834ZM624.696 340.544C597.756 330.173 567.545 343.734 557.235 370.834L442.723 671.718C432.412 698.819 445.893 729.189 472.833 739.559C499.774 749.93 529.984 736.369 540.295 709.269L654.807 408.384C665.117 381.284 651.637 350.914 624.696 340.544Z" fill="url(#paint1_linear_377_1352)"/>
<defs>
<linearGradient id="paint0_linear_377_1352" x1="548.605" y1="344.354" x2="548.605" y2="724.949" gradientUnits="userSpaceOnUse">
<stop stop-color="white"/>
<stop offset="1" stop-color="white" stop-opacity="0.7"/>
</linearGradient>
<linearGradient id="paint1_linear_377_1352" x1="369.136" y1="151.478" x2="369.136" y2="743.044" gradientUnits="userSpaceOnUse">
<stop stop-color="white"/>
<stop offset="1" stop-color="white" stop-opacity="0.7"/>
</linearGradient>
</defs>
</svg>
