<svg width="880" height="880" viewBox="0 0 880 880" fill="none" xmlns="http://www.w3.org/2000/svg">
<path fill-rule="evenodd" clip-rule="evenodd" d="M185.519 367.907C178.391 362.95 171.604 357.286 165.255 350.915C108.053 293.515 108.053 200.45 165.255 143.05C222.457 85.6499 315.199 85.6499 372.4 143.05C378.749 149.421 384.394 156.232 389.334 163.385L319.408 233.553C317.128 224.875 312.598 216.668 305.818 209.864C285.389 189.364 252.267 189.364 231.837 209.864C211.408 230.364 211.408 263.601 231.837 284.101L250.436 302.765L185.519 367.907ZM757.099 736.95C699.897 794.35 607.155 794.35 549.953 736.95C492.752 679.549 492.752 586.485 549.953 529.085C607.155 471.685 699.897 471.685 757.099 529.085C814.3 586.485 814.3 679.549 757.099 736.95ZM616.536 670.136C636.965 690.636 670.087 690.636 690.516 670.136C710.945 649.636 710.945 616.399 690.516 595.899L657.225 562.492C655.182 560.442 651.87 560.442 649.827 562.492L616.536 595.899C596.107 616.399 596.107 649.636 616.536 670.136Z" fill="#999CFF" fill-opacity="0.7"/>
<path d="M439.792 154.954C466.758 165.321 480.252 195.685 469.931 222.773L355.322 523.573C345.001 550.662 314.773 564.218 287.807 553.851C260.84 543.485 247.347 513.121 257.668 486.032L372.277 185.233C382.598 158.144 412.826 144.588 439.792 154.954Z" fill="#5245E6"/>
<path d="M532.221 247.801C559.188 258.168 572.681 288.531 562.36 315.62L447.751 616.42C437.43 643.509 407.202 657.065 380.236 646.698C353.27 636.331 339.776 605.968 350.097 578.879L464.706 278.079C475.027 250.991 505.255 237.435 532.221 247.801Z" fill="#5245E6"/>
<path d="M654.789 408.467C665.11 381.378 651.617 351.015 624.65 340.648C597.684 330.281 567.456 343.837 557.135 370.926L442.526 671.726C432.205 698.815 445.699 729.178 472.665 739.545C499.632 749.911 529.859 736.355 540.18 709.267L654.789 408.467Z" fill="#5245E6"/>
<path d="M218.296 333.115L383.942 166.855C404.377 146.344 437.508 146.343 457.942 166.853C478.376 187.362 478.375 220.616 457.941 241.126L292.295 407.386C243.304 456.559 177.232 464.269 112.905 438.444C86.0738 427.673 73.0236 397.108 83.7568 370.177C94.4901 343.246 124.942 330.146 151.774 340.918C177.231 351.138 198.908 352.575 218.296 333.115Z" fill="#8083FF"/>
<path d="M550.444 333.975C530.009 354.486 496.876 354.486 476.441 333.975C456.005 313.464 456.005 280.209 476.441 259.697C496.876 239.186 530.009 239.186 550.444 259.697C570.88 280.209 570.88 313.464 550.444 333.975Z" fill="#8083FF"/>
<path d="M461.64 348.83C441.204 328.319 408.072 328.319 387.637 348.83L269.231 467.674C248.795 488.185 248.795 521.44 269.231 541.951C289.666 562.462 322.799 562.462 343.234 541.951L461.64 423.108C482.076 402.596 482.076 369.341 461.64 348.83Z" fill="#8083FF"/>
<path d="M568.945 352.544C589.381 332.033 622.513 332.033 642.949 352.544C663.384 373.055 663.384 406.31 642.949 426.821L435.739 634.798C415.303 655.309 382.171 655.309 361.735 634.798C341.3 614.287 341.3 581.032 361.735 560.521L568.945 352.544Z" fill="#8083FF"/>
<path d="M735.453 445.391C715.017 424.88 681.885 424.88 661.449 445.391L454.24 653.367C433.804 673.878 433.804 707.133 454.24 727.645C474.675 748.156 507.808 748.156 528.243 727.645L735.453 519.668C755.888 499.157 755.888 465.902 735.453 445.391Z" fill="#8083FF"/>
<path fill-rule="evenodd" clip-rule="evenodd" d="M624.68 340.542C651.623 350.911 665.106 381.282 654.793 408.378L540.281 709.258C529.968 736.353 499.766 749.913 472.822 739.544C445.879 729.174 432.396 698.803 442.709 671.707L557.221 370.828C567.534 343.732 597.736 330.172 624.68 340.542Z" fill="#999CFF"/>
</svg>
