<svg width="1080" height="1080" viewBox="0 0 1080 1080" fill="none" xmlns="http://www.w3.org/2000/svg">
<path d="M1014.04 265.68C1021.77 280.675 1026 297.524 1026 314.989V765.144C1026 804.486 1004.52 840.703 969.966 859.633L591.966 1066.7C575.783 1075.57 557.891 1080 540 1080V518.469L1014.04 265.68Z" fill="white"/>
<path d="M65.963 265.68C58.2326 280.675 54 297.524 54 314.989V765.144C54 804.486 75.4774 840.703 110.034 859.633L488.034 1066.7C504.217 1075.57 522.109 1080 540 1080V518.469L65.963 265.68Z" fill="white"/>
<path d="M1014.04 265.58L540 518.4L65.9634 265.58C75.6467 246.796 90.8183 230.922 110.034 220.394L488.034 13.2995C504.214 4.43533 522.1 0.0021641 539.987 0H540.013C557.901 0.0021641 575.787 4.43532 591.966 13.2995L969.966 220.394C989.182 230.922 1004.35 246.796 1014.04 265.58Z" fill="white"/>
<path fill-rule="evenodd" clip-rule="evenodd" d="M1015.2 765.105V314.895C1015.2 279.5 995.88 246.906 964.777 229.866L586.777 22.7711C557.643 6.80962 522.357 6.80964 493.223 22.7711L115.223 229.866C84.1202 246.906 64.8 279.5 64.8 314.895V765.105C64.8 800.5 84.1202 833.094 115.223 850.135L493.223 1057.23C522.357 1073.19 557.643 1073.19 586.777 1057.23L964.777 850.134C995.88 833.094 1015.2 800.5 1015.2 765.105ZM110.034 220.394C75.4774 239.327 54 275.548 54 314.895V765.105C54 804.452 75.4774 840.674 110.034 859.606L488.034 1066.7C520.4 1084.43 559.6 1084.43 591.966 1066.7L969.966 859.606C1004.52 840.674 1026 804.452 1026 765.105V314.895C1026 275.548 1004.52 239.327 969.966 220.394L591.966 13.2995C559.6 -4.43317 520.4 -4.43315 488.034 13.2995L110.034 220.394Z" fill="white"/>
<path fill-rule="evenodd" clip-rule="evenodd" d="M835.996 725.631L832.747 730.159C773.844 813.595 677.26 871.376 565.301 879.569L559.887 880L555.122 804.756C553.607 779.315 571.148 757.108 596.485 750.856C636.764 740.938 673.362 720.457 702.381 691.566C720.571 673.672 749.157 670.006 771.029 684.02L835.996 725.631Z" fill="black"/>
<path fill-rule="evenodd" clip-rule="evenodd" d="M527.19 801.737V804.756L522.426 880L516.796 879.569C405.053 871.376 308.469 813.595 249.349 730.159L246.101 725.631L311.067 684.02C332.94 670.006 361.525 673.672 379.716 691.566C408.951 720.457 445.549 740.938 485.828 750.856C509.866 756.893 527.19 777.59 527.19 801.737Z" fill="black"/>
<path fill-rule="evenodd" clip-rule="evenodd" d="M324.71 599.074C331.64 623.437 320.595 649.309 296.991 660.735L227.476 694.153L225.094 689.41C176.586 591.528 180.05 481.572 225.094 390.59L227.476 385.846L296.991 419.264C320.595 430.475 331.856 456.563 324.71 480.926C313.232 519.518 313.232 560.482 324.71 599.074Z" fill="black"/>
<path fill-rule="evenodd" clip-rule="evenodd" d="M527.19 275.244C528.706 300.685 510.949 322.892 485.828 329.144C445.549 339.062 408.951 359.543 379.716 388.218C361.741 406.328 333.156 409.994 311.284 395.98L246.101 354.369L249.349 349.841C312.8 260.152 412.849 208.193 516.796 200.431L522.426 200L527.19 275.244Z" fill="black"/>
<path fill-rule="evenodd" clip-rule="evenodd" d="M836 354.369L771.033 395.98C749.161 409.994 720.576 406.328 702.385 388.218C673.366 359.543 636.768 339.062 596.272 329.144C571.152 322.892 553.394 300.685 555.127 275.244L559.891 200L565.305 200.431C669.252 208.193 769.517 260.152 832.752 349.841L836 354.369Z" fill="black"/>
</svg>
