<svg width="1080" height="1080" viewBox="0 0 1080 1080" fill="none" xmlns="http://www.w3.org/2000/svg">
<path d="M1014.04 265.68C1021.77 280.675 1026 297.524 1026 314.989V765.144C1026 804.486 1004.52 840.703 969.966 859.633L591.966 1066.7C575.783 1075.57 557.891 1080 540 1080V518.469L1014.04 265.68Z" fill="white"/>
<path d="M65.963 265.68C58.2326 280.675 54 297.524 54 314.989V765.144C54 804.486 75.4774 840.703 110.034 859.633L488.034 1066.7C504.217 1075.57 522.109 1080 540 1080V518.469L65.963 265.68Z" fill="white"/>
<path d="M1014.04 265.58L540 518.4L65.9634 265.58C75.6467 246.796 90.8183 230.922 110.034 220.394L488.034 13.2995C504.214 4.43533 522.1 0.0021641 539.987 0H540.013C557.901 0.0021641 575.787 4.43532 591.966 13.2995L969.966 220.394C989.182 230.922 1004.35 246.796 1014.04 265.58Z" fill="white"/>
<path fill-rule="evenodd" clip-rule="evenodd" d="M1015.2 765.105V314.895C1015.2 279.5 995.88 246.906 964.777 229.866L586.777 22.7711C557.643 6.80962 522.357 6.80964 493.223 22.7711L115.223 229.866C84.1202 246.906 64.8 279.5 64.8 314.895V765.105C64.8 800.5 84.1202 833.094 115.223 850.135L493.223 1057.23C522.357 1073.19 557.643 1073.19 586.777 1057.23L964.777 850.134C995.88 833.094 1015.2 800.5 1015.2 765.105ZM110.034 220.394C75.4774 239.327 54 275.548 54 314.895V765.105C54 804.452 75.4774 840.674 110.034 859.606L488.034 1066.7C520.4 1084.43 559.6 1084.43 591.966 1066.7L969.966 859.606C1004.52 840.674 1026 804.452 1026 765.105V314.895C1026 275.548 1004.52 239.327 969.966 220.394L591.966 13.2995C559.6 -4.43317 520.4 -4.43315 488.034 13.2995L110.034 220.394Z" fill="white"/>
<path d="M307.439 654.122C260.387 591.577 232.5 513.795 232.5 429.5C232.5 415.915 233.224 402.499 234.636 389.289L227.476 385.847L225.094 390.59C180.05 481.573 176.586 591.528 225.094 689.41L227.476 694.154L296.991 660.736C300.81 658.887 304.301 656.66 307.439 654.122Z" fill="url(#paint0_linear_464_1769)"/>
<path d="M326.355 677.286C321.054 678.694 315.897 680.926 311.067 684.021L246.101 725.631L249.349 730.159C308.469 813.596 405.053 871.376 516.796 879.569L522.426 880L527.19 804.756V801.738C527.19 799.449 527.035 797.192 526.733 794.975C447.738 777.814 378.054 735.693 326.355 677.286Z" fill="url(#paint1_linear_464_1769)"/>
<path d="M555.06 799.992C555.007 801.565 555.027 803.154 555.122 804.756L559.887 880L565.301 879.569C677.26 871.376 773.844 813.596 832.747 730.159L835.996 725.631L835.432 725.27C772.166 774.31 692.742 803.5 606.5 803.5C589.048 803.5 571.876 802.305 555.06 799.992Z" fill="url(#paint2_linear_464_1769)"/>
<path fill-rule="evenodd" clip-rule="evenodd" d="M527.19 275.244C528.706 300.685 510.949 322.892 485.828 329.144C445.549 339.061 408.951 359.543 379.716 388.218C361.741 406.328 333.156 409.994 311.284 395.98L246.101 354.369L249.349 349.841C312.8 260.152 412.849 208.193 516.796 200.431L522.426 200L527.19 275.244ZM307.439 654.121C323.699 640.975 330.518 619.495 324.71 599.074C313.232 560.482 313.232 519.518 324.71 480.926C331.856 456.563 320.595 430.475 296.991 419.264L234.636 389.288C233.224 402.499 232.5 415.915 232.5 429.5C232.5 513.795 260.387 591.576 307.439 654.121ZM485.828 750.856C507.588 756.321 523.846 773.799 526.733 794.975C447.738 777.814 378.054 735.693 326.355 677.285C345.057 672.319 365.542 677.623 379.716 691.566C408.951 720.457 445.549 740.938 485.828 750.856ZM555.06 799.991C571.876 802.304 589.048 803.5 606.5 803.5C692.742 803.5 772.166 774.309 835.432 725.269L771.029 684.02C749.157 670.006 720.571 673.672 702.381 691.566C673.362 720.457 636.764 740.938 596.485 750.856C572.743 756.715 555.847 776.582 555.06 799.991ZM771.033 395.98L836 354.369L832.752 349.841C769.517 260.152 669.252 208.193 565.305 200.431L559.891 200L555.127 275.244C553.394 300.685 571.152 322.892 596.272 329.144C636.768 339.061 673.366 359.543 702.385 388.218C720.576 406.328 749.161 409.994 771.033 395.98Z" fill="url(#paint3_linear_464_1769)"/>
<path d="M527.189 275.244C528.704 300.685 510.947 322.892 485.826 329.144C445.547 339.061 408.949 359.543 379.714 388.218C371.943 396.048 362.19 401.177 351.853 403.346C389.259 336.551 451.684 285.662 526.437 263.368L527.189 275.244Z" fill="url(#paint4_linear_464_1769)"/>
<path d="M556.336 256.123L555.125 275.244C553.393 300.685 571.15 322.892 596.271 329.144C636.767 339.061 673.365 359.543 702.383 388.218C720.574 406.328 749.159 409.994 771.031 395.98L835.998 354.369L832.75 349.841C832.381 349.319 832.011 348.797 831.64 348.277C777.226 288.511 698.793 251 611.599 251C592.715 251 574.243 252.759 556.336 256.123Z" fill="url(#paint5_linear_464_1769)"/>
<defs>
<linearGradient id="paint0_linear_464_1769" x1="232.048" y1="476.287" x2="844.923" y2="771.435" gradientUnits="userSpaceOnUse">
<stop offset="0.156535" stop-opacity="0.5"/>
<stop offset="0.84195"/>
<stop offset="1" stop-opacity="0"/>
</linearGradient>
<linearGradient id="paint1_linear_464_1769" x1="232.048" y1="476.287" x2="844.923" y2="771.435" gradientUnits="userSpaceOnUse">
<stop offset="0.156535" stop-opacity="0.5"/>
<stop offset="0.84195"/>
<stop offset="1" stop-opacity="0"/>
</linearGradient>
<linearGradient id="paint2_linear_464_1769" x1="232.048" y1="476.287" x2="844.923" y2="771.435" gradientUnits="userSpaceOnUse">
<stop offset="0.156535" stop-opacity="0.5"/>
<stop offset="0.84195"/>
<stop offset="1" stop-opacity="0"/>
</linearGradient>
<linearGradient id="paint3_linear_464_1769" x1="317.5" y1="616.5" x2="717.553" y2="456.381" gradientUnits="userSpaceOnUse">
<stop offset="0.156535"/>
<stop offset="1" stop-opacity="0.3"/>
</linearGradient>
<linearGradient id="paint4_linear_464_1769" x1="504.5" y1="285" x2="742.5" y2="429.5" gradientUnits="userSpaceOnUse">
<stop/>
<stop offset="1" stop-opacity="0.3"/>
</linearGradient>
<linearGradient id="paint5_linear_464_1769" x1="504.5" y1="285" x2="742.5" y2="429.5" gradientUnits="userSpaceOnUse">
<stop/>
<stop offset="1" stop-opacity="0.3"/>
</linearGradient>
</defs>
</svg>
