<svg width="1000" height="198" viewBox="0 0 1000 198" fill="none" xmlns="http://www.w3.org/2000/svg">
<path d="M28.7373 132.423C34.7572 129.243 37.9472 122.183 35.9572 115.853C32.7673 104.053 32.7673 91.8627 35.9572 80.0727C37.9572 73.8127 34.7572 67.1227 28.7373 63.9727L9.90743 54.9327C-3.30247 82.5127 -3.30247 113.903 9.90743 141.473L28.7373 132.433V132.423Z" fill="url(#paint0_linear_1234_3558)"/>
<path d="M83.5969 161.953C71.587 158.803 60.777 152.913 51.9571 144.223C47.1671 139.523 39.5472 138.683 33.9272 142.273L16.2874 153.663C33.9272 178.843 62.087 195.293 92.9368 197.643L93.9768 176.443C94.7768 169.403 90.3968 163.513 83.5969 161.953Z" fill="url(#paint1_linear_1234_3558)"/>
<path d="M94.8468 0.282654C63.167 2.23265 34.7572 18.0127 16.7274 43.1527L34.3672 54.5427C39.9972 58.0927 47.5771 57.2927 52.3971 52.5927C60.817 43.9427 72.027 37.6527 84.0369 34.8627C90.8568 33.3127 95.2468 27.3727 94.8468 20.7227V0.282654Z" fill="url(#paint2_linear_1234_3558)"/>
<path d="M556.603 183.713C565.933 195.183 577.783 197.693 587.003 197.693C587.003 197.693 792.852 197.653 793.972 197.653C827.241 198.013 857.371 180.763 875.801 153.633L858.561 142.243C852.941 138.253 845.721 139.093 840.931 143.793C828.121 156.783 810.931 163.873 792.492 163.873C755.262 163.873 725.622 135.393 725.622 98.8127C725.622 62.2327 755.672 33.1127 792.492 33.1127H892.201V180.203C892.201 189.433 899.041 197.663 908.481 197.663C916.991 197.663 925.031 191.263 925.031 180.203V33.0727H985.99C993.58 33.0727 1000 26.8127 1000 19.3227V0.482654H791.252C767.232 0.882654 744.412 9.96266 726.382 25.6527C685.532 61.5127 682.002 122.103 717.672 162.633L717.632 162.593H605.763V114.773L653.483 114.903C662.702 114.903 671.042 106.933 671.042 97.3727C671.042 89.4026 664.652 79.8427 653.483 79.8427H605.763V32.8727H685.842C692.662 32.8727 699.492 30.4827 704.672 25.7827L725.102 7.29265C725.902 6.89265 726.302 5.74265 726.302 4.54265C726.302 2.19265 724.702 0.642654 722.312 0.642654H586.563C578.983 0.642654 572.563 6.90265 572.563 14.3927V137.503L480.754 15.0627C475.564 7.61265 467.104 0.282654 458.254 0.282654C449.404 0.282654 441.654 3.39265 437.344 12.5927C436.644 14.1127 435.884 17.9427 435.984 22.3227L436.064 127.413L351.395 12.8327C346.175 5.34265 337.475 0.322654 328.295 0.322654C318.295 0.322654 307.495 9.14265 307.465 19.3627V23.8127C289.865 8.59265 266.935 0.322654 243.346 0.322654C229.716 0.322654 216.046 3.14265 203.426 8.78265C202.716 9.10265 201.996 9.42265 201.296 9.76265C151.266 33.3527 131.877 91.0826 154.056 141.123C154.146 141.313 154.236 141.493 154.316 141.693L154.056 141.923C154.056 141.923 144.436 155.273 118.027 162.763C111.207 164.313 106.817 170.213 107.217 176.903L108.497 197.703C132.916 195.713 157.856 184.393 173.776 169.853C173.776 169.853 174.326 169.393 174.606 169.133C192.856 186.643 217.756 197.653 243.346 197.653C298.245 197.293 341.615 151.353 341.215 97.4527V97.4127L341.175 95.8627L340.895 59.2827L431.904 186.343C437.964 194.133 444.664 198.563 455.044 197.583C465.424 196.603 470.324 189.063 470.284 182.683L470.344 180.673V74.3627L556.603 183.713ZM307.485 97.4827C307.885 133.273 278.195 163.873 241.376 164.263C205.746 164.263 176.096 134.823 175.706 99.4427C175.486 77.2827 186.446 57.5727 203.446 45.6527V45.6827C213.936 38.3327 226.716 33.9427 240.616 33.7827C276.545 33.3927 306.295 60.7727 307.475 95.8927V95.8627H307.495C307.515 96.3427 307.495 97.0026 307.495 97.4827H307.485Z" fill="url(#paint3_linear_1234_3558)"/>
<defs>
<linearGradient id="paint0_linear_1234_3558" x1="1.19687e-05" y1="225.922" x2="127.107" y2="-239.978" gradientUnits="userSpaceOnUse">
<stop stop-color="#20DF71"/>
<stop offset="0.5" stop-color="#42CDDD"/>
<stop offset="1" stop-color="#0962DD"/>
</linearGradient>
<linearGradient id="paint1_linear_1234_3558" x1="1.19687e-05" y1="225.922" x2="127.107" y2="-239.978" gradientUnits="userSpaceOnUse">
<stop stop-color="#20DF71"/>
<stop offset="0.5" stop-color="#42CDDD"/>
<stop offset="1" stop-color="#0962DD"/>
</linearGradient>
<linearGradient id="paint2_linear_1234_3558" x1="1.19687e-05" y1="225.922" x2="127.107" y2="-239.978" gradientUnits="userSpaceOnUse">
<stop stop-color="#20DF71"/>
<stop offset="0.5" stop-color="#42CDDD"/>
<stop offset="1" stop-color="#0962DD"/>
</linearGradient>
<linearGradient id="paint3_linear_1234_3558" x1="1.19687e-05" y1="225.922" x2="127.107" y2="-239.978" gradientUnits="userSpaceOnUse">
<stop stop-color="#20DF71"/>
<stop offset="0.5" stop-color="#42CDDD"/>
<stop offset="1" stop-color="#0962DD"/>
</linearGradient>
</defs>
</svg>
