<svg width="1000" height="198" viewBox="0 0 1000 198" fill="none" xmlns="http://www.w3.org/2000/svg">
<path d="M28.7375 132.417L9.9075 141.457C-3.3025 113.887 -3.3025 82.4973 9.9075 54.9173L28.7375 63.9573C34.7575 67.1073 37.9575 73.7973 35.9575 80.0573C32.7675 91.8473 32.7675 104.037 35.9575 115.837C37.9475 122.167 34.7575 129.227 28.7375 132.407V132.417ZM83.5975 161.947C71.5875 158.797 60.7775 152.907 51.9575 144.217C47.1675 139.517 39.5475 138.677 33.9275 142.267L16.2875 153.657C33.9275 178.837 62.0875 195.287 92.9375 197.637L93.9775 176.437C94.7775 169.387 90.3875 163.487 83.5675 161.937H83.5975V161.947ZM16.7275 43.1373L34.3675 54.5273C39.9975 58.0773 47.5775 57.2773 52.3975 52.5773C60.8175 43.9273 72.0275 37.6373 84.0375 34.8473C90.8575 33.2973 95.2475 27.3573 94.8475 20.7073V0.267342C63.1675 2.21734 34.7575 17.9973 16.7275 43.1373Z" fill="url(#paint0_linear_1234_3500)"/>
<path d="M465.634 168.037L443.014 136.797L351.395 12.8173C346.175 5.32732 337.475 0.30732 328.295 0.30732C318.295 0.30732 307.495 9.12732 307.465 19.3473V95.8473H341.175L340.895 59.2673L431.904 186.327C437.964 194.117 444.674 198.677 455.044 197.567C465.414 196.487 469.444 190.077 470.284 182.667C471.044 175.857 465.614 168.047 465.614 168.047H465.634V168.037Z" fill="#39DECF"/>
<path d="M435.984 21.2974L436.064 127.417L443.014 136.827L465.634 168.067C465.634 168.067 470.034 174.417 470.344 180.657V74.3474C453.754 53.2674 441.044 37.0674 439.744 35.2774C436.814 31.2574 435.954 25.8874 435.994 21.3074H435.984V21.2974Z" fill="url(#paint1_linear_1234_3500)"/>
<path d="M154.057 141.907C154.057 141.907 144.437 155.257 118.027 162.747C111.207 164.297 106.817 170.197 107.217 176.887L108.497 197.687C132.917 195.697 157.857 184.377 173.777 169.837C173.777 169.837 174.337 169.367 174.607 169.117C174.027 168.567 173.467 168.007 172.897 167.447C167.437 161.177 159.667 153.387 154.327 141.667L154.057 141.907V141.907Z" fill="url(#paint2_linear_1234_3500)"/>
<path d="M1000 0.427315V19.3073C1000 26.7973 993.58 33.0573 985.99 33.0573H925.031V180.187C925.031 191.247 916.991 197.647 908.481 197.647C899.041 197.647 892.201 189.417 892.201 180.187V33.0973H792.492C755.672 33.0973 725.622 62.2173 725.622 98.7973C725.622 135.377 755.262 163.857 792.492 163.857C810.931 163.857 828.121 156.767 840.931 143.777C845.721 139.077 852.941 138.237 858.561 142.227L875.801 153.617C857.371 180.747 827.241 197.997 793.972 197.637C753.872 197.637 726.902 174.887 718.762 163.847C681.932 123.327 685.122 61.8573 726.382 25.6373C744.412 9.94732 767.232 0.867315 791.252 0.467315H1000V0.427315Z" fill="url(#paint3_linear_1234_3500)"/>
<path d="M718.762 163.847C718.382 163.427 718.012 162.997 717.632 162.577H605.763V114.757L653.483 114.887C662.702 114.887 671.042 106.917 671.042 97.3573C671.042 89.3873 664.652 79.8273 653.483 79.8273H605.763V32.8573H685.842C692.662 32.8573 699.492 30.4673 704.672 25.7673L725.102 7.27734C725.902 6.87734 726.302 5.72734 726.302 4.52734C726.302 2.17734 724.702 0.627342 722.312 0.627342H586.563C578.983 0.627342 572.563 6.88734 572.563 14.3773V137.487L480.754 15.0473C475.564 7.59734 467.104 0.267342 458.254 0.267342C449.404 0.267342 441.654 3.37734 437.344 12.5773C435.944 15.6073 434.314 27.7573 439.734 35.2073C443.764 40.7473 556.603 183.697 556.603 183.697C565.933 195.167 577.783 197.677 587.003 197.677H790.731L790.642 197.577C752.382 196.367 726.672 174.577 718.762 163.847V163.847Z" fill="url(#paint4_linear_1234_3500)"/>
<path d="M718.762 163.847C718.392 163.437 718.032 163.027 717.672 162.617H680.482V197.637H790.702L790.652 197.577C752.392 196.367 726.682 174.577 718.772 163.847H718.762V163.847Z" fill="url(#paint5_linear_1234_3500)"/>
<path d="M341.185 95.8473H307.665L307.475 23.8073C289.875 8.57732 266.945 0.30732 243.345 0.30732C229.716 0.30732 216.046 3.12732 203.426 8.76732C202.716 9.08732 201.996 9.40732 201.296 9.74732C151.266 33.3373 131.876 91.0673 154.056 141.107C159.406 153.137 167.346 161.067 172.886 167.437C191.276 185.927 216.936 197.637 243.345 197.637C298.245 197.277 341.615 151.337 341.215 97.4373V97.3973L341.175 95.8473H341.185V95.8473ZM307.475 97.4773C307.875 133.257 278.185 163.857 241.365 164.247C205.736 164.247 176.086 134.807 175.696 99.4273C175.476 77.2673 186.436 57.5473 203.446 45.6273C213.936 38.2773 226.716 33.8873 240.615 33.7273C276.545 33.3373 306.305 60.7173 307.485 95.8373C307.505 96.3173 307.485 96.9873 307.485 97.4673L307.475 97.4773Z" fill="url(#paint6_linear_1234_3500)"/>
<path d="M240.596 33.7674C276.526 33.3774 306.286 60.7574 307.466 95.8774V23.8474C289.876 8.61736 266.946 0.347359 243.356 0.347359C229.726 0.347359 216.056 3.16736 203.436 8.80736V45.6674C213.926 38.3174 226.706 33.9274 240.606 33.7674H240.596Z" fill="url(#paint7_linear_1234_3500)"/>
<defs>
<linearGradient id="paint0_linear_1234_3500" x1="15.3175" y1="152.177" x2="660.448" y2="-398.993" gradientUnits="userSpaceOnUse">
<stop stop-color="#30EBA7"/>
<stop offset="0.5" stop-color="#32E1F5"/>
<stop offset="1" stop-color="#1478DE"/>
</linearGradient>
<linearGradient id="paint1_linear_1234_3500" x1="453.164" y1="21.8374" x2="453.164" y2="188.267" gradientUnits="userSpaceOnUse">
<stop stop-color="#0F757B"/>
<stop offset="1" stop-color="#46C6CC"/>
</linearGradient>
<linearGradient id="paint2_linear_1234_3500" x1="105.887" y1="190.757" x2="179.967" y2="146.777" gradientUnits="userSpaceOnUse">
<stop stop-color="#31EAB0"/>
<stop offset="0.32" stop-color="#35E7B0"/>
<stop offset="0.44" stop-color="#39E6B0"/>
<stop offset="0.55" stop-color="#2FCFA2"/>
<stop offset="0.79" stop-color="#15977F"/>
<stop offset="0.89" stop-color="#097B6E"/>
</linearGradient>
<linearGradient id="paint3_linear_1234_3500" x1="706.222" y1="99.0373" x2="1000.12" y2="99.0373" gradientUnits="userSpaceOnUse">
<stop offset="0.12" stop-color="#2AC3F5"/>
<stop offset="1" stop-color="#0A7DED"/>
</linearGradient>
<linearGradient id="paint4_linear_1234_3500" x1="451.184" y1="98.9773" x2="739.742" y2="98.9773" gradientUnits="userSpaceOnUse">
<stop stop-color="#33D2D9"/>
<stop offset="1" stop-color="#1CC4FF"/>
</linearGradient>
<linearGradient id="paint5_linear_1234_3500" x1="809.452" y1="180.127" x2="666.282" y2="180.127" gradientUnits="userSpaceOnUse">
<stop offset="0.29" stop-color="#127CA2"/>
<stop offset="0.78" stop-color="#22C8F6"/>
</linearGradient>
<linearGradient id="paint6_linear_1234_3500" x1="436.154" y1="98.9673" x2="98.0666" y2="98.9673" gradientUnits="userSpaceOnUse">
<stop offset="0.33" stop-color="#39DECF"/>
<stop offset="0.84" stop-color="#2EE4B7"/>
</linearGradient>
<linearGradient id="paint7_linear_1234_3500" x1="357.786" y1="48.1174" x2="178.576" y2="48.1174" gradientUnits="userSpaceOnUse">
<stop offset="0.2" stop-color="#0D7D76"/>
<stop offset="0.5" stop-color="#34DDC3"/>
<stop offset="0.88" stop-color="#30E3BC"/>
</linearGradient>
</defs>
</svg>
