<svg width="1000" height="198" viewBox="0 0 1000 198" fill="none" xmlns="http://www.w3.org/2000/svg">
<path d="M28.7375 132.417L9.9075 141.457C-3.3025 113.887 -3.3025 82.4973 9.9075 54.9173L28.7375 63.9573C34.7575 67.1073 37.9575 73.7973 35.9575 80.0573C32.7675 91.8473 32.7675 104.037 35.9575 115.837C37.9475 122.167 34.7575 129.227 28.7375 132.407V132.417ZM83.5975 161.947C71.5875 158.797 60.7775 152.907 51.9575 144.217C47.1675 139.517 39.5475 138.677 33.9275 142.267L16.2875 153.657C33.9275 178.837 62.0875 195.287 92.9375 197.637L93.9775 176.437C94.7775 169.387 90.3875 163.487 83.5675 161.937H83.5975V161.947ZM16.7275 43.1373L34.3675 54.5273C39.9975 58.0773 47.5775 57.2773 52.3975 52.5773C60.8175 43.9273 72.0275 37.6373 84.0375 34.8473C90.8575 33.2973 95.2475 27.3573 94.8475 20.7073V0.267334C63.1675 2.21733 34.7575 17.9973 16.7275 43.1373Z" fill="white"/>
<path d="M465.634 168.037L443.014 136.797L351.395 12.8174C346.175 5.32737 337.475 0.307373 328.295 0.307373C318.295 0.307373 307.495 9.12737 307.465 19.3474V95.8474H341.175L340.895 59.2674L431.904 186.327C437.964 194.117 444.674 198.677 455.044 197.567C465.414 196.487 469.444 190.077 470.284 182.667C471.044 175.857 465.614 168.047 465.614 168.047H465.634V168.037Z" fill="white"/>
<path d="M435.984 21.2974L436.064 127.417L443.014 136.827L465.634 168.067C465.634 168.067 470.034 174.417 470.344 180.657V74.3474C453.754 53.2674 441.044 37.0674 439.744 35.2774C436.814 31.2574 435.954 25.8874 435.994 21.3074H435.984V21.2974Z" fill="url(#paint0_linear_1234_3557)"/>
<path d="M154.057 141.907C154.057 141.907 144.437 155.257 118.027 162.747C111.207 164.297 106.817 170.197 107.217 176.887L108.497 197.687C132.917 195.697 157.857 184.377 173.777 169.837C173.777 169.837 174.337 169.367 174.607 169.117C174.027 168.567 173.467 168.007 172.897 167.447C167.437 161.177 159.667 153.387 154.327 141.667L154.057 141.907V141.907Z" fill="url(#paint1_linear_1234_3557)"/>
<path d="M1000 0.427368V19.3074C1000 26.7974 993.58 33.0574 985.99 33.0574H925.031V180.187C925.031 191.247 916.991 197.647 908.481 197.647C899.041 197.647 892.201 189.417 892.201 180.187V33.0974H792.492C755.672 33.0974 725.622 62.2174 725.622 98.7974C725.622 135.377 755.262 163.857 792.492 163.857C810.931 163.857 828.121 156.767 840.931 143.777C845.721 139.077 852.941 138.237 858.561 142.227L875.801 153.617C857.371 180.747 827.241 197.997 793.972 197.637C753.872 197.637 726.902 174.887 718.762 163.847C681.932 123.327 685.122 61.8574 726.382 25.6374C744.412 9.94737 767.232 0.867368 791.252 0.467368H1000V0.427368Z" fill="white"/>
<path d="M605.773 162.577V114.757L653.492 114.887C662.712 114.887 671.052 106.917 671.052 97.3573C671.052 89.3873 664.662 79.8273 653.492 79.8273H605.773V32.8573H685.852C692.672 32.8573 699.502 30.4673 704.682 25.7673L725.112 7.27733C725.912 6.87733 726.312 5.72733 726.312 4.52733C726.312 2.17733 724.712 0.627334 722.322 0.627334H586.573C578.993 0.627334 572.573 6.88733 572.573 14.3773V137.487L480.764 15.0473C475.574 7.59733 467.114 0.267334 458.264 0.267334C449.414 0.267334 441.664 3.37733 437.354 12.5773C435.954 15.6073 434.324 27.7573 439.744 35.2073C443.774 40.7473 556.613 183.697 556.613 183.697C565.943 195.167 577.793 197.677 587.013 197.677H680.442V162.577H605.773V162.577Z" fill="white"/>
<path d="M721.432 167.107C720.372 165.927 719.472 164.817 718.732 163.807H718.722C718.352 163.397 717.992 162.987 717.632 162.577H680.442V197.677H790.612V197.577C755.932 196.467 731.572 178.447 721.442 167.107H721.432Z" fill="url(#paint2_linear_1234_3557)"/>
<path d="M240.596 33.7274C276.526 33.3374 306.286 60.7174 307.466 95.8374V23.8074C289.876 8.57737 266.946 0.307373 243.356 0.307373C229.726 0.307373 216.056 3.12737 203.436 8.76737V45.6274C213.926 38.2774 226.706 33.8874 240.606 33.7274H240.596Z" fill="url(#paint3_linear_1234_3557)"/>
<path d="M307.485 95.8473C307.505 96.3273 307.485 96.9873 307.485 97.4673C307.885 133.257 278.195 163.857 241.376 164.247C205.746 164.247 176.096 134.807 175.706 99.4273C175.486 77.2673 186.446 57.5573 203.446 45.6373V8.76733C202.736 9.08733 202.006 9.40733 201.306 9.74733C151.276 33.3373 131.887 91.0673 154.066 141.107C159.416 153.137 167.356 161.067 172.896 167.437C191.286 185.927 216.946 197.637 243.356 197.637C298.255 197.277 341.625 151.337 341.225 97.4373L341.185 95.8473H307.495H307.485Z" fill="white"/>
<defs>
<linearGradient id="paint0_linear_1234_3557" x1="453.164" y1="21.8374" x2="453.164" y2="188.267" gradientUnits="userSpaceOnUse">
<stop stop-color="white" stop-opacity="0.2"/>
<stop offset="1" stop-color="white" stop-opacity="0.8"/>
</linearGradient>
<linearGradient id="paint1_linear_1234_3557" x1="105.887" y1="190.757" x2="179.967" y2="146.777" gradientUnits="userSpaceOnUse">
<stop stop-color="white"/>
<stop offset="0.32" stop-color="white"/>
<stop offset="0.43" stop-color="white"/>
<stop offset="0.89" stop-color="white" stop-opacity="0"/>
</linearGradient>
<linearGradient id="paint2_linear_1234_3557" x1="680.442" y1="180.127" x2="790.612" y2="180.127" gradientUnits="userSpaceOnUse">
<stop stop-color="white"/>
<stop offset="0.84" stop-color="white" stop-opacity="0"/>
</linearGradient>
<linearGradient id="paint3_linear_1234_3557" x1="357.786" y1="48.0774" x2="178.576" y2="48.0774" gradientUnits="userSpaceOnUse">
<stop offset="0.2" stop-color="white" stop-opacity="0"/>
<stop offset="0.5" stop-color="white"/>
<stop offset="0.88" stop-color="white"/>
</linearGradient>
</defs>
</svg>
