<svg width="50" height="56" viewBox="0 0 50 56" fill="none" xmlns="http://www.w3.org/2000/svg">
<path d="M41.9122 27.0764L25.6973 36.5724C25.2664 36.8243 24.7316 36.8243 24.2988 36.5724L8.08391 27.0764C7.58442 26.7834 7.27689 26.2483 7.27689 25.6701V18.5179C7.27689 18.1683 7.6569 17.9515 7.95855 18.1292C7.44339 17.8304 6.05461 16.8812 4.37985 16.8812C1.96075 16.8812 0 18.8362 0 21.2483V38.3614C0 40.7384 1.27517 42.9356 3.34561 44.125L21.6544 54.6386C22.6886 55.2324 23.8443 55.5292 25 55.5292C26.1557 55.5292 27.3114 55.2324 28.3456 54.6386L46.6544 44.125C48.7248 42.9356 50 40.7384 50 38.3614V17.3343C50 23.4084 45.4537 24.9514 41.9161 27.0764H41.9122ZM16.777 41.7579C16.777 42.1075 16.397 42.3243 16.0954 42.1465L8.08391 37.4552C7.58442 37.1622 7.27689 36.6271 7.27689 36.0489V30.4845C7.27689 30.1349 7.6569 29.9201 7.95855 30.0959L15.97 34.7872C16.4695 35.0802 16.777 35.6154 16.777 36.1935V41.7579ZM42.7192 36.0489C42.7192 36.6271 42.4117 37.1622 41.9122 37.4552L33.9007 42.1465C33.5991 42.3223 33.2191 42.1055 33.2191 41.7579V36.1935C33.2191 35.6154 33.5266 35.0802 34.0261 34.7872L42.0375 30.0959C42.3392 29.9201 42.7192 30.1369 42.7192 30.4845V36.0489Z" fill="url(#paint0_linear_514_2558)"/>
<path d="M7.95855 18.1311L24.2811 27.6896C24.7238 27.9494 25.2742 27.9494 25.7169 27.6896L42.0395 18.1311C42.3411 17.9554 42.7211 18.1722 42.7211 18.5198V25.6721C42.7211 26.2502 42.4136 26.7854 41.9141 27.0783C45.4517 24.9533 49.998 23.4104 49.998 17.3362C49.998 14.9593 48.7229 12.7621 46.6524 11.5726L28.3436 1.05709C27.3094 0.463346 26.1537 0.166473 24.998 0.166473C23.8424 0.166473 22.6867 0.463346 21.6524 1.05709L3.34561 11.5707C1.27517 12.7601 0 14.9573 0 17.3343V21.2483C0 18.8362 1.96075 16.8831 4.37789 16.8831C6.05265 16.8831 7.44339 17.8323 7.95659 18.1311L24.2792 27.6896" fill="url(#paint1_linear_514_2558)"/>
<path d="M7.95855 18.1311L24.2811 27.6896C24.7238 27.9494 25.2742 27.9494 25.7169 27.6896L42.0395 18.1311C42.3411 17.9554 42.7211 18.1722 42.7211 18.5198V25.6721C42.7211 26.2502 42.4136 26.7854 41.9141 27.0783C45.4517 24.9533 49.998 23.4104 49.998 17.3362C49.998 14.9593 48.7229 12.7621 46.6524 11.5726L28.3436 1.05709C27.3094 0.463346 26.1537 0.166473 24.998 0.166473C23.8424 0.166473 22.6867 0.463346 21.6524 1.05709L3.34561 11.5707C1.27517 12.7601 0 14.9573 0 17.3343V21.2483C0 18.8362 1.96075 16.8831 4.37789 16.8831C6.05265 16.8831 7.44339 17.8323 7.95659 18.1311L24.2792 27.6896" fill="url(#paint2_linear_514_2558)"/>
<path d="M7.95855 18.1311L24.2811 27.6896C24.7238 27.9494 25.2742 27.9494 25.7169 27.6896L42.0395 18.1311C42.3411 17.9554 42.7211 18.1722 42.7211 18.5198V25.6721C42.7211 26.2502 42.4136 26.7854 41.9141 27.0783C45.4517 24.9533 49.998 23.4104 49.998 17.3362C49.998 14.9593 48.7229 12.7621 46.6524 11.5726L28.3436 1.05709C27.3094 0.463346 26.1537 0.166473 24.998 0.166473C23.8424 0.166473 22.6867 0.463346 21.6524 1.05709L3.34561 11.5707C1.27517 12.7601 0 14.9573 0 17.3343V21.2483C0 18.8362 1.96075 16.8831 4.37789 16.8831C6.05265 16.8831 7.44339 17.8323 7.95659 18.1311L24.2792 27.6896" fill="url(#paint3_linear_514_2558)"/>
<defs>
<linearGradient id="paint0_linear_514_2558" x1="0" y1="36.2052" x2="49.9961" y2="36.2052" gradientUnits="userSpaceOnUse">
<stop stop-color="#EA4C08"/>
<stop offset="0.5" stop-color="#EFA218"/>
<stop offset="1" stop-color="#F0B118"/>
</linearGradient>
<linearGradient id="paint1_linear_514_2558" x1="13.0279" y1="9.44959" x2="44.1822" y2="30.5959" gradientUnits="userSpaceOnUse">
<stop stop-color="#EFA218"/>
<stop offset="0.98" stop-color="#EB7618"/>
<stop offset="0.99" stop-color="#EE9518"/>
<stop offset="1" stop-color="#F0B018"/>
</linearGradient>
<linearGradient id="paint2_linear_514_2558" x1="20.4713" y1="25.9631" x2="24.8023" y2="18.0112" gradientUnits="userSpaceOnUse">
<stop stop-color="white" stop-opacity="0.3"/>
<stop offset="0.28" stop-color="white" stop-opacity="0"/>
</linearGradient>
<linearGradient id="paint3_linear_514_2558" x1="5.9077" y1="14.0257" x2="49.4633" y2="14.0257" gradientUnits="userSpaceOnUse">
<stop stop-color="#F0B118" stop-opacity="0"/>
<stop offset="0.19" stop-color="#EC7818" stop-opacity="0.42"/>
<stop offset="0.21" stop-color="#EB7418" stop-opacity="0.45"/>
<stop offset="0.38" stop-color="#E65A18" stop-opacity="0.65"/>
<stop offset="1" stop-color="#DD2B19"/>
</linearGradient>
</defs>
</svg>
