<svg width="51" height="56" viewBox="0 0 51 56" fill="none" xmlns="http://www.w3.org/2000/svg">
<path d="M46.6561 11.4393L28.3459 0.893358C27.3116 0.297786 26.1558 0 25 0C23.8442 0 22.6884 0.297786 21.6541 0.893358L3.34587 11.4393C1.27527 12.6324 0 14.8364 0 17.2207V38.3125C0 40.6968 1.27527 42.9008 3.34587 44.0939L21.6561 54.6398C22.6904 55.2354 23.8462 55.5332 25.002 55.5332C26.1577 55.5332 27.3135 55.2354 28.3478 54.6398L46.658 44.0939C48.7286 42.9008 50.0039 40.6968 50.0039 38.3125V17.2207C50.0039 14.8364 48.7286 12.6324 46.658 11.4393H46.6561ZM16.7783 41.7194C16.7783 42.0701 16.3983 42.2876 16.0966 42.1093L8.08455 37.4035C7.58502 37.1096 7.27746 36.5728 7.27746 35.9929V30.4114C7.27746 30.0607 7.6575 29.8452 7.95918 30.0215L15.9712 34.7273C16.4708 35.0212 16.7783 35.558 16.7783 36.1379V41.7194ZM42.7225 35.9929C42.7225 36.5728 42.415 37.1096 41.9155 37.4035L33.9034 42.1093C33.6017 42.2856 33.2217 42.0682 33.2217 41.7194V36.1379C33.2217 35.558 33.5292 35.0212 34.0288 34.7273L42.0408 30.0215C42.3425 29.8452 42.7225 30.0627 42.7225 30.4114V35.9929ZM42.7225 25.5822C42.7225 26.1621 42.415 26.6989 41.9155 26.9927L25.6993 36.518C25.2684 36.7707 24.7336 36.7707 24.3007 36.518L8.08455 26.9927C7.58502 26.6989 7.27746 26.1621 7.27746 25.5822V18.4079C7.27746 18.0592 7.6575 17.8417 7.95918 18.018L24.283 27.606C24.7257 27.8665 25.2762 27.8665 25.7189 27.606L42.0428 18.018C42.3445 17.8417 42.7245 18.0592 42.7245 18.4079V25.5822H42.7225Z" fill="url(#paint0_linear_511_427)"/>
<defs>
<linearGradient id="paint0_linear_511_427" x1="24.4882" y1="27.2312" x2="53.9462" y2="56.7243" gradientUnits="userSpaceOnUse">
<stop stop-color="white"/>
<stop offset="1" stop-color="white" stop-opacity="0.7"/>
</linearGradient>
</defs>
</svg>
