<svg width="50" height="56" viewBox="0 0 50 56" fill="none" xmlns="http://www.w3.org/2000/svg">
<g clip-path="url(#clip0_511_741)">
<path d="M41.9122 26.9099L25.6973 36.4059C25.2664 36.6579 24.7316 36.6579 24.2988 36.4059L8.08391 26.9099C7.58442 26.6169 7.27689 26.0818 7.27689 25.5037V18.3514C7.27689 18.0018 7.6569 17.785 7.95855 17.9627C7.44339 17.6639 6.05461 16.7147 4.37985 16.7147C1.96075 16.7147 0 18.6698 0 21.0818V38.195C0 40.5719 1.27517 42.7691 3.34561 43.9586L21.6544 54.4721C22.6886 55.0659 23.8443 55.3628 25 55.3628C26.1557 55.3628 27.3114 55.0659 28.3456 54.4721L46.6544 43.9586C48.7248 42.7691 50 40.5719 50 38.195V17.1678C50 23.242 45.4537 24.7849 41.9161 26.9099H41.9122ZM16.777 41.5914C16.777 41.941 16.397 42.1578 16.0954 41.9801L8.08391 37.2887C7.58442 36.9957 7.27689 36.4606 7.27689 35.8825V30.3181C7.27689 29.9685 7.6569 29.7536 7.95855 29.9294L15.97 34.6208C16.4695 34.9137 16.777 35.4489 16.777 36.027V41.5914ZM42.7192 35.8825C42.7192 36.4606 42.4117 36.9957 41.9122 37.2887L33.9007 41.9801C33.5991 42.1559 33.2191 41.9391 33.2191 41.5914V36.027C33.2191 35.4489 33.5266 34.9137 34.0261 34.6208L42.0375 29.9294C42.3392 29.7536 42.7192 29.9704 42.7192 30.3181V35.8825Z" fill="url(#paint0_linear_511_741)"/>
<path d="M7.95855 17.9647L24.2811 27.5232C24.7238 27.7829 25.2742 27.7829 25.7169 27.5232L42.0395 17.9647C42.3411 17.7889 42.7211 18.0057 42.7211 18.3533V25.5056C42.7211 26.0837 42.4136 26.6189 41.9141 26.9118C45.4517 24.7869 49.998 23.2439 49.998 17.1698C49.998 14.7928 48.7229 12.5956 46.6524 11.4061L28.3436 0.890616C27.3094 0.296872 26.1537 0 24.998 0C23.8424 0 22.6867 0.296872 21.6524 0.890616L3.34561 11.4042C1.27517 12.5936 0 14.7909 0 17.1678V21.0818C0 18.6697 1.96075 16.7166 4.37789 16.7166C6.05265 16.7166 7.44339 17.6658 7.95659 17.9647L24.2792 27.5232" fill="url(#paint1_linear_511_741)"/>
</g>
<defs>
<linearGradient id="paint0_linear_511_741" x1="7.44298" y1="27.1323" x2="3.21559" y2="16.999" gradientUnits="userSpaceOnUse">
<stop stop-color="white"/>
<stop offset="1" stop-color="white" stop-opacity="0.3"/>
<stop offset="1" stop-color="white" stop-opacity="0.45"/>
<stop offset="1" stop-color="white" stop-opacity="0.45"/>
</linearGradient>
<linearGradient id="paint1_linear_511_741" x1="45.5" y1="16.5" x2="48.8508" y2="22.3133" gradientUnits="userSpaceOnUse">
<stop stop-color="white"/>
<stop offset="1" stop-color="white" stop-opacity="0.45"/>
</linearGradient>
<clipPath id="clip0_511_741">
<rect width="50" height="55.5315" fill="white" transform="matrix(-1 0 0 1 50 0)"/>
</clipPath>
</defs>
</svg>
