<svg width="50" height="56" viewBox="0 0 50 56" fill="none" xmlns="http://www.w3.org/2000/svg">
<g clip-path="url(#clip0_511_435)">
<path d="M41.919 26.9919L25.7014 36.5169C25.2704 36.7696 24.7356 36.7696 24.3026 36.5169L8.08504 26.9919C7.58547 26.6981 7.27788 26.1613 7.27788 25.5814V18.4073C7.27788 18.0566 7.65795 17.8392 7.95966 18.0175C7.44441 17.7177 6.05539 16.7656 4.38035 16.7656C1.96083 16.7656 -0.000244141 18.7266 -0.000244141 21.1461V38.3113C-0.000244141 40.6955 1.27514 42.8995 3.34593 44.0925L21.6578 54.6381C22.6922 55.2337 23.8481 55.5315 25.004 55.5315C26.1599 55.5315 27.3158 55.2337 28.3502 54.6381L46.6621 44.0925C48.7328 42.8995 50.0082 40.6955 50.0082 38.3113V17.2201C50.0082 23.3128 45.4611 24.8605 41.9229 26.9919H41.919ZM16.7796 41.7182C16.7796 42.0688 16.3995 42.2863 16.0978 42.108L8.08504 37.4023C7.58547 37.1085 7.27788 36.5717 7.27788 35.9918V30.4105C7.27788 30.0598 7.65795 29.8443 7.95966 30.0206L15.9725 34.7263C16.472 35.0201 16.7796 35.5569 16.7796 36.1368V41.7182ZM42.7262 35.9918C42.7262 36.5717 42.4186 37.1085 41.919 37.4023L33.9062 42.108C33.6045 42.2843 33.2245 42.0669 33.2245 41.7182V36.1368C33.2245 35.5569 33.532 35.0201 34.0316 34.7263L42.0444 30.0206C42.3461 29.8443 42.7262 30.0618 42.7262 30.4105V35.9918Z" fill="url(#paint0_linear_511_435)"/>
<path d="M7.9599 18.0194L24.2852 27.6071C24.728 27.8676 25.2785 27.8676 25.7213 27.6071L42.0466 18.0194C42.3483 17.8431 42.7284 18.0606 42.7284 18.4093V25.5833C42.7284 26.1632 42.4208 26.7 41.9212 26.9939C45.4594 24.8624 50.0065 23.3148 50.0065 17.2221C50.0065 14.8379 48.7311 12.634 46.6603 11.4409L28.3485 0.893331C27.314 0.297777 26.1582 0 25.0023 0C23.8464 0 22.6905 0.297777 21.6561 0.893331L3.34618 11.4389C1.27539 12.632 0 14.8359 0 17.2201V21.1461C0 18.7266 1.96108 16.7676 4.37863 16.7676C6.05368 16.7676 7.44465 17.7197 7.95794 18.0194L24.2833 27.6071" fill="url(#paint1_linear_511_435)"/>
</g>
<defs>
<linearGradient id="paint0_linear_511_435" x1="11.1089" y1="25.0183" x2="3.18358" y2="17.0669" gradientUnits="userSpaceOnUse">
<stop/>
<stop offset="1" stop-opacity="0.3"/>
</linearGradient>
<linearGradient id="paint1_linear_511_435" x1="45.8393" y1="16.117" x2="48.8699" y2="22.3769" gradientUnits="userSpaceOnUse">
<stop/>
<stop offset="1" stop-opacity="0.3"/>
</linearGradient>
<clipPath id="clip0_511_435">
<rect width="50" height="55.5315" fill="white" transform="matrix(-1 0 0 1 50 0)"/>
</clipPath>
</defs>
</svg>
