<svg width="50" height="56" viewBox="0 0 50 56" fill="none" xmlns="http://www.w3.org/2000/svg">
<g clip-path="url(#clip0_511_423)">
<path d="M46.6603 11.4393L28.3485 0.893358C27.314 0.297786 26.1582 0 25.0023 0C23.8464 0 22.6905 0.297786 21.6561 0.893358L3.34618 11.4393C1.27539 12.6324 0 14.8364 0 17.2207V38.3125C0 40.6968 1.27539 42.9008 3.34618 44.0939L21.6581 54.6398C22.6925 55.2354 23.8484 55.5332 25.0042 55.5332C26.1601 55.5332 27.316 55.2354 28.3504 54.6398L46.6623 44.0939C48.7331 42.9008 50.0085 40.6968 50.0085 38.3125V17.2207C50.0085 14.8364 48.7331 12.6324 46.6623 11.4393H46.6603ZM16.7799 41.7194C16.7799 42.0701 16.3998 42.2876 16.0981 42.1093L8.08529 37.4035C7.58571 37.1096 7.27813 36.5728 7.27813 35.9929V30.4114C7.27813 30.0607 7.6582 29.8452 7.9599 30.0215L15.9727 34.7273C16.4723 35.0212 16.7799 35.558 16.7799 36.1379V41.7194ZM42.7264 35.9929C42.7264 36.5728 42.4188 37.1096 41.9193 37.4035L33.9065 42.1093C33.6048 42.2856 33.2247 42.0682 33.2247 41.7194V36.1379C33.2247 35.558 33.5323 35.0212 34.0319 34.7273L42.0447 30.0215C42.3464 29.8452 42.7264 30.0627 42.7264 30.4114V35.9929ZM42.7264 25.5822C42.7264 26.1621 42.4188 26.6989 41.9193 26.9927L25.7017 36.518C25.2707 36.7707 24.7358 36.7707 24.3029 36.518L8.08529 26.9927C7.58571 26.6989 7.27813 26.1621 7.27813 25.5822V18.4079C7.27813 18.0592 7.6582 17.8417 7.9599 18.018L24.2852 27.6059C24.728 27.8665 25.2785 27.8665 25.7213 27.6059L42.0466 18.018C42.3483 17.8417 42.7284 18.0592 42.7284 18.4079V25.5822H42.7264Z" fill="url(#paint0_linear_511_423)"/>
</g>
<defs>
<linearGradient id="paint0_linear_511_423" x1="9.59403" y1="12.3637" x2="53.9432" y2="56.7322" gradientUnits="userSpaceOnUse">
<stop stop-color="#FBC400"/>
<stop offset="1" stop-color="#E62B19"/>
</linearGradient>
<clipPath id="clip0_511_423">
<rect width="50" height="55.5315" fill="white"/>
</clipPath>
</defs>
</svg>
