<svg width="1080" height="1080" viewBox="0 0 1080 1080" fill="none" xmlns="http://www.w3.org/2000/svg">
<path d="M1014.04 265.68C1021.77 280.674 1026 297.523 1026 314.988V765.144C1026 804.486 1004.52 840.703 969.966 859.633L591.966 1066.7C575.783 1075.57 557.891 1080 540 1080V518.469L1014.04 265.68Z" fill="white"/>
<path d="M65.963 265.68C58.2326 280.674 54 297.523 54 314.988V765.144C54 804.486 75.4774 840.703 110.034 859.633L488.034 1066.7C504.217 1075.57 522.109 1080 540 1080V518.469L65.963 265.68Z" fill="white"/>
<path d="M1014.04 265.58L540 518.4L65.9634 265.58C75.6467 246.796 90.8183 230.922 110.034 220.394L488.034 13.2995C504.214 4.43533 522.1 0.0021641 539.987 0H540.013C557.901 0.0021641 575.787 4.43532 591.966 13.2995L969.966 220.394C989.182 230.922 1004.35 246.796 1014.04 265.58Z" fill="white"/>
<path fill-rule="evenodd" clip-rule="evenodd" d="M1015.2 765.105V314.895C1015.2 279.5 995.88 246.906 964.777 229.866L586.777 22.7711C557.643 6.80962 522.357 6.80964 493.223 22.7711L115.223 229.866C84.1202 246.906 64.8 279.5 64.8 314.895V765.105C64.8 800.5 84.1202 833.094 115.223 850.135L493.223 1057.23C522.357 1073.19 557.643 1073.19 586.777 1057.23L964.777 850.134C995.88 833.094 1015.2 800.5 1015.2 765.105ZM110.034 220.394C75.4774 239.327 54 275.548 54 314.895V765.105C54 804.452 75.4774 840.674 110.034 859.606L488.034 1066.7C520.4 1084.43 559.6 1084.43 591.966 1066.7L969.966 859.606C1004.52 840.674 1026 804.452 1026 765.105V314.895C1026 275.548 1004.52 239.327 969.966 220.394L591.966 13.2995C559.6 -4.43317 520.4 -4.43315 488.034 13.2995L110.034 220.394Z" fill="white"/>
<path fill-rule="evenodd" clip-rule="evenodd" d="M285.519 467.907C278.391 462.95 271.604 457.286 265.255 450.915C208.054 393.515 208.054 300.45 265.255 243.05C322.457 185.65 415.199 185.65 472.4 243.05C478.75 249.421 484.394 256.232 489.334 263.384L419.408 333.553C417.128 324.875 412.598 316.668 405.818 309.864C385.389 289.364 352.267 289.364 331.838 309.864C311.408 330.364 311.408 363.601 331.838 384.101L350.436 402.765L285.519 467.907ZM857.099 836.95C799.897 894.35 707.155 894.35 649.954 836.95C592.752 779.549 592.752 686.485 649.954 629.085C707.155 571.685 799.897 571.685 857.099 629.085C914.3 686.485 914.301 779.549 857.099 836.95ZM716.536 770.136C736.965 790.636 770.087 790.636 790.516 770.136C810.946 749.636 810.945 716.399 790.516 695.899L757.225 662.492C755.182 660.442 751.87 660.442 749.827 662.492L716.536 695.899C696.107 716.399 696.107 749.636 716.536 770.136Z" fill="#999CFF" fill-opacity="0.7"/>
<path d="M539.793 254.954C566.759 265.321 580.253 295.684 569.932 322.773L455.323 623.573C445.002 650.661 414.774 664.217 387.808 653.851C360.841 643.484 347.348 613.121 357.669 586.032L472.278 285.232C482.599 258.143 512.827 244.587 539.793 254.954Z" fill="#5245E6"/>
<path d="M632.222 347.801C659.189 358.167 672.682 388.531 662.361 415.62L547.752 716.42C537.431 743.508 507.203 757.064 480.237 746.698C453.271 736.331 439.777 705.967 450.098 678.879L564.707 378.079C575.028 350.99 605.256 337.434 632.222 347.801Z" fill="#5245E6"/>
<path d="M754.79 508.467C765.111 481.378 751.618 451.014 724.651 440.648C697.685 430.281 667.457 443.837 657.136 470.926L542.527 771.726C532.206 798.814 545.7 829.178 572.666 839.544C599.633 849.911 629.86 836.355 640.181 809.266L754.79 508.467Z" fill="#5245E6"/>
<path d="M318.296 433.114L483.942 266.854C504.377 246.344 537.508 246.343 557.942 266.853C578.376 287.362 578.375 320.615 557.941 341.126L392.295 507.386C343.304 556.558 277.232 564.269 212.905 538.444C186.074 527.672 173.024 497.108 183.757 470.177C194.49 443.245 224.942 430.146 251.774 440.918C277.231 451.138 298.908 452.575 318.296 433.114Z" fill="url(#paint0_linear_377_1406)"/>
<path d="M650.444 433.974C630.009 454.486 596.876 454.486 576.441 433.974C556.005 413.463 556.005 380.208 576.441 359.697C596.876 339.186 630.009 339.186 650.444 359.697C670.88 380.208 670.88 413.463 650.444 433.974Z" fill="url(#paint1_linear_377_1406)"/>
<path d="M561.64 448.83C541.204 428.319 508.072 428.319 487.637 448.83L369.231 567.674C348.795 588.185 348.795 621.44 369.231 641.951C389.666 662.462 422.799 662.462 443.234 641.951L561.64 523.107C582.076 502.596 582.076 469.341 561.64 448.83Z" fill="url(#paint2_linear_377_1406)"/>
<path d="M668.945 452.544C689.381 432.033 722.513 432.033 742.949 452.544C763.384 473.055 763.384 506.31 742.949 526.821L535.739 734.798C515.303 755.309 482.171 755.309 461.735 734.798C441.3 714.287 441.3 681.031 461.735 660.52L668.945 452.544Z" fill="url(#paint3_linear_377_1406)"/>
<path d="M835.453 545.39C815.017 524.879 781.885 524.879 761.449 545.39L554.24 753.367C533.804 773.878 533.804 807.133 554.24 827.644C574.675 848.155 607.808 848.155 628.243 827.644L835.453 619.668C855.888 599.157 855.888 565.902 835.453 545.39Z" fill="url(#paint4_linear_377_1406)"/>
<path fill-rule="evenodd" clip-rule="evenodd" d="M724.68 440.541C751.623 450.911 765.106 481.282 754.793 508.378L640.281 809.257C629.968 836.353 599.766 849.913 572.822 839.543C545.879 829.174 532.396 798.803 542.709 771.707L657.221 470.828C667.534 443.732 697.736 430.172 724.68 440.541Z" fill="url(#paint5_linear_377_1406)"/>
<defs>
<linearGradient id="paint0_linear_377_1406" x1="515.39" y1="251.471" x2="515.39" y2="843.028" gradientUnits="userSpaceOnUse">
<stop stop-color="#999CFF"/>
<stop offset="1" stop-color="#5B4DFF"/>
</linearGradient>
<linearGradient id="paint1_linear_377_1406" x1="515.39" y1="251.471" x2="515.39" y2="843.028" gradientUnits="userSpaceOnUse">
<stop stop-color="#999CFF"/>
<stop offset="1" stop-color="#5B4DFF"/>
</linearGradient>
<linearGradient id="paint2_linear_377_1406" x1="515.39" y1="251.471" x2="515.39" y2="843.028" gradientUnits="userSpaceOnUse">
<stop stop-color="#999CFF"/>
<stop offset="1" stop-color="#5B4DFF"/>
</linearGradient>
<linearGradient id="paint3_linear_377_1406" x1="515.39" y1="251.471" x2="515.39" y2="843.028" gradientUnits="userSpaceOnUse">
<stop stop-color="#999CFF"/>
<stop offset="1" stop-color="#5B4DFF"/>
</linearGradient>
<linearGradient id="paint4_linear_377_1406" x1="515.39" y1="251.471" x2="515.39" y2="843.028" gradientUnits="userSpaceOnUse">
<stop stop-color="#999CFF"/>
<stop offset="1" stop-color="#5B4DFF"/>
</linearGradient>
<linearGradient id="paint5_linear_377_1406" x1="648.751" y1="437.057" x2="648.751" y2="843.028" gradientUnits="userSpaceOnUse">
<stop stop-color="#999CFF"/>
<stop offset="1" stop-color="#5B4DFF"/>
</linearGradient>
</defs>
</svg>
