<svg width="1080" height="1080" viewBox="0 0 1080 1080" fill="none" xmlns="http://www.w3.org/2000/svg">
<path d="M1014.04 265.68C1021.77 280.675 1026 297.524 1026 314.989V765.144C1026 804.486 1004.52 840.703 969.966 859.633L591.966 1066.7C575.783 1075.57 557.891 1080 540 1080V518.469L1014.04 265.68Z" fill="white"/>
<path d="M65.963 265.68C58.2326 280.675 54 297.524 54 314.989V765.144C54 804.486 75.4774 840.703 110.034 859.633L488.034 1066.7C504.217 1075.57 522.109 1080 540 1080V518.469L65.963 265.68Z" fill="white"/>
<path d="M1014.04 265.58L540 518.4L65.9634 265.58C75.6467 246.796 90.8183 230.922 110.034 220.394L488.034 13.2995C504.214 4.43533 522.1 0.0021641 539.987 0H540.013C557.901 0.0021641 575.787 4.43532 591.966 13.2995L969.966 220.394C989.182 230.922 1004.35 246.796 1014.04 265.58Z" fill="white"/>
<path fill-rule="evenodd" clip-rule="evenodd" d="M1015.2 765.105V314.895C1015.2 279.5 995.88 246.906 964.777 229.866L586.777 22.7711C557.643 6.80962 522.357 6.80964 493.223 22.7711L115.223 229.866C84.1202 246.906 64.8 279.5 64.8 314.895V765.105C64.8 800.5 84.1202 833.094 115.223 850.134L493.223 1057.23C522.357 1073.19 557.643 1073.19 586.777 1057.23L964.777 850.134C995.88 833.094 1015.2 800.5 1015.2 765.105ZM110.034 220.394C75.4774 239.327 54 275.548 54 314.895V765.105C54 804.452 75.4774 840.674 110.034 859.606L488.034 1066.7C520.4 1084.43 559.6 1084.43 591.966 1066.7L969.966 859.606C1004.52 840.674 1026 804.452 1026 765.105V314.895C1026 275.548 1004.52 239.327 969.966 220.394L591.966 13.2995C559.6 -4.43317 520.4 -4.43315 488.034 13.2995L110.034 220.394Z" fill="white"/>
<path d="M487.641 448.834L369.229 567.675C365.219 571.695 362.009 576.215 359.569 581.026L384.999 514.275C387.469 512.074 389.899 509.774 392.29 507.374L557.943 341.112L569.933 322.762L527.722 433.543C513.322 432.693 498.632 437.783 487.631 448.824L487.641 448.834ZM576.443 433.983C562.343 419.833 557.973 399.613 563.333 381.693L542.423 436.573C549.433 439.113 556.023 443.193 561.643 448.834C582.083 469.344 582.083 502.604 561.643 523.115L477.131 607.936L451.751 674.557C454.221 669.487 457.541 664.737 461.741 660.527L635.515 486.114L662.375 415.623L650.455 433.973C630.024 454.484 596.884 454.484 576.453 433.973L576.443 433.983Z" fill="#75757A" fill-opacity="0.6"/>
<path d="M331.838 309.862C311.408 330.362 311.408 363.602 331.838 384.103L349.489 401.813L318.298 433.113C300.568 450.914 280.917 451.224 258.217 443.334C208.166 385.593 210.506 297.981 265.257 243.051C322.458 185.65 415.2 185.65 472.411 243.051C478.521 249.181 483.972 255.731 488.782 262.591C487.112 263.901 485.492 265.311 483.952 266.861L418.98 332.082C416.59 323.952 412.22 316.292 405.83 309.872C385.4 289.371 352.279 289.371 331.848 309.872L331.838 309.862ZM840.049 614.386C838.649 616.216 837.129 617.986 835.459 619.666L775.008 680.337L790.518 695.897C810.948 716.398 810.948 749.638 790.518 770.138C770.088 790.639 736.967 790.639 716.536 770.138C710.996 764.578 706.976 758.088 704.436 751.168L635.605 820.249C639.905 826.079 644.675 831.669 649.945 836.949C707.146 894.35 799.888 894.35 857.099 836.949C914.301 779.549 914.301 686.477 857.099 629.086C851.709 623.676 845.999 618.776 840.039 614.386H840.049Z" fill="#75757A" fill-opacity="0.55"/>
<path d="M657.225 470.834C660.095 463.284 664.515 456.794 669.975 451.574C669.635 451.894 669.285 452.214 668.955 452.554L461.741 660.537C441.31 681.047 441.31 714.307 461.741 734.818C482.181 755.328 515.312 755.328 535.742 734.818L569.753 700.687L657.225 470.844V470.834ZM835.459 545.395C815.018 524.885 781.887 524.885 761.457 545.395L727.896 579.085L640.294 809.269C638.044 815.169 634.854 820.429 630.954 824.949L835.469 619.676C855.899 599.166 855.899 565.905 835.469 545.395H835.459ZM671.675 450.014C671.195 450.434 670.725 450.854 670.265 451.294C670.735 450.854 671.205 450.434 671.675 450.014ZM676.725 446.114C676.965 445.944 677.215 445.784 677.455 445.624C677.205 445.784 676.965 445.954 676.725 446.114ZM674.475 447.724C674.795 447.474 675.125 447.234 675.455 447.004C675.125 447.244 674.805 447.484 674.475 447.724Z" fill="#75757A" fill-opacity="0.85"/>
<path fill-rule="evenodd" clip-rule="evenodd" d="M392.299 507.394C343.308 556.565 277.237 564.275 212.906 538.455C186.075 527.685 173.025 497.114 183.755 470.184C194.485 443.253 224.946 430.153 251.777 440.923C277.237 451.143 298.908 452.583 318.298 433.123L483.951 266.861C504.382 246.35 537.522 246.35 557.953 266.861C578.383 287.371 578.383 320.622 557.953 341.132L392.299 507.394ZM576.453 433.983C596.884 454.494 630.024 454.494 650.455 433.983C670.895 413.473 670.895 380.212 650.455 359.702C630.024 339.192 596.884 339.192 576.453 359.702C556.013 380.212 556.013 413.473 576.453 433.983ZM561.653 448.833C541.223 428.323 508.082 428.323 487.651 448.833L369.239 567.675C348.799 588.186 348.799 621.446 369.239 641.956C389.669 662.467 422.81 662.467 443.241 641.956L561.653 523.115C582.093 502.604 582.093 469.344 561.653 448.833ZM724.696 440.543C697.756 430.173 667.545 443.733 657.235 470.834L542.723 771.718C532.412 798.819 545.893 829.189 572.833 839.559C599.774 849.929 629.984 836.369 640.295 809.269L754.807 508.384C765.117 481.284 751.637 450.913 724.696 440.543Z" fill="#75757A"/>
</svg>
