<svg width="880" height="880" viewBox="0 0 880 880" fill="none" xmlns="http://www.w3.org/2000/svg">
<path d="M428.012 175.2C429.487 200.626 412.213 222.82 387.776 229.069C348.593 238.981 312.991 259.451 284.552 288.109C267.067 306.208 239.26 309.871 217.983 295.866L154.574 254.279L157.733 249.754C219.457 160.117 316.783 108.188 417.901 100.431L423.378 100L428.012 175.2Z" fill="url(#paint0_linear_377_2897)"/>
<path d="M204.079 560.467C227.041 549.047 237.784 523.19 231.043 498.842C219.878 460.272 219.878 419.332 231.043 380.762C237.995 356.414 227.041 330.341 204.079 319.137L136.456 285.738L134.139 290.479C90.3213 381.409 86.9507 491.3 134.139 589.125L136.456 593.866L204.079 560.467Z" fill="url(#paint1_linear_377_2897)"/>
<path d="M428.012 701.387V704.404L423.378 779.604L417.901 779.173C309.199 770.985 215.244 713.238 157.733 629.85L154.574 625.325L217.772 583.739C239.049 569.733 266.856 573.396 284.552 591.28C312.991 620.154 348.593 640.624 387.776 650.535C411.159 656.569 428.012 677.254 428.012 701.387Z" fill="url(#paint2_linear_377_2897)"/>
<path d="M451.988 704.404V701.387C451.988 677.254 468.841 656.569 492.224 650.535C531.407 640.624 567.009 620.154 595.448 591.28C613.144 573.396 640.951 569.733 662.228 583.739L725.427 625.325L722.267 629.85C664.756 713.238 570.801 770.985 462.1 779.173L456.622 779.604L451.988 704.404Z" fill="url(#paint3_linear_377_2897)"/>
<path d="M708.426 648.834C651.796 691.648 553.211 716.127 452.049 699.198C452.009 700.034 451.988 700.876 451.988 701.721V704.74L456.622 780L462.1 779.569C562.479 772.002 650.283 722.14 708.426 648.834Z" fill="url(#paint4_linear_377_2897)"/>
<path d="M326.441 654.42C289.838 633.283 259.101 606.586 233.88 576.922C228.29 578.3 222.846 580.637 217.772 583.979L154.574 625.598L157.734 630.127C215.244 713.581 309.199 771.374 417.901 779.569L423.378 780L428.013 704.74V701.721C428.013 699.193 427.828 696.704 427.471 694.265C393.217 686.226 359.034 673.241 326.441 654.42Z" fill="url(#paint5_linear_377_2897)"/>
<path d="M215.288 553.182C151.375 464.519 131.741 357.153 148.22 291.557L136.456 285.742L134.139 290.487C90.3215 381.489 86.9509 491.467 134.139 589.37L136.456 594.114L204.079 560.689C208.224 558.626 211.97 556.093 215.288 553.182Z" fill="url(#paint6_linear_377_2897)"/>
<path d="M678.579 317.829L675.923 319.141C652.961 330.345 642.007 356.418 648.958 380.766C660.124 419.336 660.124 460.276 648.958 498.846C642.217 523.194 652.961 549.051 675.923 560.471L743.545 593.87L745.863 589.129C752.163 576.067 757.563 562.791 762.085 549.372C767.06 481.882 738.413 392.244 678.307 317.988L678.579 317.829Z" fill="url(#paint7_linear_377_2897)"/>
<path d="M387.779 229.072C412.216 222.823 429.49 200.629 428.015 175.203L427.02 159.055C350.943 178.697 288.633 232.553 257.499 303.22C267.537 301.047 277.008 295.924 284.555 288.111C312.994 259.453 348.596 238.983 387.779 229.072Z" fill="#086FD8"/>
<path d="M762.065 549.636C767.134 482.116 738.491 392.341 678.307 317.988L743.544 285.742L745.861 290.487C783.836 369.354 791.432 462.475 762.065 549.636Z" fill="#086FD8"/>
<path d="M565.955 100C556.566 100 548.955 107.607 548.955 116.99V193.446H472.455C463.066 193.446 455.455 201.052 455.455 210.436V244.416C455.455 253.799 463.066 261.406 472.455 261.406H548.955V337.861C548.955 347.245 556.566 354.852 565.955 354.852H599.955C609.344 354.852 616.955 347.245 616.955 337.861V261.406H693.455C702.844 261.406 710.455 253.799 710.455 244.416V210.436C710.455 201.052 702.844 193.446 693.455 193.446H616.955V116.99C616.955 107.607 609.344 100 599.955 100H565.955Z" fill="url(#paint8_linear_377_2897)"/>
<defs>
<linearGradient id="paint0_linear_377_2897" x1="506.519" y1="439.798" x2="277.358" y2="584.244" gradientUnits="userSpaceOnUse">
<stop stop-color="#4ECDFF"/>
<stop offset="1" stop-color="#086FD8"/>
</linearGradient>
<linearGradient id="paint1_linear_377_2897" x1="506.519" y1="439.798" x2="277.358" y2="584.244" gradientUnits="userSpaceOnUse">
<stop stop-color="#4ECDFF"/>
<stop offset="1" stop-color="#086FD8"/>
</linearGradient>
<linearGradient id="paint2_linear_377_2897" x1="506.519" y1="439.798" x2="277.358" y2="584.244" gradientUnits="userSpaceOnUse">
<stop stop-color="#4ECDFF"/>
<stop offset="1" stop-color="#086FD8"/>
</linearGradient>
<linearGradient id="paint3_linear_377_2897" x1="506.519" y1="439.798" x2="277.358" y2="584.244" gradientUnits="userSpaceOnUse">
<stop stop-color="#4ECDFF"/>
<stop offset="1" stop-color="#086FD8"/>
</linearGradient>
<linearGradient id="paint4_linear_377_2897" x1="139.602" y1="224.337" x2="781.046" y2="435.718" gradientUnits="userSpaceOnUse">
<stop offset="0.156535" stop-color="#4ECDFF"/>
<stop offset="0.84195" stop-color="#086FD8"/>
<stop offset="1" stop-color="#4ECDFF"/>
</linearGradient>
<linearGradient id="paint5_linear_377_2897" x1="139.602" y1="224.337" x2="781.046" y2="435.718" gradientUnits="userSpaceOnUse">
<stop offset="0.156535" stop-color="#4ECDFF"/>
<stop offset="0.84195" stop-color="#086FD8"/>
<stop offset="1" stop-color="#4ECDFF"/>
</linearGradient>
<linearGradient id="paint6_linear_377_2897" x1="139.602" y1="224.337" x2="781.046" y2="435.718" gradientUnits="userSpaceOnUse">
<stop offset="0.156535" stop-color="#4ECDFF"/>
<stop offset="0.84195" stop-color="#086FD8"/>
<stop offset="1" stop-color="#4ECDFF"/>
</linearGradient>
<linearGradient id="paint7_linear_377_2897" x1="703.499" y1="402.573" x2="540.871" y2="583.286" gradientUnits="userSpaceOnUse">
<stop stop-color="#4ECDFF"/>
<stop offset="1" stop-color="#086FD8"/>
</linearGradient>
<linearGradient id="paint8_linear_377_2897" x1="455.455" y1="100" x2="710.306" y2="355" gradientUnits="userSpaceOnUse">
<stop offset="0.5" stop-color="#40A9FF"/>
<stop offset="0.500486" stop-color="#086FD8"/>
</linearGradient>
</defs>
</svg>
