<svg width="880" height="880" viewBox="0 0 880 880" fill="none" xmlns="http://www.w3.org/2000/svg">
<path d="M428.012 175.2C429.487 200.626 412.213 222.82 387.776 229.069C348.593 238.981 312.991 259.451 284.552 288.109C267.067 306.208 239.26 309.871 217.983 295.866L154.574 254.279L157.733 249.754C219.457 160.117 316.783 108.188 417.901 100.431L423.378 100L428.012 175.2Z" fill="white"/>
<path d="M204.079 560.467C227.041 549.047 237.784 523.19 231.043 498.842C219.878 460.272 219.878 419.332 231.043 380.762C237.995 356.414 227.041 330.341 204.079 319.137L136.456 285.738L134.139 290.479C90.3213 381.409 86.9507 491.3 134.139 589.125L136.456 593.866L204.079 560.467Z" fill="white"/>
<path d="M428.012 701.387V704.404L423.378 779.604L417.901 779.173C309.199 770.985 215.244 713.238 157.733 629.85L154.574 625.325L217.772 583.738C239.049 569.733 266.856 573.396 284.552 591.28C312.991 620.153 348.593 640.624 387.776 650.535C411.159 656.569 428.012 677.254 428.012 701.387Z" fill="white"/>
<path d="M451.988 704.404V701.387C451.988 677.254 468.841 656.569 492.224 650.535C531.407 640.624 567.009 620.153 595.448 591.28C613.144 573.396 640.951 569.733 662.228 583.738L725.427 625.325L722.267 629.85C664.756 713.238 570.801 770.985 462.099 779.173L456.622 779.604L451.988 704.404Z" fill="white"/>
<path d="M675.923 560.467C652.961 549.047 642.217 523.19 648.958 498.841C660.123 460.272 660.123 419.332 648.958 380.762C642.006 356.413 652.961 330.341 675.923 319.136L743.545 285.738L745.863 290.478C789.68 381.408 793.051 491.3 745.863 589.125L743.545 593.865L675.923 560.467Z" fill="white"/>
<path d="M565.955 100C556.566 100 548.955 107.607 548.955 116.99V193.446H472.455C463.066 193.446 455.455 201.052 455.455 210.436V244.416C455.455 253.799 463.066 261.406 472.455 261.406H548.955V337.861C548.955 347.245 556.566 354.852 565.955 354.852H599.955C609.344 354.852 616.955 347.245 616.955 337.861V261.406H693.455C702.844 261.406 710.455 253.799 710.455 244.416V210.436C710.455 201.052 702.844 193.446 693.455 193.446H616.955V116.99C616.955 107.607 609.344 100 599.955 100H565.955Z" fill="url(#paint0_linear_379_172)"/>
<defs>
<linearGradient id="paint0_linear_379_172" x1="455.455" y1="100" x2="710.306" y2="355" gradientUnits="userSpaceOnUse">
<stop offset="0.5" stop-color="white"/>
<stop offset="0.500486" stop-color="white" stop-opacity="0.7"/>
</linearGradient>
</defs>
</svg>
