<svg width="880" height="880" viewBox="0 0 880 880" fill="none" xmlns="http://www.w3.org/2000/svg">
<path d="M369.011 222.926H497.333V659.718H369.011V222.926Z" fill="url(#paint0_linear_538_429)"/>
<path d="M92.4531 330.114C67.5264 294.59 75.6496 245.996 110.597 221.577C145.544 197.158 194.081 206.161 219.008 241.685L482.867 617.725C507.794 653.25 499.671 701.843 464.724 726.262C429.776 750.681 381.239 741.678 356.312 706.154L92.4531 330.114Z" fill="black"/>
<path d="M383.246 262.275C358.319 226.75 366.443 178.157 401.39 153.738C436.337 129.319 484.874 138.322 509.801 173.846L787.547 569.678C812.474 605.202 804.351 653.796 769.404 678.214C734.457 702.633 685.919 693.63 660.993 658.106L383.246 262.275Z" fill="black"/>
<defs>
<linearGradient id="paint0_linear_538_429" x1="433.613" y1="222.979" x2="399.853" y2="657.59" gradientUnits="userSpaceOnUse">
<stop stop-opacity="0.3"/>
<stop offset="1" stop-opacity="0.8"/>
</linearGradient>
</defs>
</svg>
