<svg width="880" height="880" viewBox="0 0 880 880" fill="none" xmlns="http://www.w3.org/2000/svg">
<path fill-rule="evenodd" clip-rule="evenodd" d="M497.333 424.867V659.718H497.242C498.385 685.291 487.008 710.691 464.724 726.262C429.776 750.681 381.239 741.678 356.312 706.154L92.4531 330.114C67.5264 294.59 75.6496 245.996 110.597 221.577C145.544 197.158 194.081 206.161 219.008 241.685L369.01 455.462V222.926H369.034C366.957 196.471 378.337 169.845 401.389 153.738C436.336 129.319 484.874 138.322 509.8 173.846L787.547 569.678C812.474 605.202 804.35 653.796 769.403 678.214C734.456 702.633 685.919 693.63 660.992 658.106L497.333 424.867Z" fill="black"/>
</svg>
