<svg width="880" height="880" viewBox="0 0 880 880" fill="none" xmlns="http://www.w3.org/2000/svg">
<path d="M637.633 324.644H535.595C518.367 324.644 502.926 318.774 490.769 306.569L388.673 203.814L217.956 375.557L518.137 677.605L637.633 557.414H766.233L563.078 762.053C550.517 774.665 534.039 781 517.503 781C500.967 781 484.489 774.665 471.929 762.053L134.009 422.053C121.852 409.79 115.111 393.574 115.111 376.255C115.111 358.935 121.795 342.662 134.009 330.398L343.041 120.005C355.198 107.742 371.388 101 388.616 101C405.843 101 422.033 107.742 434.19 120.005L564.806 251.414L637.633 324.644Z" fill="url(#paint0_linear_457_1746)"/>
<path d="M637.576 557.356L535.48 557.472C518.31 557.356 502.12 564.097 489.963 576.303L453.722 612.744L518.08 677.489L637.576 557.297V557.356Z" fill="url(#paint1_linear_457_1746)"/>
<path d="M349.609 638.955L216.977 505.512L453.03 268.558L388.616 203.755L134.009 459.946C121.852 472.21 115.111 488.483 115.111 505.803C115.111 523.122 121.795 539.396 134.009 551.659L343.099 761.994C355.256 774.257 371.446 780.999 388.673 780.999C405.9 780.999 422.091 774.257 434.248 761.994L453.088 743.047L349.667 638.955H349.609Z" fill="url(#paint2_linear_457_1746)"/>
<path d="M637.633 324.644L766.175 324.412L563.02 120.005C550.863 107.742 534.673 101 517.446 101C500.218 101 484.028 107.742 471.871 120.005L453.031 138.952L504.482 190.737L637.633 324.644Z" fill="url(#paint3_linear_457_1746)"/>
<defs>
<linearGradient id="paint0_linear_457_1746" x1="237.891" y1="224.156" x2="675.498" y2="654.214" gradientUnits="userSpaceOnUse">
<stop stop-color="#FCFFFF"/>
<stop offset="0.233906" stop-color="#D2FDFF"/>
<stop offset="0.443884" stop-color="white"/>
<stop offset="1" stop-color="#FCFFFF"/>
</linearGradient>
<linearGradient id="paint1_linear_457_1746" x1="574.659" y1="555.844" x2="487.483" y2="642.266" gradientUnits="userSpaceOnUse">
<stop stop-color="#C5FCFF"/>
<stop offset="1" stop-color="#70E1EA"/>
</linearGradient>
<linearGradient id="paint2_linear_457_1746" x1="541.702" y1="351.146" x2="239.259" y2="650.97" gradientUnits="userSpaceOnUse">
<stop stop-color="#50DCEB"/>
<stop offset="1" stop-color="#A1FDFF"/>
</linearGradient>
<linearGradient id="paint3_linear_457_1746" x1="640.514" y1="202.361" x2="573.731" y2="262.808" gradientUnits="userSpaceOnUse">
<stop stop-color="#77F0F4"/>
<stop offset="1" stop-color="#53DEEC"/>
</linearGradient>
</defs>
</svg>
