<svg width="880" height="880" viewBox="0 0 880 880" fill="none" xmlns="http://www.w3.org/2000/svg">
<g opacity="0.7">
<path d="M637.633 323.644L766.175 323.412L563.02 119.005C550.863 106.742 534.673 100 517.445 100C500.218 100 484.028 106.742 471.871 119.005L453.03 137.952L637.633 323.644Z" fill="white"/>
<path d="M637.575 556.355L637.518 556.355L637.575 556.297V556.355Z" fill="white"/>
<path d="M637.518 556.355L518.079 676.489L453.722 611.743L489.962 575.302C502.119 563.097 518.31 556.355 535.479 556.472L637.518 556.355Z" fill="white"/>
<path d="M216.977 504.512L349.609 637.955H349.667L453.088 742.047L434.247 760.994C422.09 773.258 405.9 779.999 388.673 779.999C371.446 779.999 355.256 773.258 343.099 760.994L134.009 550.659C121.794 538.396 115.111 522.122 115.111 504.803C115.111 487.483 121.852 471.21 134.009 458.946L388.615 202.755L453.03 267.558L216.977 504.512Z" fill="white"/>
</g>
<path d="M535.595 323.644H637.633L434.19 119.005C422.033 106.742 405.843 100 388.616 100C371.388 100 355.198 106.742 343.041 119.005L134.009 329.398C121.795 341.662 115.111 357.935 115.111 375.255C115.111 392.574 121.852 408.79 134.009 421.053L152.839 439.999L388.616 202.755L453.03 267.558L453.016 267.573L490.769 305.569C502.926 317.774 518.367 323.644 535.595 323.644Z" fill="white"/>
<path d="M282.12 439.12L216.977 504.512L349.609 637.955H349.667L453.088 742.047L453.064 742.072L471.929 761.053C484.489 773.665 500.967 780 517.503 780C534.039 780 550.517 773.665 563.078 761.053L766.233 556.414H637.633L518.137 676.605L282.12 439.12Z" fill="white"/>
</svg>
