<svg width="880" height="880" viewBox="0 0 880 880" fill="none" xmlns="http://www.w3.org/2000/svg">
<path fill-rule="evenodd" clip-rule="evenodd" d="M745.996 625.631L742.747 630.159C683.844 713.595 587.26 771.376 475.301 779.569L469.887 780L465.122 704.756C463.607 679.315 481.148 657.108 506.485 650.856C546.764 640.938 583.362 620.457 612.381 591.566C630.571 573.672 659.157 570.006 681.029 584.02L745.996 625.631Z" fill="#40A9FF"/>
<path fill-rule="evenodd" clip-rule="evenodd" d="M437.19 701.737V704.756L432.426 780L426.796 779.569C315.053 771.376 218.469 713.595 159.349 630.159L156.101 625.631L221.067 584.02C242.94 570.006 271.525 573.672 289.716 591.566C318.951 620.457 355.549 640.938 395.828 650.856C419.866 656.893 437.19 677.59 437.19 701.737Z" fill="#40A9FF"/>
<path fill-rule="evenodd" clip-rule="evenodd" d="M234.71 499.074C241.64 523.437 230.595 549.309 206.991 560.735L137.476 594.153L135.094 589.41C86.5855 491.528 90.0504 381.572 135.094 290.59L137.476 285.846L206.991 319.264C230.595 330.475 241.856 356.563 234.71 380.926C223.232 419.518 223.232 460.482 234.71 499.074Z" fill="#40A9FF"/>
<path fill-rule="evenodd" clip-rule="evenodd" d="M437.19 175.244C438.706 200.685 420.949 222.892 395.828 229.144C355.549 239.062 318.951 259.543 289.716 288.218C271.741 306.328 243.156 309.994 221.284 295.98L156.101 254.369L159.349 249.841C222.8 160.152 322.849 108.193 426.796 100.431L432.426 100L437.19 175.244Z" fill="#40A9FF"/>
<path fill-rule="evenodd" clip-rule="evenodd" d="M746 254.369L681.033 295.98C659.161 309.994 630.576 306.328 612.385 288.218C583.366 259.543 546.768 239.062 506.272 229.144C481.152 222.892 463.394 200.685 465.127 175.244L469.891 100L475.305 100.431C579.252 108.193 679.517 160.152 742.752 249.841L746 254.369Z" fill="#40A9FF"/>
</svg>
