<svg width="1080" height="1080" viewBox="0 0 1080 1080" fill="none" xmlns="http://www.w3.org/2000/svg">
<path d="M1014.04 265.68C1021.77 280.675 1026 297.524 1026 314.989V765.144C1026 804.486 1004.52 840.703 969.966 859.633L591.966 1066.7C575.783 1075.57 557.891 1080 540 1080V518.469L1014.04 265.68Z" fill="white"/>
<path d="M65.963 265.68C58.2326 280.675 54 297.524 54 314.989V765.144C54 804.486 75.4774 840.703 110.034 859.633L488.034 1066.7C504.217 1075.57 522.109 1080 540 1080V518.469L65.963 265.68Z" fill="white"/>
<path d="M1014.04 265.58L540 518.4L65.9634 265.58C75.6467 246.796 90.8183 230.922 110.034 220.394L488.034 13.2995C504.214 4.43533 522.1 0.0021641 539.987 0H540.013C557.901 0.0021641 575.787 4.43532 591.966 13.2995L969.966 220.394C989.182 230.922 1004.35 246.796 1014.04 265.58Z" fill="white"/>
<path fill-rule="evenodd" clip-rule="evenodd" d="M1015.2 765.105V314.895C1015.2 279.5 995.88 246.906 964.777 229.866L586.777 22.7711C557.643 6.80962 522.357 6.80964 493.223 22.7711L115.223 229.866C84.1202 246.906 64.8 279.5 64.8 314.895V765.105C64.8 800.5 84.1202 833.094 115.223 850.135L493.223 1057.23C522.357 1073.19 557.643 1073.19 586.777 1057.23L964.777 850.134C995.88 833.094 1015.2 800.5 1015.2 765.105ZM110.034 220.394C75.4774 239.327 54 275.548 54 314.895V765.105C54 804.452 75.4774 840.674 110.034 859.606L488.034 1066.7C520.4 1084.43 559.6 1084.43 591.966 1066.7L969.966 859.606C1004.52 840.674 1026 804.452 1026 765.105V314.895C1026 275.548 1004.52 239.327 969.966 220.394L591.966 13.2995C559.6 -4.43317 520.4 -4.43315 488.034 13.2995L110.034 220.394Z" fill="white"/>
<path d="M527.018 259.055C450.943 278.698 388.635 332.551 357.501 403.216C344.282 406.079 330.077 403.827 317.983 395.866L254.574 354.279L257.734 349.754C319.458 260.117 416.783 208.188 517.901 200.431L523.378 200L527.018 259.055Z" fill="url(#paint0_linear_377_3169)"/>
<path d="M331.044 598.842C337.785 623.19 327.041 649.047 304.079 660.467L236.457 693.866L234.139 689.125C186.951 591.3 190.322 481.409 234.139 390.479L236.457 385.738L304.079 419.137C327.041 430.341 337.996 456.414 331.044 480.762C319.879 519.332 319.879 560.272 331.044 598.842Z" fill="url(#paint1_linear_377_3169)"/>
<path d="M528.013 801.387V804.404L523.378 879.604L517.901 879.173C409.2 870.985 315.245 813.238 257.734 729.85L254.574 725.325L317.773 683.739C339.049 669.733 366.857 673.396 384.552 691.28C412.992 720.154 448.593 740.624 487.776 750.535C511.16 756.569 528.013 777.254 528.013 801.387Z" fill="url(#paint2_linear_377_3169)"/>
<path d="M551.988 801.387V804.404L556.623 879.604L562.1 879.173C670.801 870.985 764.757 813.238 822.267 729.85L825.427 725.325L762.229 683.739C740.952 669.733 713.144 673.396 695.449 691.28C667.01 720.154 631.408 740.624 592.225 750.535C568.841 756.569 551.988 777.254 551.988 801.387Z" fill="url(#paint3_linear_377_3169)"/>
<path d="M808.426 748.833C751.796 791.648 653.211 816.126 552.049 799.198C552.008 800.034 551.988 800.875 551.988 801.721V804.74L556.622 880L562.099 879.569C662.478 872.001 750.283 822.14 808.426 748.833Z" fill="url(#paint4_linear_377_3169)"/>
<path d="M426.44 754.42C389.837 733.283 359.101 706.585 333.88 676.921C328.29 678.3 322.845 680.637 317.772 683.979L254.574 725.598L257.733 730.127C315.244 813.581 409.199 871.374 517.901 879.569L523.378 880L528.012 804.74V801.721C528.012 799.193 527.828 796.703 527.47 794.264C493.217 786.226 459.033 773.241 426.44 754.42Z" fill="url(#paint5_linear_377_3169)"/>
<path d="M315.287 653.182C251.374 564.518 231.741 457.152 248.22 391.557L236.456 385.742L234.139 390.486C190.321 481.488 186.951 591.467 234.139 689.37L236.456 694.114L304.079 660.689C308.223 658.626 311.97 656.092 315.287 653.182Z" fill="url(#paint6_linear_377_3169)"/>
<path d="M778.579 417.829L775.923 419.141C752.961 430.345 742.006 456.418 748.958 480.766C760.123 519.336 760.123 560.276 748.958 598.846C742.217 623.194 752.961 649.051 775.923 660.471L843.545 693.87L845.862 689.129C852.163 676.067 857.562 662.79 862.084 649.372C867.059 581.882 838.413 492.244 778.307 417.988L778.579 417.829Z" fill="url(#paint7_linear_377_3169)"/>
<path d="M487.779 329.071C512.215 322.823 529.49 300.629 528.015 275.203L527.02 259.055C450.943 278.697 388.633 332.552 357.499 403.22C367.537 401.047 377.007 395.924 384.554 388.111C412.994 359.453 448.596 338.983 487.779 329.071Z" fill="black" fill-opacity="0.6"/>
<path d="M862.065 649.636C867.134 582.116 838.491 492.341 778.307 417.988L843.544 385.742L845.861 390.487C883.836 469.354 891.431 562.475 862.065 649.636Z" fill="black" fill-opacity="0.6"/>
<path d="M665.954 200C656.566 200 648.954 207.607 648.954 216.99V293.446H572.454C563.066 293.446 555.454 301.052 555.454 310.436V344.416C555.454 353.799 563.066 361.406 572.454 361.406H648.954V437.861C648.954 447.245 656.566 454.852 665.954 454.852H699.954C709.343 454.852 716.954 447.245 716.954 437.861V361.406H793.454C802.843 361.406 810.454 353.799 810.454 344.416V310.436C810.454 301.052 802.843 293.446 793.454 293.446H716.954V216.99C716.954 207.607 709.343 200 699.954 200H665.954Z" fill="url(#paint8_linear_377_3169)"/>
<defs>
<linearGradient id="paint0_linear_377_3169" x1="641.992" y1="539.798" x2="405.103" y2="702.145" gradientUnits="userSpaceOnUse">
<stop/>
<stop offset="1" stop-opacity="0.6"/>
</linearGradient>
<linearGradient id="paint1_linear_377_3169" x1="641.992" y1="539.798" x2="405.103" y2="702.145" gradientUnits="userSpaceOnUse">
<stop/>
<stop offset="1" stop-opacity="0.6"/>
</linearGradient>
<linearGradient id="paint2_linear_377_3169" x1="641.992" y1="539.798" x2="405.103" y2="702.145" gradientUnits="userSpaceOnUse">
<stop/>
<stop offset="1" stop-opacity="0.6"/>
</linearGradient>
<linearGradient id="paint3_linear_377_3169" x1="641.992" y1="539.798" x2="405.103" y2="702.145" gradientUnits="userSpaceOnUse">
<stop/>
<stop offset="1" stop-opacity="0.6"/>
</linearGradient>
<linearGradient id="paint4_linear_377_3169" x1="244.261" y1="324.337" x2="944.085" y2="582.087" gradientUnits="userSpaceOnUse">
<stop/>
<stop offset="0.77084" stop-opacity="0.3"/>
<stop offset="1"/>
</linearGradient>
<linearGradient id="paint5_linear_377_3169" x1="244.261" y1="324.337" x2="944.085" y2="582.087" gradientUnits="userSpaceOnUse">
<stop/>
<stop offset="0.77084" stop-opacity="0.3"/>
<stop offset="1"/>
</linearGradient>
<linearGradient id="paint6_linear_377_3169" x1="244.261" y1="324.337" x2="944.085" y2="582.087" gradientUnits="userSpaceOnUse">
<stop/>
<stop offset="0.77084" stop-opacity="0.3"/>
<stop offset="1"/>
</linearGradient>
<linearGradient id="paint7_linear_377_3169" x1="803.499" y1="502.573" x2="753.347" y2="652.886" gradientUnits="userSpaceOnUse">
<stop/>
<stop offset="1" stop-opacity="0.6"/>
</linearGradient>
<linearGradient id="paint8_linear_377_3169" x1="555.454" y1="200" x2="810.306" y2="455" gradientUnits="userSpaceOnUse">
<stop offset="0.5"/>
<stop offset="0.500486" stop-opacity="0.7"/>
</linearGradient>
</defs>
</svg>
