<svg width="1080" height="1080" viewBox="0 0 1080 1080" fill="none" xmlns="http://www.w3.org/2000/svg">
<path d="M1014.04 265.68C1021.77 280.674 1026 297.523 1026 314.988V765.144C1026 804.486 1004.52 840.703 969.966 859.633L591.966 1066.7C575.783 1075.57 557.891 1080 540 1080V518.469L1014.04 265.68Z" fill="white"/>
<path d="M65.963 265.68C58.2326 280.674 54 297.523 54 314.988V765.144C54 804.486 75.4774 840.703 110.034 859.633L488.034 1066.7C504.217 1075.57 522.109 1080 540 1080V518.469L65.963 265.68Z" fill="white"/>
<path d="M1014.04 265.58L540 518.4L65.9633 265.58C75.6466 246.796 90.8183 230.922 110.034 220.394L488.034 13.2995C504.213 4.43533 522.1 0.0021641 539.987 0H540.013C557.9 0.0021641 575.787 4.43532 591.966 13.2995L969.966 220.394C989.182 230.922 1004.35 246.796 1014.04 265.58Z" fill="white"/>
<path fill-rule="evenodd" clip-rule="evenodd" d="M1015.2 765.105V314.895C1015.2 279.5 995.88 246.906 964.777 229.866L586.777 22.7711C557.643 6.80962 522.357 6.80964 493.223 22.7711L115.223 229.866C84.1202 246.906 64.8 279.5 64.8 314.895V765.105C64.8 800.5 84.1202 833.094 115.223 850.135L493.223 1057.23C522.357 1073.19 557.643 1073.19 586.777 1057.23L964.777 850.134C995.88 833.094 1015.2 800.5 1015.2 765.105ZM110.034 220.394C75.4774 239.327 54 275.548 54 314.895V765.105C54 804.452 75.4774 840.674 110.034 859.606L488.034 1066.7C520.4 1084.43 559.6 1084.43 591.966 1066.7L969.966 859.606C1004.52 840.674 1026 804.452 1026 765.105V314.895C1026 275.548 1004.52 239.327 969.966 220.394L591.966 13.2995C559.6 -4.43317 520.4 -4.43315 488.034 13.2995L110.034 220.394Z" fill="white"/>
<path d="M528.012 275.2C529.487 300.626 512.213 322.82 487.776 329.069C448.593 338.981 412.991 359.451 384.552 388.109C367.067 406.208 339.26 409.871 317.983 395.866L254.574 354.279L257.733 349.754C319.457 260.117 416.783 208.188 517.901 200.431L523.378 200L528.012 275.2Z" fill="#40A9FF"/>
<path d="M304.079 660.467C327.041 649.047 337.784 623.19 331.043 598.842C319.878 560.272 319.878 519.332 331.043 480.762C337.995 456.414 327.041 430.341 304.079 419.137L236.456 385.738L234.139 390.479C190.321 481.409 186.951 591.3 234.139 689.125L236.456 693.866L304.079 660.467Z" fill="#40A9FF"/>
<path d="M528.012 801.387V804.404L523.378 879.604L517.901 879.173C409.199 870.985 315.244 813.238 257.733 729.85L254.574 725.325L317.772 683.738C339.049 669.733 366.856 673.396 384.552 691.28C412.991 720.153 448.593 740.624 487.776 750.535C511.159 756.569 528.012 777.254 528.012 801.387Z" fill="#40A9FF"/>
<path d="M551.988 804.404V801.387C551.988 777.254 568.841 756.569 592.224 750.535C631.407 740.624 667.009 720.153 695.448 691.28C713.144 673.396 740.951 669.733 762.228 683.738L825.427 725.325L822.267 729.85C764.756 813.238 670.801 870.985 562.099 879.173L556.622 879.604L551.988 804.404Z" fill="#40A9FF"/>
<path d="M775.923 660.467C752.961 649.047 742.217 623.19 748.958 598.841C760.123 560.272 760.123 519.332 748.958 480.762C742.006 456.413 752.961 430.341 775.923 419.136L843.545 385.738L845.863 390.478C889.68 481.408 893.051 591.3 845.863 689.125L843.545 693.865L775.923 660.467Z" fill="#40A9FF"/>
<path d="M665.955 200C656.566 200 648.955 207.607 648.955 216.99V293.446H572.455C563.066 293.446 555.455 301.052 555.455 310.436V344.416C555.455 353.799 563.066 361.406 572.455 361.406H648.955V437.861C648.955 447.245 656.566 454.852 665.955 454.852H699.955C709.344 454.852 716.955 447.245 716.955 437.861V361.406H793.455C802.844 361.406 810.455 353.799 810.455 344.416V310.436C810.455 301.052 802.844 293.446 793.455 293.446H716.955V216.99C716.955 207.607 709.344 200 699.955 200H665.955Z" fill="url(#paint0_linear_377_2994)"/>
<defs>
<linearGradient id="paint0_linear_377_2994" x1="555.455" y1="200" x2="810.306" y2="455" gradientUnits="userSpaceOnUse">
<stop offset="0.5" stop-color="#40A9FF"/>
<stop offset="0.500486" stop-color="#086FD8"/>
</linearGradient>
</defs>
</svg>
