<?xml version="1.0" encoding="utf-8"?>
<!-- Generator: Adobe Illustrator 28.3.0, SVG Export Plug-In . SVG Version: 6.00 Build 0)  -->
<svg version="1.1" id="Layer_1" xmlns="http://www.w3.org/2000/svg" xmlns:xlink="http://www.w3.org/1999/xlink" x="0px" y="0px"
	 viewBox="0 0 100 36" style="enable-background:new 0 0 100 36;" xml:space="preserve">
<style type="text/css">
	.st0{fill-rule:evenodd;clip-rule:evenodd;fill:#FFFFFF;}
</style>
<path class="st0" d="M17,0.2C11.6,0.6,6.4,3.3,3.1,8l3.2,2.1c1,0.7,2.4,0.5,3.3-0.4c1.6-1.6,3.6-2.7,5.7-3.2c1.2-0.3,2-1.4,2-2.6
	L17,0.2z M27,26.3c-1.6,1.6-3.6,2.7-5.7,3.2c-1.2,0.3-2,1.4-2,2.6l0.2,3.7c5.8-0.4,10.9-3.5,13.9-7.8l-3.2-2.1
	C29.2,25.3,27.9,25.4,27,26.3z M9.6,26.3c1.6,1.6,3.6,2.7,5.7,3.2c1.2,0.3,2,1.4,2,2.6L17,35.8C11.2,35.4,6.2,32.4,3.1,28l3.2-2.1
	C7.3,25.3,8.7,25.4,9.6,26.3z M21.3,6.5C23.5,7,25.4,8.1,27,9.7c0.9,0.9,2.2,1,3.3,0.4L33.5,8c-3.3-4.7-8.5-7.4-14-7.8l-0.2,3.7
	C19.2,5.1,20.1,6.2,21.3,6.5z M6.6,14.8c-0.6,2.1-0.6,4.4,0,6.5c0.3,1.2-0.2,2.4-1.3,3L1.9,26c-2.5-5.1-2.3-10.9,0-15.7L5.3,12
	C6.4,12.4,6.9,13.6,6.6,14.8z M81,0.2C75.6,0.6,70.3,3.3,67.1,8l3.2,2.1c1,0.7,2.4,0.5,3.3-0.4c1.6-1.6,3.6-2.7,5.7-3.2
	c1.2-0.3,2-1.4,2-2.6L81,0.2z M91,26.3c-1.6,1.6-3.6,2.7-5.7,3.2c-1.2,0.3-2,1.4-2,2.6l0.2,3.7c5.8-0.4,10.9-3.5,13.9-7.8l-3.2-2.1
	C93.2,25.3,91.8,25.4,91,26.3z M73.5,26.3c1.6,1.6,3.6,2.7,5.7,3.2c1.2,0.3,2,1.4,2,2.6L81,35.8c-5.8-0.4-10.9-3.5-13.9-7.8l3.2-2.1
	C71.3,25.3,72.6,25.4,73.5,26.3z M85.2,6.5C87.4,7,89.4,8.1,91,9.7c0.9,0.9,2.2,1,3.3,0.4L97.4,8c-3.3-4.7-8.5-7.4-13.9-7.9
	l-0.2,3.7C83.2,5.1,84,6.2,85.2,6.5z M70.5,14.8c-0.6,2.1-0.6,4.4,0,6.5c0.3,1.2-0.2,2.4-1.3,3L65.8,26c-2.5-5.1-2.3-10.9,0-15.7
	l3.4,1.7C70.3,12.4,70.9,13.6,70.5,14.8z M93.4,14.9c0.6,2.1,0.6,4.4,0,6.5c-0.3,1.2,0.2,2.4,1.3,3l3.4,1.7c2.5-5.1,2.3-10.9,0-15.7
	L94.7,12C93.6,12.5,93.1,13.7,93.4,14.9z M51,27.4c1.5,1.4,3.5,2.4,5.6,2.9c1.2,0.3,2,1.2,1.9,2.3L58.3,36
	c-5.7-0.4-10.6-3.1-13.5-7.1l3.1-1.9C48.8,26.4,50.2,26.6,51,27.4z M46.5,25.6L43.6,27l-0.2-0.4c-1.3-2.3-1.9-4.9-2-7.5l-0.1-4.9
	h3.1c1.7,0,3.1,1.2,3.1,2.8v2.1c0,1.1,0.2,2.2,0.6,3.3C48.5,23.6,47.8,25,46.5,25.6z M47.4,2.9V9c0,1.6-1.3,2.9-3,2.9h-3.1V0h3.1
	C46,0,47.4,1.3,47.4,2.9z"/>
</svg>
