<svg width="120" height="107" viewBox="0 0 120 107" fill="none" xmlns="http://www.w3.org/2000/svg">
<path d="M0 76.2982H3.29754L6.9741 82.6279L10.6507 76.2982H13.9482V90.9665H10.8781V81.1497L6.9362 87.5174H6.89829L3.03222 81.1876V90.9665H0.0379036V76.2982H0Z" fill="#18181C"/>
<path d="M21.0738 76.2982H23.9165L29.9052 90.9665H26.6834L25.281 87.5174H19.6335L18.2311 90.9665H15.0852L21.0738 76.2982ZM24.1819 84.7884L22.4383 79.9747L20.6948 84.7884H24.1819Z" fill="#18181C"/>
<path d="M42.3374 76.2982H45.7107L49.3494 86.7593L52.9881 76.2982H56.2856L50.6381 90.9665H47.947L42.3374 76.2982Z" fill="#18181C"/>
<path d="M57.4984 76.2982H67.1256V79.0272H60.5306V82.0973H67.1256V84.8263H60.5306V88.2754H67.6184V91.0044H57.4604L57.4984 76.2982Z" fill="#18181C"/>
<path d="M69.9304 76.2982H73.0005V88.1996H79.9746V91.0044H69.9304V76.2982Z" fill="#18181C"/>
<path d="M79.8611 83.6513V83.6134C79.8611 79.5957 82.8933 76.2603 87.0626 76.2603C91.2319 76.2603 94.2262 79.5199 94.2262 83.5755V83.6134C94.2262 87.6311 91.194 90.9665 87.0247 90.9665C82.8554 90.9665 79.8611 87.7069 79.8611 83.6513ZM91.0803 83.6513V83.6134C91.0803 81.1876 89.3747 79.1409 86.9868 79.1409C84.5989 79.1409 82.9312 81.1118 82.9312 83.5755V83.6134C82.9312 86.0392 84.6368 88.0859 87.0247 88.0859C89.4505 88.0859 91.0803 86.0771 91.0803 83.6513Z" fill="#18181C"/>
<path d="M95.3254 84.7505V76.2603H98.3956V84.6747C98.3956 86.9488 99.5326 88.1238 101.39 88.1238C103.247 88.1238 104.384 86.9867 104.384 84.7884V76.2982H107.454V84.6747C107.454 88.9198 105.066 90.9665 101.314 90.9665C97.6375 90.9665 95.3254 88.8819 95.3254 84.7505Z" fill="#18181C"/>
<path d="M39.9875 84.561C41.4278 83.8408 42.4511 82.3626 42.4511 80.657C42.4511 78.2312 40.4802 76.2982 38.0923 76.2982H31.0803V90.9665H34.1504V84.7884H36.9552L39.8738 90.9665H43.2092L39.9875 84.561ZM37.3343 82.4763H34.2262V78.6102H37.3343C38.3955 78.6102 39.2673 79.482 39.2673 80.5433C39.2673 81.6045 38.3955 82.4763 37.3343 82.4763Z" fill="#18181C"/>
<path d="M115.452 82.1731C113.253 81.6045 112.419 81.0739 112.419 80.3538V80.3158C112.419 79.5578 113.14 79.0651 114.315 79.0651C115.831 79.0651 116.74 79.5957 118.105 80.4675L119.773 78.4207C118.181 77.0183 116.399 76.2982 114.39 76.2982C111.548 76.2982 109.349 77.9659 109.349 80.6191V80.657C109.349 82.969 111.282 84.1819 113.973 84.8642C116.361 85.4706 116.854 86.0013 116.854 86.7972V86.8351C116.854 87.669 116.058 88.1996 114.769 88.1996C113.14 88.1996 111.775 87.5174 110.486 86.4561L108.629 88.6923C110.335 90.2464 112.533 91.0044 114.731 91.0044C117.84 91.0044 120 89.4125 120 86.5698V86.5319C120 83.9545 118.37 82.8932 115.452 82.1731Z" fill="#18181C"/>
<path d="M24.7126 96.4624H28.5029C31.573 96.4624 33.6577 98.547 33.6577 101.314V101.352C33.6577 104.081 31.5351 106.203 28.5029 106.203H24.7126V96.4624ZM26.8352 98.3954V104.27H28.5029C30.2464 104.27 31.4214 103.095 31.4214 101.352C31.4214 99.6462 30.2464 98.4333 28.5029 98.4333L26.8352 98.3954Z" fill="#18181C"/>
<path d="M52.4573 96.4624H54.5798V106.203H52.4573V96.4624Z" fill="#18181C"/>
<path d="M56.0959 101.352C56.0959 98.6608 58.1806 96.4624 61.0233 96.4624C62.7289 96.4624 63.7523 96.9172 64.7378 97.7511L63.4112 99.343C62.691 98.7366 62.0467 98.3954 60.9475 98.3954C59.4314 98.3954 58.2564 99.722 58.2564 101.314V101.352C58.2564 103.057 59.4314 104.346 61.0991 104.346C61.8572 104.346 62.5394 104.157 63.07 103.778V102.413H60.9854V100.594H65.0789V104.687C64.0934 105.521 62.7668 106.165 61.0612 106.165C58.1427 106.203 56.0959 104.157 56.0959 101.352Z" fill="#18181C"/>
<path d="M66.595 96.4624H68.5659L73.1142 102.451V96.4624H75.2368V106.203H73.4175L68.7175 100.025V106.203H66.595V96.4624Z" fill="#18181C"/>
<path d="M35.1738 96.4624H41.5794V98.2817H37.2206V100.291H41.5794V102.11H37.2206V104.384H41.9205V106.203H35.2117L35.1738 96.4624Z" fill="#18181C"/>
<path d="M47.9469 100.366C46.4687 99.9874 45.9381 99.6462 45.9381 99.1535V99.1156C45.9381 98.6229 46.4308 98.2817 47.1889 98.2817C48.1744 98.2817 48.8187 98.6229 49.6905 99.2293L50.7897 97.8648C49.7284 96.9172 48.5534 96.4624 47.2268 96.4624C45.3317 96.4624 43.8914 97.5616 43.8914 99.3051V99.343C43.8914 100.859 45.18 101.693 46.9615 102.148C48.5534 102.565 48.8945 102.906 48.8945 103.436V103.474C48.8945 104.043 48.3639 104.384 47.53 104.384C46.4308 104.384 45.5591 103.929 44.6873 103.209L43.4365 104.687C44.5736 105.711 46.0518 106.203 47.4542 106.203C49.501 106.203 50.9413 105.142 50.9413 103.247V103.209C50.9413 101.541 49.88 100.859 47.9469 100.366Z" fill="#18181C"/>
<path d="M90.9287 101.958C91.8763 101.503 92.5585 100.518 92.5585 99.3809C92.5585 97.789 91.2698 96.5003 89.6779 96.5003H85.0159V106.241H87.0626V102.11H88.9198L90.8529 106.203H93.0512L90.9287 101.958ZM89.1852 100.556H87.1384V98.0164H89.1852C89.9053 98.0164 90.4739 98.585 90.4739 99.3051C90.4739 100.025 89.8674 100.556 89.1852 100.556Z" fill="#18181C"/>
<path d="M76.7529 96.4624H83.1585V98.2817H78.7997V100.291H83.1585V102.11H78.7997V104.384H83.4996V106.203H76.7908L76.7529 96.4624Z" fill="#18181C"/>
<g clip-path="url(#clip0_619_17103)">
<path d="M85.6859 13.4071L64.2244 1.04704C63.0121 0.349013 61.6574 0 60.3027 0C58.948 0 57.5933 0.349013 56.381 1.04704L34.9217 13.4071C32.4948 14.8055 31 17.3886 31 20.183V44.9033C31 47.6977 32.4948 50.2808 34.9217 51.6792L56.3832 64.0393C57.5956 64.7373 58.9503 65.0863 60.305 65.0863C61.6597 65.0863 63.0143 64.7373 64.2267 64.0393L85.6882 51.6792C88.1152 50.2808 89.6099 47.6977 89.6099 44.9033V20.183C89.6099 17.3886 88.1152 14.8055 85.6882 13.4071H85.6859ZM50.666 48.8962C50.666 49.3072 50.2205 49.5621 49.867 49.3532L40.476 43.8378C39.8905 43.4934 39.53 42.8643 39.53 42.1846V35.6429C39.53 35.2319 39.9754 34.9794 40.329 35.186L49.72 40.7013C50.3055 41.0457 50.666 41.6749 50.666 42.3545V48.8962ZM81.0754 42.1846C81.0754 42.8643 80.7149 43.4934 80.1294 43.8378L70.7384 49.3532C70.3848 49.5598 69.9393 49.3049 69.9393 48.8962V42.3545C69.9393 41.6749 70.2998 41.0457 70.8853 40.7013L80.2763 35.186C80.6299 34.9794 81.0754 35.2342 81.0754 35.6429V42.1846ZM81.0754 29.983C81.0754 30.6626 80.7149 31.2918 80.1294 31.6362L61.1224 42.8C60.6172 43.0962 59.9904 43.0962 59.483 42.8L40.476 31.6362C39.8905 31.2918 39.53 30.6626 39.53 29.983V21.5745C39.53 21.1658 39.9754 20.9109 40.329 21.1176L59.4623 32.3549C59.9812 32.6603 60.6264 32.6603 61.1453 32.3549L80.2786 21.1176C80.6322 20.9109 81.0777 21.1658 81.0777 21.5745V29.983H81.0754Z" fill="url(#paint0_linear_619_17103)"/>
</g>
<defs>
<linearGradient id="paint0_linear_619_17103" x1="42.2442" y1="14.4906" x2="94.2226" y2="66.4905" gradientUnits="userSpaceOnUse">
<stop/>
<stop offset="1" stop-opacity="0.7"/>
</linearGradient>
<clipPath id="clip0_619_17103">
<rect width="58.6" height="65.0843" fill="white" transform="translate(31)"/>
</clipPath>
</defs>
</svg>
