<svg width="200" height="56" viewBox="0 0 200 56" fill="none" xmlns="http://www.w3.org/2000/svg">
<path d="M46.3762 11.3709L28.1758 0.888017C27.1477 0.296006 25.9988 0 24.85 0C23.7012 0 22.5523 0.296006 21.5242 0.888017L3.3258 11.3709C1.26762 12.5569 0 14.7477 0 17.1177V38.0835C0 40.4535 1.26762 42.6443 3.3258 43.8303L21.5262 54.3132C22.5543 54.9052 23.7031 55.2012 24.8519 55.2012C26.0008 55.2012 27.1496 54.9052 28.1777 54.3132L46.3781 43.8303C48.4363 42.6443 49.7039 40.4535 49.7039 38.0835V17.1177C49.7039 14.7477 48.4363 12.5569 46.3781 11.3709H46.3762ZM16.6777 41.47C16.6777 41.8186 16.2999 42.0348 16 41.8576L8.03604 37.1799C7.53951 36.8878 7.2338 36.3542 7.2338 35.7778V30.2296C7.2338 29.881 7.61155 29.6668 7.91142 29.8421L15.8754 34.5197C16.3719 34.8118 16.6777 35.3454 16.6777 35.9219V41.47ZM42.4662 35.7778C42.4662 36.3542 42.1605 36.8878 41.664 37.1799L33.7 41.8576C33.4001 42.0328 33.0223 41.8167 33.0223 41.47V35.9219C33.0223 35.3454 33.3281 34.8118 33.8246 34.5197L41.7886 29.8421C42.0884 29.6668 42.4662 29.8829 42.4662 30.2296V35.7778ZM42.4662 25.4292C42.4662 26.0057 42.1605 26.5393 41.664 26.8314L25.5451 36.2997C25.1168 36.5509 24.5852 36.5509 24.1549 36.2997L8.03604 26.8314C7.53951 26.5393 7.2338 26.0057 7.2338 25.4292V18.2978C7.2338 17.9512 7.61155 17.735 7.91142 17.9103L24.1373 27.4409C24.5774 27.6999 25.1246 27.6999 25.5646 27.4409L41.7905 17.9103C42.0904 17.735 42.4682 17.9512 42.4682 18.2978V25.4292H42.4662Z" fill="url(#paint0_linear_619_17356)"/>
<path d="M59.9756 10.6699H63.8386L68.1216 18.0149L72.3984 10.6699H76.2614V27.7176H72.7016V16.2987L68.1153 23.707H68.0237L63.4911 16.3651V27.7176H59.9756V10.6699Z" fill="white"/>
<path d="M88.2104 20.5623L86.1794 14.9555L84.1484 20.5623H88.2072H88.2104ZM84.578 10.673H87.8787L94.8592 27.7208H91.11L89.4706 23.7101H82.8944L81.2551 27.7208H77.6006L84.578 10.673Z" fill="white"/>
<path d="M109.386 10.6699H113.34L117.598 22.8094L121.853 10.6699H125.716L119.133 27.7176H115.971L109.386 10.6699Z" fill="white"/>
<path d="M127.049 10.6699H138.303V13.843H130.605V17.3891H138.284V20.5623H130.605V24.5508H138.884V27.724H127.045V10.6699H127.049Z" fill="white"/>
<path d="M141.559 10.6699H145.141V24.4781H153.259V27.7176H141.559V10.6699Z" fill="white"/>
<path d="M166.253 19.2349V19.1875C166.253 16.362 164.276 14.0105 161.484 14.0105C158.692 14.0105 156.758 16.3209 156.758 19.1432V19.1906C156.758 22.0161 158.736 24.3739 161.528 24.3739C164.32 24.3739 166.253 22.0635 166.253 19.238V19.2349ZM153.142 19.2349V19.1875C153.142 14.5004 156.673 10.6604 161.531 10.6604C166.389 10.6604 169.873 14.453 169.873 19.14V19.1875C169.873 23.8745 166.342 27.7145 161.484 27.7145C156.626 27.7145 153.142 23.9219 153.142 19.2349Z" fill="white"/>
<path d="M171.209 20.5212V10.673H174.791V20.4295C174.791 23.0717 176.115 24.4339 178.307 24.4339C180.499 24.4339 181.822 23.116 181.822 20.5433V10.673H185.404V20.4042C185.404 25.3125 182.637 27.7208 178.262 27.7208C173.888 27.7208 171.212 25.2872 171.212 20.518V20.5243L171.209 20.5212Z" fill="white"/>
<path d="M103.523 17.8537H99.9004V13.3721H103.523C104.765 13.3721 105.775 14.374 105.775 15.6161C105.775 16.8581 104.768 17.86 103.523 17.86V17.8537ZM106.628 20.2778C108.315 19.4498 109.49 17.7399 109.49 15.7393C109.484 12.9391 107.206 10.6699 104.392 10.6699H96.1953V27.7176H99.7772V20.5559H103.043L106.464 27.7176H110.352L106.631 20.2778H106.628Z" fill="white"/>
<path d="M194.678 17.4934C192.097 16.836 191.153 16.2324 191.153 15.3759V15.3348C191.153 14.4372 191.99 13.8873 193.379 13.8873C195.145 13.8873 196.219 14.4878 197.798 15.5244L199.741 13.1414C197.893 11.4979 195.786 10.6604 193.449 10.6604C190.123 10.6604 187.574 12.6073 187.574 15.6572V15.6983C187.574 18.3752 189.832 19.7848 192.962 20.597C195.761 21.3113 196.336 21.915 196.336 22.8442V22.8916C196.336 23.8682 195.426 24.4623 193.916 24.4623C192.002 24.4623 190.423 23.6754 188.916 22.4365L186.74 25.0312C188.749 26.8201 191.307 27.6987 193.847 27.6987C197.46 27.6987 199.997 25.8435 199.997 22.5313V22.4839C199.997 19.5794 198.083 18.3657 194.687 17.4808L194.678 17.4903V17.4934Z" fill="white"/>
<path d="M62.5088 35.5336V42.4772H64.4671C66.5392 42.4772 67.9353 41.0771 67.9353 39.0386V39.007C67.9353 36.9685 66.536 35.5367 64.4671 35.5367H62.5088V35.5304V35.5336ZM59.9788 33.2485H64.4671C68.0869 33.2485 70.5822 35.7327 70.5822 38.9722V39.0038C70.5822 42.2465 68.0838 44.7654 64.4671 44.7654H59.9788V33.2517V33.2485Z" fill="white"/>
<path d="M95.3521 33.2485H92.822V44.7623H95.3521V33.2485Z" fill="white"/>
<path d="M97.1208 39.0291V38.9975C97.1208 35.8275 99.5877 33.2264 102.967 33.2264C104.973 33.2264 106.183 33.77 107.345 34.7593L105.798 36.624C104.938 35.9066 104.171 35.4925 102.882 35.4925C101.098 35.4925 99.6825 37.0665 99.6825 38.9691V39.0007C99.6825 41.0392 101.082 42.5373 103.062 42.5373C103.953 42.5373 104.752 42.3161 105.371 41.8673V40.2712H102.904V38.1505H107.746V42.9956C106.6 43.969 105.021 44.7655 102.983 44.7655C99.5088 44.7655 97.1208 42.3287 97.1208 39.026V39.0323V39.0291Z" fill="white"/>
<path d="M109.534 33.2485H111.872L117.263 40.3407V33.2485H119.765V44.7654H117.611L112.039 37.4457V44.7654H109.54V33.2485H109.534Z" fill="white"/>
<path d="M72.373 33.2485H79.9347V35.3914H74.7641V37.787H79.919V39.9299H74.7641V42.6258H80.3233V44.7686H72.3699V33.2549L72.373 33.2485Z" fill="white"/>
<path d="M87.4555 37.8629C85.7246 37.4205 85.0865 37.0096 85.0865 36.4312V36.3996C85.0865 35.7928 85.6487 35.4199 86.5805 35.4199C87.765 35.4199 88.4915 35.8244 89.5496 36.526L90.8541 34.9205C89.6128 33.808 88.1978 33.2454 86.6279 33.2454C84.3916 33.2454 82.6828 34.5602 82.6828 36.6208V36.6525C82.6828 38.4571 84.199 39.4179 86.3026 39.9647C88.182 40.4482 88.5705 40.8559 88.5705 41.4817V41.5133C88.5705 42.1707 87.9609 42.5784 86.9438 42.5784C85.6614 42.5784 84.5969 42.0474 83.5799 41.2099L82.1174 42.964C83.4693 44.1681 85.1908 44.7655 86.8901 44.7655C89.3159 44.7655 91.0216 43.5139 91.0216 41.2763V41.2447C91.0216 39.282 89.7392 38.4603 87.4555 37.8629Z" fill="white"/>
<path d="M136.227 38.1H133.795V35.0722H136.227C137.065 35.0722 137.737 35.7517 137.737 36.5829C137.737 37.4141 137.058 38.0936 136.227 38.0936V38.1ZM138.312 39.7371C139.443 39.1777 140.233 38.0209 140.233 36.6714C140.233 34.7814 138.701 33.2422 136.805 33.2422H131.297V44.756H133.701V39.9172H135.896L138.195 44.756H140.804L138.306 39.7276L138.312 39.7339V39.7371Z" fill="white"/>
<path d="M121.553 33.2485H129.114V35.3914H123.941V37.787H129.099V39.9299H123.941V42.6258H129.503V44.7686H121.546V33.2549L121.553 33.2485Z" fill="white"/>
<defs>
<linearGradient id="paint0_linear_619_17356" x1="24.3413" y1="27.0684" x2="53.6231" y2="56.3846" gradientUnits="userSpaceOnUse">
<stop stop-color="white"/>
<stop offset="1" stop-color="white" stop-opacity="0.7"/>
</linearGradient>
</defs>
</svg>
