<svg width="120" height="107" viewBox="0 0 120 107" fill="none" xmlns="http://www.w3.org/2000/svg">
<path d="M0 76.2982H3.29754L6.9741 82.6279L10.6507 76.2982H13.9482V90.9665H10.8781V81.1497L6.9362 87.5174H6.89829L3.03222 81.1876V90.9665H0.0379036V76.2982H0Z" fill="#18181C"/>
<path d="M21.0738 76.2982H23.9165L29.9052 90.9665H26.6834L25.281 87.5174H19.6335L18.2311 90.9665H15.0852L21.0738 76.2982ZM24.1819 84.7884L22.4383 79.9747L20.6948 84.7884H24.1819Z" fill="#18181C"/>
<path d="M42.3374 76.2982H45.7107L49.3494 86.7593L52.9881 76.2982H56.2856L50.6381 90.9665H47.947L42.3374 76.2982Z" fill="#18181C"/>
<path d="M57.4984 76.2982H67.1256V79.0272H60.5306V82.0973H67.1256V84.8263H60.5306V88.2754H67.6184V91.0044H57.4604L57.4984 76.2982Z" fill="#18181C"/>
<path d="M69.9304 76.2982H73.0005V88.1996H79.9746V91.0044H69.9304V76.2982Z" fill="#18181C"/>
<path d="M79.8611 83.6513V83.6134C79.8611 79.5957 82.8933 76.2603 87.0626 76.2603C91.2319 76.2603 94.2262 79.5199 94.2262 83.5755V83.6134C94.2262 87.6311 91.194 90.9665 87.0247 90.9665C82.8554 90.9665 79.8611 87.7069 79.8611 83.6513ZM91.0803 83.6513V83.6134C91.0803 81.1876 89.3747 79.1409 86.9868 79.1409C84.5989 79.1409 82.9312 81.1118 82.9312 83.5755V83.6134C82.9312 86.0392 84.6368 88.0859 87.0247 88.0859C89.4505 88.0859 91.0803 86.0771 91.0803 83.6513Z" fill="#18181C"/>
<path d="M95.3254 84.7505V76.2603H98.3956V84.6747C98.3956 86.9488 99.5326 88.1238 101.39 88.1238C103.247 88.1238 104.384 86.9867 104.384 84.7884V76.2982H107.454V84.6747C107.454 88.9198 105.066 90.9665 101.314 90.9665C97.6375 90.9665 95.3254 88.8819 95.3254 84.7505Z" fill="#18181C"/>
<path d="M39.9875 84.561C41.4278 83.8408 42.4511 82.3626 42.4511 80.657C42.4511 78.2312 40.4802 76.2982 38.0923 76.2982H31.0803V90.9665H34.1504V84.7884H36.9552L39.8738 90.9665H43.2092L39.9875 84.561ZM37.3343 82.4763H34.2262V78.6102H37.3343C38.3955 78.6102 39.2673 79.482 39.2673 80.5433C39.2673 81.6045 38.3955 82.4763 37.3343 82.4763Z" fill="#18181C"/>
<path d="M115.452 82.1731C113.253 81.6045 112.419 81.0739 112.419 80.3538V80.3158C112.419 79.5578 113.14 79.0651 114.315 79.0651C115.831 79.0651 116.74 79.5957 118.105 80.4675L119.773 78.4207C118.181 77.0183 116.399 76.2982 114.39 76.2982C111.548 76.2982 109.349 77.9659 109.349 80.6191V80.657C109.349 82.969 111.282 84.1819 113.973 84.8642C116.361 85.4706 116.854 86.0013 116.854 86.7972V86.8351C116.854 87.669 116.058 88.1996 114.769 88.1996C113.14 88.1996 111.775 87.5174 110.486 86.4561L108.629 88.6923C110.335 90.2464 112.533 91.0044 114.731 91.0044C117.84 91.0044 120 89.4125 120 86.5698V86.5319C120 83.9545 118.37 82.8932 115.452 82.1731Z" fill="#18181C"/>
<path d="M24.7126 96.4624H28.5029C31.573 96.4624 33.6577 98.547 33.6577 101.314V101.352C33.6577 104.081 31.5351 106.203 28.5029 106.203H24.7126V96.4624ZM26.8352 98.3954V104.27H28.5029C30.2464 104.27 31.4214 103.095 31.4214 101.352C31.4214 99.6462 30.2464 98.4333 28.5029 98.4333L26.8352 98.3954Z" fill="#18181C"/>
<path d="M52.4573 96.4624H54.5798V106.203H52.4573V96.4624Z" fill="#18181C"/>
<path d="M56.0959 101.352C56.0959 98.6608 58.1806 96.4624 61.0233 96.4624C62.7289 96.4624 63.7523 96.9172 64.7378 97.7511L63.4112 99.343C62.691 98.7366 62.0467 98.3954 60.9475 98.3954C59.4314 98.3954 58.2564 99.722 58.2564 101.314V101.352C58.2564 103.057 59.4314 104.346 61.0991 104.346C61.8572 104.346 62.5394 104.157 63.07 103.778V102.413H60.9854V100.594H65.0789V104.687C64.0934 105.521 62.7668 106.165 61.0612 106.165C58.1427 106.203 56.0959 104.157 56.0959 101.352Z" fill="#18181C"/>
<path d="M66.595 96.4624H68.5659L73.1142 102.451V96.4624H75.2368V106.203H73.4175L68.7175 100.025V106.203H66.595V96.4624Z" fill="#18181C"/>
<path d="M35.1738 96.4624H41.5794V98.2817H37.2206V100.291H41.5794V102.11H37.2206V104.384H41.9205V106.203H35.2117L35.1738 96.4624Z" fill="#18181C"/>
<path d="M47.9469 100.366C46.4687 99.9874 45.9381 99.6462 45.9381 99.1535V99.1156C45.9381 98.6229 46.4308 98.2817 47.1889 98.2817C48.1744 98.2817 48.8187 98.6229 49.6905 99.2293L50.7897 97.8648C49.7284 96.9172 48.5534 96.4624 47.2268 96.4624C45.3317 96.4624 43.8914 97.5616 43.8914 99.3051V99.343C43.8914 100.859 45.18 101.693 46.9615 102.148C48.5534 102.565 48.8945 102.906 48.8945 103.436V103.474C48.8945 104.043 48.3639 104.384 47.53 104.384C46.4308 104.384 45.5591 103.929 44.6873 103.209L43.4365 104.687C44.5736 105.711 46.0518 106.203 47.4542 106.203C49.501 106.203 50.9413 105.142 50.9413 103.247V103.209C50.9413 101.541 49.88 100.859 47.9469 100.366Z" fill="#18181C"/>
<path d="M90.9287 101.958C91.8763 101.503 92.5585 100.518 92.5585 99.3809C92.5585 97.789 91.2698 96.5003 89.6779 96.5003H85.0159V106.241H87.0626V102.11H88.9198L90.8529 106.203H93.0512L90.9287 101.958ZM89.1852 100.556H87.1384V98.0164H89.1852C89.9053 98.0164 90.4739 98.585 90.4739 99.3051C90.4739 100.025 89.8674 100.556 89.1852 100.556Z" fill="#18181C"/>
<path d="M76.7529 96.4624H83.1585V98.2817H78.7997V100.291H83.1585V102.11H78.7997V104.384H83.4996V106.203H76.7908L76.7529 96.4624Z" fill="#18181C"/>
<path d="M80.1211 31.6339L61.1173 42.7969C60.6122 43.0931 59.9855 43.0931 59.4781 42.7969L40.4743 31.6339C39.8889 31.2895 39.5285 30.6604 39.5285 29.9808V21.5729C39.5285 21.162 39.9739 20.9071 40.3274 21.1161C39.7237 20.7648 38.096 19.6489 36.1332 19.6489C33.298 19.6489 31 21.9472 31 24.7827V44.9C31 47.6942 32.4945 50.2772 34.9211 51.6754L56.3789 64.0347C57.5911 64.7326 58.9455 65.0816 60.3 65.0816C61.6545 65.0816 63.0089 64.7326 64.2211 64.0347L85.6789 51.6754C88.1055 50.2772 89.6 47.6942 89.6 44.9V20.1816C89.6 27.3221 84.2717 29.1359 80.1257 31.6339H80.1211ZM50.6627 48.8927C50.6627 49.3037 50.2173 49.5586 49.8638 49.3496L40.4743 43.8347C39.8889 43.4903 39.5285 42.8612 39.5285 42.1816V35.6404C39.5285 35.2294 39.9739 34.9768 40.3274 35.1835L49.7168 40.6984C50.3022 41.0428 50.6627 41.6719 50.6627 42.3515V48.8927ZM81.0669 42.1816C81.0669 42.8612 80.7065 43.4903 80.1211 43.8347L70.7317 49.3496C70.3781 49.5563 69.9328 49.3014 69.9328 48.8927V42.3515C69.9328 41.6719 70.2932 41.0428 70.8786 40.6984L80.268 35.1835C80.6215 34.9768 81.0669 35.2317 81.0669 35.6404V42.1816Z" fill="url(#paint0_linear_511_517)"/>
<path d="M40.3274 21.1184L59.4575 32.3548C59.9763 32.6602 60.6214 32.6602 61.1402 32.3548L80.2703 21.1184C80.6238 20.9117 81.0692 21.1666 81.0692 21.5753V29.9831C81.0692 30.6627 80.7088 31.2918 80.1234 31.6362C84.2694 29.1382 89.5977 27.3244 89.5977 20.1839C89.5977 17.3897 88.1032 14.8067 85.6766 13.4085L64.2188 1.04696C63.0066 0.348988 61.6522 0 60.2977 0C58.9432 0 57.5888 0.348988 56.3767 1.04696L34.9211 13.4062C32.4945 14.8044 31 17.3874 31 20.1816V24.7827C31 21.9472 33.298 19.6512 36.1309 19.6512C38.0937 19.6512 39.7237 20.7671 40.3251 21.1184L59.4552 32.3548" fill="url(#paint1_linear_511_517)"/>
<path d="M40.3274 21.1184L59.4575 32.3548C59.9763 32.6602 60.6214 32.6602 61.1402 32.3548L80.2703 21.1184C80.6238 20.9117 81.0692 21.1666 81.0692 21.5753V29.9831C81.0692 30.6627 80.7088 31.2918 80.1234 31.6362C84.2694 29.1382 89.5977 27.3244 89.5977 20.1839C89.5977 17.3897 88.1032 14.8067 85.6766 13.4085L64.2188 1.04696C63.0066 0.348988 61.6522 0 60.2977 0C58.9432 0 57.5888 0.348988 56.3767 1.04696L34.9211 13.4062C32.4945 14.8044 31 17.3874 31 20.1816V24.7827C31 21.9472 33.298 19.6512 36.1309 19.6512C38.0937 19.6512 39.7237 20.7671 40.3251 21.1184L59.4552 32.3548" fill="url(#paint2_linear_511_517)"/>
<path d="M40.3274 21.1184L59.4575 32.3548C59.9763 32.6602 60.6214 32.6602 61.1402 32.3548L80.2703 21.1184C80.6238 20.9117 81.0692 21.1666 81.0692 21.5753V29.9831C81.0692 30.6627 80.7088 31.2918 80.1234 31.6362C84.2694 29.1382 89.5977 27.3244 89.5977 20.1839C89.5977 17.3897 88.1032 14.8067 85.6766 13.4085L64.2188 1.04696C63.0066 0.348988 61.6522 0 60.2977 0C58.9432 0 57.5888 0.348988 56.3767 1.04696L34.9211 13.4062C32.4945 14.8044 31 17.3874 31 20.1816V24.7827C31 21.9472 33.298 19.6512 36.1309 19.6512C38.0937 19.6512 39.7237 20.7671 40.3251 21.1184L59.4552 32.3548" fill="url(#paint3_linear_511_517)"/>
<defs>
<linearGradient id="paint0_linear_511_517" x1="31" y1="42.3653" x2="89.5954" y2="42.3653" gradientUnits="userSpaceOnUse">
<stop stop-color="#EA4C08"/>
<stop offset="0.5" stop-color="#EFA218"/>
<stop offset="1" stop-color="#F0B118"/>
</linearGradient>
<linearGradient id="paint1_linear_511_517" x1="46.2687" y1="10.9128" x2="82.8511" y2="35.6685" gradientUnits="userSpaceOnUse">
<stop stop-color="#EFA218"/>
<stop offset="0.98" stop-color="#EB7618"/>
<stop offset="0.99" stop-color="#EE9518"/>
<stop offset="1" stop-color="#F0B018"/>
</linearGradient>
<linearGradient id="paint2_linear_511_517" x1="54.9923" y1="30.3252" x2="60.092" y2="20.9903" gradientUnits="userSpaceOnUse">
<stop stop-color="white" stop-opacity="0.3"/>
<stop offset="0.28" stop-color="white" stop-opacity="0"/>
</linearGradient>
<linearGradient id="paint3_linear_511_517" x1="37.9238" y1="16.2922" x2="88.971" y2="16.2922" gradientUnits="userSpaceOnUse">
<stop stop-color="#F0B118" stop-opacity="0"/>
<stop offset="0.19" stop-color="#EC7818" stop-opacity="0.42"/>
<stop offset="0.21" stop-color="#EB7418" stop-opacity="0.45"/>
<stop offset="0.38" stop-color="#E65A18" stop-opacity="0.65"/>
<stop offset="1" stop-color="#DD2B19"/>
</linearGradient>
</defs>
</svg>
