<svg width="120" height="107" viewBox="0 0 120 107" fill="none" xmlns="http://www.w3.org/2000/svg">
<path d="M0 76.2982H3.29754L6.9741 82.628L10.6507 76.2982H13.9482V90.9666H10.8781V81.1498L6.9362 87.5174H6.89829L3.03222 81.1877V90.9666H0.0379036V76.2982H0Z" fill="#18181C"/>
<path d="M21.0739 76.2982H23.9166L29.9053 90.9666H26.6835L25.2811 87.5174H19.6336L18.2312 90.9666H15.0853L21.0739 76.2982ZM24.1819 84.7884L22.4384 79.9748L20.6949 84.7884H24.1819Z" fill="#18181C"/>
<path d="M42.3373 76.2982H45.7107L49.3493 86.7594L52.988 76.2982H56.2855L50.638 90.9666H47.9469L42.3373 76.2982Z" fill="#18181C"/>
<path d="M57.4985 76.2982H67.1257V79.0272H60.5307V82.0973H67.1257V84.8263H60.5307V88.2755H67.6185V91.0045H57.4606L57.4985 76.2982Z" fill="#18181C"/>
<path d="M69.9305 76.2982H73.0006V88.1997H79.9747V91.0045H69.9305V76.2982Z" fill="#18181C"/>
<path d="M79.861 83.6513V83.6134C79.861 79.5957 82.8932 76.2603 87.0625 76.2603C91.2318 76.2603 94.2261 79.5199 94.2261 83.5755V83.6134C94.2261 87.6311 91.1939 90.9665 87.0246 90.9665C82.8553 90.9665 79.861 87.7069 79.861 83.6513ZM91.0802 83.6513V83.6134C91.0802 81.1876 89.3746 79.1409 86.9867 79.1409C84.5988 79.1409 82.9311 81.1118 82.9311 83.5755V83.6134C82.9311 86.0392 84.6367 88.0859 87.0246 88.0859C89.4504 88.0859 91.0802 86.0771 91.0802 83.6513Z" fill="#18181C"/>
<path d="M95.3253 84.7505V76.2603H98.3955V84.6747C98.3955 86.9488 99.5325 88.1238 101.39 88.1238C103.247 88.1238 104.384 86.9867 104.384 84.7884V76.2982H107.454V84.6747C107.454 88.9198 105.066 90.9665 101.314 90.9665C97.6374 90.9665 95.3253 88.8819 95.3253 84.7505Z" fill="#18181C"/>
<path d="M39.9874 84.561C41.4277 83.8409 42.451 82.3627 42.451 80.657C42.451 78.2313 40.4801 76.2982 38.0922 76.2982H31.0802V90.9666H34.1503V84.7884H36.9552L39.8737 90.9666H43.2091L39.9874 84.561ZM37.3342 82.4764H34.2262V78.6103H37.3342C38.3955 78.6103 39.2672 79.4821 39.2672 80.5433C39.2672 81.6046 38.3955 82.4764 37.3342 82.4764Z" fill="#18181C"/>
<path d="M115.452 82.1731C113.253 81.6046 112.419 81.074 112.419 80.3538V80.3159C112.419 79.5579 113.14 79.0651 114.315 79.0651C115.831 79.0651 116.74 79.5958 118.105 80.4675L119.773 78.4208C118.181 77.0184 116.399 76.2982 114.39 76.2982C111.548 76.2982 109.349 77.9659 109.349 80.6191V80.657C109.349 82.9691 111.282 84.182 113.973 84.8642C116.361 85.4707 116.854 86.0013 116.854 86.7973V86.8352C116.854 87.669 116.058 88.1997 114.769 88.1997C113.14 88.1997 111.775 87.5174 110.486 86.4562L108.629 88.6924C110.335 90.2464 112.533 91.0045 114.732 91.0045C117.84 91.0045 120 89.4126 120 86.5699V86.532C120 83.9546 118.37 82.8933 115.452 82.1731Z" fill="#18181C"/>
<path d="M24.7126 96.4624H28.5028C31.5729 96.4624 33.6576 98.547 33.6576 101.314V101.352C33.6576 104.081 31.535 106.203 28.5028 106.203H24.7126V96.4624ZM26.8351 98.3954V104.27H28.5028C30.2464 104.27 31.4213 103.095 31.4213 101.352C31.4213 99.6462 30.2464 98.4333 28.5028 98.4333L26.8351 98.3954Z" fill="#18181C"/>
<path d="M52.4573 96.4624H54.5799V106.203H52.4573V96.4624Z" fill="#18181C"/>
<path d="M56.096 101.352C56.096 98.6608 58.1807 96.4624 61.0234 96.4624C62.729 96.4624 63.7524 96.9172 64.7378 97.7511L63.4112 99.343C62.6911 98.7366 62.0468 98.3954 60.9476 98.3954C59.4315 98.3954 58.2565 99.722 58.2565 101.314V101.352C58.2565 103.057 59.4315 104.346 61.0992 104.346C61.8572 104.346 62.5395 104.157 63.0701 103.778V102.413H60.9855V100.594H65.079V104.687C64.0935 105.521 62.7669 106.165 61.0613 106.165C58.1428 106.203 56.096 104.157 56.096 101.352Z" fill="#18181C"/>
<path d="M66.5951 96.4624H68.566L73.1143 102.451V96.4624H75.2369V106.203H73.4176L68.7176 100.025V106.203H66.5951V96.4624Z" fill="#18181C"/>
<path d="M35.1737 96.4624H41.5793V98.2817H37.2205V100.291H41.5793V102.11H37.2205V104.384H41.9204V106.203H35.2116L35.1737 96.4624Z" fill="#18181C"/>
<path d="M47.947 100.366C46.4688 99.9874 45.9381 99.6462 45.9381 99.1535V99.1156C45.9381 98.6229 46.4309 98.2817 47.1889 98.2817C48.1744 98.2817 48.8187 98.6229 49.6905 99.2293L50.7897 97.8648C49.7284 96.9172 48.5534 96.4624 47.2268 96.4624C45.3317 96.4624 43.8914 97.5616 43.8914 99.3051V99.343C43.8914 100.859 45.1801 101.693 46.9615 102.148C48.5534 102.565 48.8945 102.906 48.8945 103.436V103.474C48.8945 104.043 48.3639 104.384 47.53 104.384C46.4309 104.384 45.5591 103.929 44.6873 103.209L43.4366 104.687C44.5736 105.711 46.0518 106.203 47.4542 106.203C49.501 106.203 50.9413 105.142 50.9413 103.247V103.209C50.9413 101.541 49.88 100.859 47.947 100.366Z" fill="#18181C"/>
<path d="M90.9286 101.958C91.8762 101.504 92.5584 100.518 92.5584 99.381C92.5584 97.789 91.2698 96.5004 89.6778 96.5004H85.0158V106.241H87.0626V102.11H88.9198L90.8528 106.203H93.0512L90.9286 101.958ZM89.1851 100.556H87.1384V98.0165H89.1851C89.9053 98.0165 90.4738 98.585 90.4738 99.3052C90.4738 100.025 89.8674 100.556 89.1851 100.556Z" fill="#18181C"/>
<path d="M76.753 96.4624H83.1586V98.2817H78.7997V100.291H83.1586V102.11H78.7997V104.384H83.4997V106.203H76.7909L76.753 96.4624Z" fill="#18181C"/>
<path d="M80.521 31.4983L61.5172 42.6134C61.0121 42.9083 60.3854 42.9083 59.878 42.6134L40.8742 31.4983C40.2888 31.1554 39.9284 30.529 39.9284 29.8523L39.9284 21.4805C39.9284 21.0713 40.3738 20.8175 40.7273 21.0255C40.1236 20.6758 38.4959 19.5647 36.5331 19.5647C33.6979 19.5647 31.3999 21.8531 31.3999 24.6765L31.3999 44.7075C31.3999 47.4897 32.8944 50.0616 35.321 51.4539L56.7788 63.7601C57.991 64.4551 59.3454 64.8025 60.6999 64.8025C62.0544 64.8025 63.4088 64.4551 64.621 63.7601L86.0788 51.4539C88.5054 50.0616 89.9999 47.4897 89.9999 44.7075L89.9999 20.0951C89.9999 27.2049 84.6716 29.011 80.5256 31.4983L80.521 31.4983ZM51.0626 48.6831C51.0626 49.0923 50.6172 49.3461 50.2637 49.138L40.8742 43.6467C40.2888 43.3038 39.9284 42.6774 39.9284 42.0007L39.9284 35.4876C39.9284 35.0783 40.3738 34.8269 40.7273 35.0326L50.1167 40.5239C50.7021 40.8668 51.0626 41.4932 51.0626 42.1699L51.0626 48.6831ZM81.4668 42.0007C81.4668 42.6774 81.1064 43.3038 80.521 43.6467L71.1316 49.138C70.778 49.3438 70.3327 49.09 70.3327 48.6831L70.3327 42.1699C70.3327 41.4932 70.6931 40.8668 71.2785 40.5239L80.6679 35.0326C81.0214 34.8269 81.4668 35.0806 81.4668 35.4876L81.4668 42.0007Z" fill="url(#paint0_linear_619_17010)"/>
<path d="M40.7273 21.0278L59.8574 32.2161C60.3762 32.5201 61.0213 32.5201 61.5401 32.2161L80.6702 21.0278C81.0237 20.822 81.4691 21.0758 81.4691 21.4827L81.4691 29.8545C81.4691 30.5312 81.1087 31.1576 80.5233 31.5005C84.6693 29.0132 89.9976 27.2072 89.9976 20.0973C89.9976 17.3151 88.5031 14.7432 86.0765 13.351L64.6187 1.04248C63.4065 0.347494 62.0521 2.6797e-06 60.6976 2.56129e-06C59.3431 2.44288e-06 57.9887 0.347493 56.7766 1.04248L35.321 13.3487C32.8944 14.7409 31.3999 17.3128 31.3999 20.095L31.3999 24.6764C31.3999 21.8531 33.6979 19.5669 36.5308 19.5669C38.4936 19.5669 40.1236 20.678 40.725 21.0278L59.8551 32.2161" fill="url(#paint1_linear_619_17010)"/>
<defs>
<linearGradient id="paint0_linear_619_17010" x1="44.4176" y1="29.1952" x2="35.1694" y2="19.8779" gradientUnits="userSpaceOnUse">
<stop/>
<stop offset="1" stop-opacity="0.3"/>
</linearGradient>
<linearGradient id="paint1_linear_619_17010" x1="85.1145" y1="18.8077" x2="88.6419" y2="26.1242" gradientUnits="userSpaceOnUse">
<stop/>
<stop offset="1" stop-opacity="0.3"/>
</linearGradient>
</defs>
</svg>
