<svg width="200" height="56" viewBox="0 0 200 56" fill="none" xmlns="http://www.w3.org/2000/svg">
<g clip-path="url(#clip0_619_17296)">
<path d="M41.9607 26.6523L25.8432 36.0574C25.4148 36.307 24.8833 36.307 24.453 36.0574L8.33546 26.6523C7.83897 26.3622 7.53328 25.8321 7.53328 25.2595V18.1757C7.53328 17.8295 7.91101 17.6147 8.21085 17.7908C7.69878 17.4948 6.31833 16.5547 4.65362 16.5547C2.24903 16.5547 0.300049 18.491 0.300049 20.88V37.8294C0.300049 40.1835 1.56757 42.3598 3.62558 43.5378L21.8245 53.9508C22.8525 54.5388 24.0013 54.8329 25.15 54.8329C26.2988 54.8329 27.4476 54.5388 28.4756 53.9508L46.6745 43.5378C48.7325 42.3598 50 40.1835 50 37.8294V17.0035C50 23.0195 45.481 24.5477 41.9646 26.6523H41.9607ZM16.9764 41.1933C16.9764 41.5396 16.5987 41.7543 16.2988 41.5783L8.33546 36.9318C7.83897 36.6416 7.53328 36.1116 7.53328 35.539V30.0279C7.53328 29.6816 7.91101 29.4688 8.21085 29.6429L16.1742 34.2894C16.6707 34.5796 16.9764 35.1096 16.9764 35.6822V41.1933ZM42.7629 35.539C42.7629 36.1116 42.4572 36.6416 41.9607 36.9318L33.9974 41.5783C33.6975 41.7524 33.3198 41.5376 33.3198 41.1933V35.6822C33.3198 35.1096 33.6255 34.5796 34.122 34.2894L42.0854 29.6429C42.3852 29.4688 42.7629 29.6836 42.7629 30.0279V35.539Z" fill="url(#paint0_linear_619_17296)"/>
<path d="M8.21085 17.7927L24.4355 27.2598C24.8755 27.517 25.4226 27.517 25.8627 27.2598L42.0873 17.7927C42.3871 17.6186 42.7649 17.8334 42.7649 18.1777V25.2615C42.7649 25.8341 42.4592 26.3641 41.9627 26.6543C45.479 24.5496 49.9981 23.0215 49.9981 17.0054C49.9981 14.6513 48.7306 12.475 46.6726 11.297L28.4736 0.882093C27.4456 0.294031 26.2969 0 25.1481 0C23.9994 0 22.8506 0.294031 21.8226 0.882093L3.62558 11.295C1.56757 12.4731 0.300049 14.6493 0.300049 17.0035V20.8801C0.300049 18.4911 2.24903 16.5566 4.65167 16.5566C6.31638 16.5566 7.69878 17.4968 8.2089 17.7927L24.4335 27.2598" fill="url(#paint1_linear_619_17296)"/>
</g>
<path d="M59.9756 10.6699H63.8386L68.1216 18.0149L72.3984 10.6699H76.2614V27.7176H72.7016V16.2987L68.1153 23.707H68.0237L63.4911 16.3651V27.7176H59.9756V10.6699Z" fill="white"/>
<path d="M88.2104 20.5623L86.1794 14.9555L84.1484 20.5623H88.2072H88.2104ZM84.578 10.673H87.8787L94.8592 27.7208H91.11L89.4706 23.7101H82.8944L81.2551 27.7208H77.6006L84.578 10.673Z" fill="white"/>
<path d="M109.386 10.6699H113.34L117.598 22.8094L121.853 10.6699H125.716L119.133 27.7176H115.971L109.386 10.6699Z" fill="white"/>
<path d="M127.049 10.6699H138.303V13.843H130.605V17.3891H138.284V20.5623H130.605V24.5508H138.884V27.724H127.045V10.6699H127.049Z" fill="white"/>
<path d="M141.559 10.6699H145.141V24.4781H153.259V27.7176H141.559V10.6699Z" fill="white"/>
<path d="M166.253 19.2349V19.1875C166.253 16.362 164.276 14.0105 161.484 14.0105C158.692 14.0105 156.758 16.3209 156.758 19.1432V19.1906C156.758 22.0161 158.736 24.3739 161.528 24.3739C164.32 24.3739 166.253 22.0635 166.253 19.238V19.2349ZM153.142 19.2349V19.1875C153.142 14.5004 156.673 10.6604 161.531 10.6604C166.389 10.6604 169.873 14.453 169.873 19.14V19.1875C169.873 23.8745 166.342 27.7145 161.484 27.7145C156.626 27.7145 153.142 23.9219 153.142 19.2349Z" fill="white"/>
<path d="M171.209 20.5212V10.673H174.791V20.4295C174.791 23.0717 176.115 24.4339 178.307 24.4339C180.499 24.4339 181.822 23.116 181.822 20.5433V10.673H185.404V20.4042C185.404 25.3125 182.637 27.7208 178.262 27.7208C173.888 27.7208 171.212 25.2872 171.212 20.518V20.5243L171.209 20.5212Z" fill="white"/>
<path d="M103.523 17.8537H99.9004V13.3721H103.523C104.765 13.3721 105.775 14.374 105.775 15.6161C105.775 16.8581 104.768 17.86 103.523 17.86V17.8537ZM106.628 20.2778C108.315 19.4498 109.49 17.7399 109.49 15.7393C109.484 12.9391 107.206 10.6699 104.392 10.6699H96.1953V27.7176H99.7772V20.5559H103.043L106.464 27.7176H110.352L106.631 20.2778H106.628Z" fill="white"/>
<path d="M194.678 17.4934C192.097 16.836 191.153 16.2324 191.153 15.3759V15.3348C191.153 14.4372 191.99 13.8873 193.379 13.8873C195.145 13.8873 196.219 14.4878 197.798 15.5244L199.741 13.1414C197.893 11.4979 195.786 10.6604 193.449 10.6604C190.123 10.6604 187.574 12.6073 187.574 15.6572V15.6983C187.574 18.3752 189.832 19.7848 192.962 20.597C195.761 21.3113 196.336 21.915 196.336 22.8442V22.8916C196.336 23.8682 195.426 24.4623 193.916 24.4623C192.002 24.4623 190.423 23.6754 188.916 22.4365L186.74 25.0312C188.749 26.8201 191.307 27.6987 193.847 27.6987C197.46 27.6987 199.997 25.8435 199.997 22.5313V22.4839C199.997 19.5794 198.083 18.3657 194.687 17.4808L194.678 17.4903V17.4934Z" fill="white"/>
<path d="M62.5088 35.5336V42.4772H64.4671C66.5392 42.4772 67.9353 41.0771 67.9353 39.0386V39.007C67.9353 36.9685 66.536 35.5367 64.4671 35.5367H62.5088V35.5304V35.5336ZM59.9788 33.2485H64.4671C68.0869 33.2485 70.5822 35.7327 70.5822 38.9722V39.0038C70.5822 42.2465 68.0838 44.7654 64.4671 44.7654H59.9788V33.2517V33.2485Z" fill="white"/>
<path d="M95.3521 33.2485H92.822V44.7623H95.3521V33.2485Z" fill="white"/>
<path d="M97.1208 39.0291V38.9975C97.1208 35.8275 99.5877 33.2264 102.967 33.2264C104.973 33.2264 106.183 33.77 107.345 34.7593L105.798 36.624C104.938 35.9066 104.171 35.4925 102.882 35.4925C101.098 35.4925 99.6825 37.0665 99.6825 38.9691V39.0007C99.6825 41.0392 101.082 42.5373 103.062 42.5373C103.953 42.5373 104.752 42.3161 105.371 41.8673V40.2712H102.904V38.1505H107.746V42.9956C106.6 43.969 105.021 44.7655 102.983 44.7655C99.5088 44.7655 97.1208 42.3287 97.1208 39.026V39.0323V39.0291Z" fill="white"/>
<path d="M109.534 33.2485H111.872L117.263 40.3407V33.2485H119.765V44.7654H117.611L112.039 37.4457V44.7654H109.54V33.2485H109.534Z" fill="white"/>
<path d="M72.373 33.2485H79.9347V35.3914H74.7641V37.787H79.919V39.9299H74.7641V42.6258H80.3233V44.7686H72.3699V33.2549L72.373 33.2485Z" fill="white"/>
<path d="M87.4555 37.8629C85.7246 37.4205 85.0865 37.0096 85.0865 36.4312V36.3996C85.0865 35.7928 85.6487 35.4199 86.5805 35.4199C87.765 35.4199 88.4915 35.8244 89.5496 36.526L90.8541 34.9205C89.6128 33.808 88.1978 33.2454 86.6279 33.2454C84.3916 33.2454 82.6828 34.5602 82.6828 36.6208V36.6525C82.6828 38.4571 84.199 39.4179 86.3026 39.9647C88.182 40.4482 88.5705 40.8559 88.5705 41.4817V41.5133C88.5705 42.1707 87.9609 42.5784 86.9438 42.5784C85.6614 42.5784 84.5969 42.0474 83.5799 41.2099L82.1174 42.964C83.4693 44.1681 85.1908 44.7655 86.8901 44.7655C89.3159 44.7655 91.0216 43.5139 91.0216 41.2763V41.2447C91.0216 39.282 89.7392 38.4603 87.4555 37.8629Z" fill="white"/>
<path d="M136.227 38.1H133.795V35.0722H136.227C137.065 35.0722 137.737 35.7517 137.737 36.5829C137.737 37.4141 137.058 38.0936 136.227 38.0936V38.1ZM138.312 39.7371C139.443 39.1777 140.233 38.0209 140.233 36.6714C140.233 34.7814 138.701 33.2422 136.805 33.2422H131.297V44.756H133.701V39.9172H135.896L138.195 44.756H140.804L138.306 39.7276L138.312 39.7339V39.7371Z" fill="white"/>
<path d="M121.553 33.2485H129.114V35.3914H123.941V37.787H129.099V39.9299H123.941V42.6258H129.503V44.7686H121.546V33.2549L121.553 33.2485Z" fill="white"/>
<defs>
<linearGradient id="paint0_linear_619_17296" x1="7.69837" y1="26.8726" x2="3.52204" y2="16.8256" gradientUnits="userSpaceOnUse">
<stop stop-color="white"/>
<stop offset="1" stop-color="white" stop-opacity="0.3"/>
<stop offset="1" stop-color="white" stop-opacity="0.45"/>
<stop offset="1" stop-color="white" stop-opacity="0.45"/>
</linearGradient>
<linearGradient id="paint1_linear_619_17296" x1="45.527" y1="16.3421" x2="48.8398" y2="22.11" gradientUnits="userSpaceOnUse">
<stop stop-color="white"/>
<stop offset="1" stop-color="white" stop-opacity="0.45"/>
</linearGradient>
<clipPath id="clip0_619_17296">
<rect width="49.7" height="55" fill="white" transform="matrix(-1 0 0 1 50 0)"/>
</clipPath>
</defs>
</svg>
