<svg width="120" height="107" viewBox="0 0 120 107" fill="none" xmlns="http://www.w3.org/2000/svg">
<path d="M0 76.2982H3.29754L6.9741 82.6279L10.6507 76.2982H13.9482V90.9665H10.8781V81.1497L6.9362 87.5174H6.89829L3.03222 81.1876V90.9665H0.0379036V76.2982H0Z" fill="white"/>
<path d="M21.0738 76.2982H23.9165L29.9052 90.9665H26.6834L25.281 87.5174H19.6335L18.2311 90.9665H15.0852L21.0738 76.2982ZM24.1819 84.7884L22.4383 79.9747L20.6948 84.7884H24.1819Z" fill="white"/>
<path d="M42.3374 76.2982H45.7107L49.3494 86.7593L52.9881 76.2982H56.2856L50.6381 90.9665H47.947L42.3374 76.2982Z" fill="white"/>
<path d="M57.4984 76.2982H67.1256V79.0272H60.5306V82.0973H67.1256V84.8263H60.5306V88.2754H67.6184V91.0044H57.4604L57.4984 76.2982Z" fill="white"/>
<path d="M69.9304 76.2982H73.0005V88.1996H79.9746V91.0044H69.9304V76.2982Z" fill="white"/>
<path d="M79.8611 83.6513V83.6134C79.8611 79.5957 82.8933 76.2603 87.0626 76.2603C91.2319 76.2603 94.2262 79.5199 94.2262 83.5755V83.6134C94.2262 87.6311 91.194 90.9665 87.0247 90.9665C82.8554 90.9665 79.8611 87.7069 79.8611 83.6513ZM91.0803 83.6513V83.6134C91.0803 81.1876 89.3747 79.1409 86.9868 79.1409C84.5989 79.1409 82.9312 81.1118 82.9312 83.5755V83.6134C82.9312 86.0392 84.6368 88.0859 87.0247 88.0859C89.4505 88.0859 91.0803 86.0771 91.0803 83.6513Z" fill="white"/>
<path d="M95.3254 84.7505V76.2603H98.3956V84.6747C98.3956 86.9488 99.5326 88.1238 101.39 88.1238C103.247 88.1238 104.384 86.9867 104.384 84.7884V76.2982H107.454V84.6747C107.454 88.9198 105.066 90.9665 101.314 90.9665C97.6375 90.9665 95.3254 88.8819 95.3254 84.7505Z" fill="white"/>
<path d="M39.9875 84.561C41.4278 83.8408 42.4511 82.3626 42.4511 80.657C42.4511 78.2312 40.4802 76.2982 38.0923 76.2982H31.0803V90.9665H34.1504V84.7884H36.9552L39.8738 90.9665H43.2092L39.9875 84.561ZM37.3343 82.4763H34.2262V78.6102H37.3343C38.3955 78.6102 39.2673 79.482 39.2673 80.5433C39.2673 81.6045 38.3955 82.4763 37.3343 82.4763Z" fill="white"/>
<path d="M115.452 82.1731C113.253 81.6045 112.419 81.0739 112.419 80.3538V80.3158C112.419 79.5578 113.14 79.0651 114.315 79.0651C115.831 79.0651 116.74 79.5957 118.105 80.4675L119.773 78.4207C118.181 77.0183 116.399 76.2982 114.39 76.2982C111.548 76.2982 109.349 77.9659 109.349 80.6191V80.657C109.349 82.969 111.282 84.1819 113.973 84.8642C116.361 85.4706 116.854 86.0013 116.854 86.7972V86.8351C116.854 87.669 116.058 88.1996 114.769 88.1996C113.14 88.1996 111.775 87.5174 110.486 86.4561L108.629 88.6923C110.335 90.2464 112.533 91.0044 114.731 91.0044C117.84 91.0044 120 89.4125 120 86.5698V86.5319C120 83.9545 118.37 82.8932 115.452 82.1731Z" fill="white"/>
<path d="M24.7126 96.4624H28.5029C31.573 96.4624 33.6577 98.547 33.6577 101.314V101.352C33.6577 104.081 31.5351 106.203 28.5029 106.203H24.7126V96.4624ZM26.8352 98.3954V104.27H28.5029C30.2464 104.27 31.4214 103.095 31.4214 101.352C31.4214 99.6462 30.2464 98.4333 28.5029 98.4333L26.8352 98.3954Z" fill="white"/>
<path d="M52.4573 96.4624H54.5798V106.203H52.4573V96.4624Z" fill="white"/>
<path d="M56.0959 101.352C56.0959 98.6608 58.1806 96.4624 61.0233 96.4624C62.7289 96.4624 63.7523 96.9172 64.7378 97.7511L63.4112 99.343C62.691 98.7366 62.0467 98.3954 60.9475 98.3954C59.4314 98.3954 58.2564 99.722 58.2564 101.314V101.352C58.2564 103.057 59.4314 104.346 61.0991 104.346C61.8572 104.346 62.5394 104.157 63.07 103.778V102.413H60.9854V100.594H65.0789V104.687C64.0934 105.521 62.7668 106.165 61.0612 106.165C58.1427 106.203 56.0959 104.157 56.0959 101.352Z" fill="white"/>
<path d="M66.595 96.4624H68.5659L73.1142 102.451V96.4624H75.2368V106.203H73.4175L68.7175 100.025V106.203H66.595V96.4624Z" fill="white"/>
<path d="M35.1738 96.4624H41.5794V98.2817H37.2206V100.291H41.5794V102.11H37.2206V104.384H41.9205V106.203H35.2117L35.1738 96.4624Z" fill="white"/>
<path d="M47.9469 100.366C46.4687 99.9874 45.9381 99.6462 45.9381 99.1535V99.1156C45.9381 98.6229 46.4308 98.2817 47.1889 98.2817C48.1744 98.2817 48.8187 98.6229 49.6905 99.2293L50.7897 97.8648C49.7284 96.9172 48.5534 96.4624 47.2268 96.4624C45.3317 96.4624 43.8914 97.5616 43.8914 99.3051V99.343C43.8914 100.859 45.18 101.693 46.9615 102.148C48.5534 102.565 48.8945 102.906 48.8945 103.436V103.474C48.8945 104.043 48.3639 104.384 47.53 104.384C46.4308 104.384 45.5591 103.929 44.6873 103.209L43.4365 104.687C44.5736 105.711 46.0518 106.203 47.4542 106.203C49.501 106.203 50.9413 105.142 50.9413 103.247V103.209C50.9413 101.541 49.88 100.859 47.9469 100.366Z" fill="white"/>
<path d="M90.9287 101.958C91.8763 101.503 92.5585 100.518 92.5585 99.3809C92.5585 97.789 91.2698 96.5003 89.6779 96.5003H85.0159V106.241H87.0626V102.11H88.9198L90.8529 106.203H93.0512L90.9287 101.958ZM89.1852 100.556H87.1384V98.0164H89.1852C89.9053 98.0164 90.4739 98.585 90.4739 99.3051C90.4739 100.025 89.8674 100.556 89.1852 100.556Z" fill="white"/>
<path d="M76.7529 96.4624H83.1585V98.2817H78.7997V100.291H83.1585V102.11H78.7997V104.384H83.4996V106.203H76.7908L76.7529 96.4624Z" fill="white"/>
<g clip-path="url(#clip0_619_17071)">
<path d="M80.521 31.4982L61.5172 42.6133C61.0121 42.9083 60.3854 42.9083 59.878 42.6133L40.8743 31.4982C40.2888 31.1553 39.9284 30.5289 39.9284 29.8522V21.4804C39.9284 21.0712 40.3738 20.8174 40.7273 21.0255C40.1236 20.6757 38.4959 19.5646 36.5331 19.5646C33.6979 19.5646 31.3999 21.853 31.3999 24.6764V44.7074C31.3999 47.4897 32.8944 50.0615 35.321 51.4538L56.7789 63.76C57.991 64.455 59.3454 64.8025 60.6999 64.8025C62.0544 64.8025 63.4088 64.455 64.621 63.76L86.0788 51.4538C88.5054 50.0615 89.9999 47.4897 89.9999 44.7074V20.095C89.9999 27.2049 84.6716 29.0109 80.5256 31.4982H80.521ZM51.0626 48.683C51.0626 49.0922 50.6172 49.346 50.2637 49.138L40.8743 43.6467C40.2888 43.3038 39.9284 42.6774 39.9284 42.0007V35.4875C39.9284 35.0783 40.3738 34.8268 40.7273 35.0326L50.1167 40.5238C50.7021 40.8667 51.0626 41.4931 51.0626 42.1698V48.683ZM81.4668 42.0007C81.4668 42.6774 81.1064 43.3038 80.521 43.6467L71.1316 49.138C70.778 49.3437 70.3327 49.0899 70.3327 48.683V42.1698C70.3327 41.4931 70.6931 40.8667 71.2785 40.5238L80.6679 35.0326C81.0214 34.8268 81.4668 35.0806 81.4668 35.4875V42.0007Z" fill="url(#paint0_linear_619_17071)"/>
<path d="M40.7273 21.0278L59.8574 32.2161C60.3762 32.5201 61.0213 32.5201 61.5401 32.2161L80.6702 21.0278C81.0237 20.822 81.4691 21.0758 81.4691 21.4827V29.8545C81.4691 30.5312 81.1087 31.1576 80.5233 31.5005C84.6693 29.0132 89.9976 27.2072 89.9976 20.0973C89.9976 17.3151 88.5031 14.7432 86.0766 13.351L64.6187 1.04247C63.4065 0.347491 62.0521 0 60.6976 0C59.3431 0 57.9887 0.347491 56.7766 1.04247L35.321 13.3487C32.8944 14.7409 31.3999 17.3128 31.3999 20.095V24.6764C31.3999 21.8531 33.6979 19.5669 36.5308 19.5669C38.4936 19.5669 40.1236 20.678 40.725 21.0278L59.8551 32.2161" fill="url(#paint1_linear_619_17071)"/>
</g>
<defs>
<linearGradient id="paint0_linear_619_17071" x1="40.1231" y1="31.7586" x2="35.1793" y2="19.893" gradientUnits="userSpaceOnUse">
<stop stop-color="white"/>
<stop offset="1" stop-color="white" stop-opacity="0.3"/>
<stop offset="1" stop-color="white" stop-opacity="0.45"/>
<stop offset="1" stop-color="white" stop-opacity="0.45"/>
</linearGradient>
<linearGradient id="paint1_linear_619_17071" x1="84.7259" y1="19.3134" x2="88.6456" y2="26.1222" gradientUnits="userSpaceOnUse">
<stop stop-color="white"/>
<stop offset="1" stop-color="white" stop-opacity="0.45"/>
</linearGradient>
<clipPath id="clip0_619_17071">
<rect width="58.6" height="65" fill="white" transform="matrix(-1 0 0 1 90 0)"/>
</clipPath>
</defs>
</svg>
