<svg width="257" height="60" viewBox="0 0 257 60" fill="none" xmlns="http://www.w3.org/2000/svg">
<path d="M45.5837 2.61517C46.4876 3.53413 47.1858 4.61241 47.6372 5.78671C48.0886 6.96101 48.2842 8.20766 48.2126 9.45351V36.7507C48.2315 38.8925 48.0974 41.033 47.8112 43.1582C47.5127 45.1842 46.8833 47.1556 45.9449 49.0035C44.1902 52.5296 41.2138 55.4007 37.4963 57.1534C33.2766 59.1181 28.6038 60.0832 23.8902 59.9636C19.7831 60.0927 15.6896 59.4558 11.8494 58.0901C8.41561 56.7213 5.51042 54.4077 3.52117 51.4578C2.4175 49.8068 1.56005 48.023 0.972524 46.1558C0.353336 44.2989 0.0288119 42.3675 0.00926851 40.4228C-0.0490082 39.2916 0.168108 38.1627 0.644294 37.1211C1.12048 36.0795 1.84334 35.1522 2.75857 34.4088C4.63236 32.9575 7.00746 32.1917 9.44122 32.2543C10.6231 32.1933 11.8056 32.3616 12.9143 32.7486C14.023 33.1355 15.0338 33.7327 15.883 34.5025C17.28 35.9427 18.2304 37.7108 18.6324 39.6172C18.9644 40.9687 19.4004 42.2961 19.9368 43.5891C20.2149 44.2021 20.6743 44.7285 21.2613 45.1066C22.0279 45.4958 22.9005 45.6653 23.7698 45.5937C25.2949 45.5937 28.4657 45.5937 28.4657 38.3619V9.45351C28.3913 8.21769 28.5801 6.98039 29.021 5.81307C29.4619 4.64575 30.1462 3.5716 31.0344 2.65265C31.9809 1.77429 33.1105 1.08663 34.3531 0.632244C35.5958 0.177857 36.9251 -0.033591 38.2589 0.0109767C39.6045 -0.0360134 40.9465 0.170346 42.2049 0.61775C43.4633 1.06515 44.6124 1.74444 45.5837 2.61517V2.61517ZM62.5813 0.0109767C61.2924 -0.0161142 60.011 0.200638 58.8142 0.648196C57.6174 1.09575 56.5301 1.76485 55.6177 2.61517C54.7209 3.53714 54.0301 4.61677 53.5856 5.79094C53.1411 6.96511 52.9519 8.21024 53.0289 9.45351V50.5024C52.9518 51.75 53.143 52.9994 53.591 54.1771C54.039 55.3547 54.735 56.4367 55.6378 57.3594C56.5471 58.2083 57.6311 58.8767 58.8244 59.3242C60.0177 59.7718 61.2956 59.9893 62.5813 59.9636C63.883 60.0008 65.1795 59.7927 66.3931 59.3517C67.6068 58.9107 68.7129 58.2458 69.6452 57.3969C70.5602 56.4727 71.2663 55.3859 71.7214 54.2014C72.1766 53.0168 72.3713 51.7588 72.2942 50.5024V9.45351C72.3687 8.1958 72.1707 6.93698 71.7121 5.75235C71.2535 4.56772 70.5437 3.48161 69.6252 2.55897C68.7048 1.72796 67.6175 1.07501 66.4259 0.637732C65.2342 0.200451 63.9618 -0.012541 62.6816 0.0109767H62.5813ZM125.655 0.0109767C124.402 -0.0227376 123.155 0.188128 121.993 0.6301C120.832 1.07207 119.783 1.73541 118.912 2.57769C117.254 4.38585 116.406 6.72083 116.544 9.09753V30.006L99.4261 7.72987C98.7639 6.83058 98.1418 5.96875 97.5197 5.1444C96.8549 4.23934 96.0953 3.39836 95.252 2.63389C94.3403 1.83548 93.2791 1.20041 92.1214 0.760374C90.4954 0.172298 88.7478 -0.0640904 87.0099 0.0689525C85.272 0.201995 83.589 0.701017 82.0874 1.52852C80.319 2.44036 78.9118 3.85922 78.0738 5.57534C77.4038 7.20528 77.0965 8.94557 77.1707 10.69V50.8958C77.0461 53.2749 77.9168 55.606 79.5989 57.3969C81.4308 59.0246 83.863 59.9324 86.392 59.9324C88.9209 59.9324 91.3531 59.0246 93.185 57.3969C94.0545 56.5171 94.7262 55.4836 95.1605 54.3573C95.5948 53.231 95.7829 52.0349 95.7136 50.8396V30.5681L112.25 52.3759C112.932 53.219 113.594 54.062 114.256 54.8677C115.036 55.8169 115.932 56.6782 116.925 57.4344C117.996 58.2711 119.229 58.9072 120.558 59.3079C121.907 59.7092 123.316 59.9053 124.732 59.8887C127.782 59.8887 134.886 58.9332 134.886 49.9965V9.09753C135.022 6.71465 134.158 4.37619 132.478 2.57769C131.594 1.73151 130.53 1.06634 129.356 0.624468C128.181 0.182592 126.921 -0.026323 125.655 0.0109767V0.0109767ZM188.267 0.0109767C187.014 -0.0227376 185.767 0.188128 184.606 0.6301C183.445 1.07207 182.395 1.73541 181.524 2.57769C179.837 4.37447 178.96 6.71069 179.076 9.09753V30.006L161.958 7.72987C161.296 6.83058 160.674 5.96875 160.052 5.1444C159.387 4.23934 158.627 3.39836 157.784 2.63389C156.872 1.83548 155.811 1.20041 154.653 0.760374C153.013 0.157337 151.247 -0.0869854 149.491 0.0461681C147.734 0.179322 146.033 0.686419 144.519 1.52852C142.75 2.44036 141.343 3.85922 140.505 5.57534C139.835 7.20528 139.528 8.94557 139.602 10.69V50.8958C139.478 53.2749 140.348 55.606 142.03 57.3969C143.862 59.0246 146.295 59.9324 148.823 59.9324C151.352 59.9324 153.785 59.0246 155.616 57.3969C156.486 56.5171 157.158 55.4836 157.592 54.3573C158.026 53.231 158.214 52.0349 158.145 50.8396V30.5681L174.862 52.3759C175.544 53.219 176.206 54.062 176.868 54.8677C177.649 55.8169 178.544 56.6782 179.538 57.4344C180.608 58.2711 181.841 58.9072 183.17 59.3079C184.519 59.7092 185.928 59.9053 187.344 59.8887C190.394 59.8887 197.498 58.9332 197.498 49.9965V9.09753C197.634 6.71465 196.77 4.37619 195.09 2.57769C194.206 1.73151 193.142 1.06634 191.968 0.624468C190.793 0.182592 189.533 -0.026323 188.267 0.0109767V0.0109767ZM254.291 2.18427C252.561 0.740258 250.309 -0.0365664 247.989 0.0109767C246.654 -0.0261614 245.326 0.213293 244.101 0.712146C242.876 1.211 241.785 1.95686 240.905 2.89619C240.222 3.5997 239.598 4.35133 239.039 5.1444L228.905 19.2146L220.597 7.57999C219.339 5.68369 217.902 3.89669 216.302 2.24047C215.451 1.47921 214.443 0.888639 213.338 0.5052C212.234 0.121761 211.057 -0.0464276 209.88 0.0109767C207.534 -0.0248067 205.252 0.733895 203.459 2.14679C202.61 2.79829 201.926 3.61607 201.455 4.54209C200.983 5.46811 200.735 6.47969 200.729 7.50506C200.772 8.85633 201.157 10.1789 201.853 11.3645C202.74 12.9328 203.732 14.4471 204.823 15.8984L219.031 34.8772V50.5024C218.949 51.7605 219.139 53.0214 219.591 54.2093C220.042 55.3972 220.746 56.4877 221.66 57.4156C223.567 59.0764 226.077 60 228.684 60C231.291 60 233.802 59.0764 235.708 57.4156C236.633 56.4923 237.347 55.4038 237.81 54.2157C238.272 53.0276 238.472 51.7645 238.397 50.5024V34.8772L252.946 15.6549C254.008 14.313 254.979 12.9115 255.856 11.4582C256.584 10.196 256.977 8.78871 257 7.35517C256.981 6.36076 256.728 5.38235 256.26 4.48892C255.792 3.59549 255.12 2.8088 254.291 2.18427V2.18427Z" fill="#75757A"/>
</svg>
